<?xml version="1.0" encoding="UTF-8"?> <svg xmlns="http://www.w3.org/2000/svg" xmlns:xlink="http://www.w3.org/1999/xlink" width="232.85" height="89.047" viewBox="0 0 232.85 89.047"><defs><clipPath id="clip-path"><path id="Path_245" data-name="Path 245" d="M-618.819,47.316c.187-.211.391-.18.562-.432a26.458,26.458,0,0,0,2.678-4.579s-2.678-1.037-6.307,1.3-3.729,8.726-4.234,4.838c0,0,2.765-7.171,4.493-7.43s3.283,2.009,7.344-.075,4.925-2.43,3.8-2.776-3.283-2.289-7.43-.6c0,0-4.838,3.456-2.16.518s4.12-4.061,5.184-3.975,2.678,1.814,3.456,1.987,5.875-1.6,5.875-1.6a4.73,4.73,0,0,0-2.209-1.784l-.037.1.008-.111a5.194,5.194,0,0,0-2.341-.321c-3.2.26-1.814.605-3.024.951s-1.555-.235.259-1.046,3.888-1.891,3.888-1.891l1.3,1.21-.078,1.1.029.012.222-.592.518-.172.691.691.518-.173-.778-.518-.259-.475.345-.389,1.123.087-.6-.432-1.3.3-.864-.74a4.859,4.859,0,0,1,3.2-1.419,1.485,1.485,0,0,1,.518.907c.173.691.518.605.518.605l.259-.173-.518-.778a3.112,3.112,0,0,1,.951.345c.432.259.345-.345.345-.345l-1.037-.641s-.432-.223.691-.482,1.3-.074,1.3-.074l.432.506.472.26-.472-.906,1.124-.035,0-.485h-1.385l-.864.3-1.3.173-.518-.043.518-.993-1.123-.036.172,1.159s-3.283,1.339-3.542,1.469-.087-1.555-.087-1.555l.951-.475h-.864v-1.3h-.346l-.086,1.3-.864-.389,0,.283.515.537.173,1.6s-6.44,3.888-5.443,2.074,3.888-3.283,1.382-9.245c0,0-3.715,2.592-3.456,6.307s1.642,3.888.432,4.665-5.011,4.32-5.011,4.32-2.765,3.24-.864-.216c0,0,1.987-1.08,2.16-4.363a15.957,15.957,0,0,0-1.123-6.307s-4.061,4.32-3.715,8.078,2.16,3.844.691,6.264l-2.664,5.875s-.965,4.709-1.224,1.685c0,0,3.629-6.911-2.074-14.688,0,0-2.851,3.931-2.678,7.776a11.856,11.856,0,0,0,1.987,6.523c.518.821,3.023,2.765,2.764,5.573s.518,4.277.518,5.227,1.037,5.1-.432,1.555-.951-3.888-5.184-8.035l-5.7-3.456s-.864,8.553,6.134,12.354c0,0,6.653,2.938,7,5.746a21.278,21.278,0,0,0,1.382,3.24c.6.951,3.006,3.5,1.623,3.242-.876-.164-1.685-1.253-2.117-2.289s-4.6-5.964-11.559-7a7.58,7.58,0,0,0,2.376,7,11.159,11.159,0,0,0,9.677,3.456c3.024-.259,3.515.951,4.06,1.555a32.6,32.6,0,0,0,3.283,3.024c.518.3,3.888,2.246,1.555,2.074s-1.641-1.037-3.542-2.2-3.11-3.067-9.763-1.858c-2.206.4-3.326.612-3.857.71.562.991,5.367,6.592,10.6,6.2,5.788-.432,6.307-1.468,6.307-1.468l3.715-.26,7.343,5.421,3.8-.065s-8.812-5.659-9.59-5.875a2.728,2.728,0,0,1-1.555-4.233c1.534-2.678,3.629-7.646-1.124-13.046a7.91,7.91,0,0,0-.057-5.615,10.449,10.449,0,0,0-3.831,2.16c-1.123,1.3-4.147,3.2-4.319,7.171,0,0,.625,2.865-.076,3.844s-4.33-6.35-3.639-7.646a17.82,17.82,0,0,1,2.765-3.585c.259-.13,5.832-5.08,3.24-14m.648,25.228,1.123,1.321s1.641,3.258,2.333,3.56,1.525,1.9.777,2.074-2.327-1.123-2.764-1.339-3.975-4.363-3.975-4.363l2.506-1.253m-4.113-22.709c-2.446,2.634-3.383,7.906-2.885,10.311.518,2.505-.345,3.155-.345,3.155s-2.074-9.98-.346-11.708a10.233,10.233,0,0,1,3.576-1.758" transform="translate(638.681 -22.434)" fill="none"></path></clipPath><clipPath id="clip-path-2"><path id="Path_286" data-name="Path 286" d="M-510.764,49.5l-1.026-1.458a2.652,2.652,0,0,0-1.458-1.89c-2.052-1.242-4.428.972-4.428.972-3.564-.432-4.374,2.916-5.022,2.376s.324-2,.324-2l2.16-2.538a5.466,5.466,0,0,0,.81-3.672,4.362,4.362,0,0,0-.3-2.538l-.076-1.188a4.385,4.385,0,0,0-1.512-2.538,3.08,3.08,0,0,0-1.351-2.16,10.452,10.452,0,0,0-1.079-1.134c-.324-.324.054-.378.054-.378-1.025-.054-1.458,2.376-1.458,2.916s-.108,1.62-.7,2-.108,1.835-.108,1.835l.108,1.512a1.89,1.89,0,0,0,.81,2,3.778,3.778,0,0,0,1.512,2.916c.486.648.864,3.024.054,3.24-.563.15-1.088-.966-1.093-.936l.013.018s.309.319.311.306a13.361,13.361,0,0,1-1.823-3.221,15.214,15.214,0,0,0-2.375-3.672s.216-1.89.324-2.16a10.986,10.986,0,0,0,.54-2.538c.108-1.188-.216-.972-.27-2.16a5.069,5.069,0,0,0-1.188-2.484,5.736,5.736,0,0,1-1.35-1.242c-.378-.594-.864-.324-1.458-.918a2.871,2.871,0,0,0-1.361-.734l-1.037-.518.345.951.173,1.123a7.964,7.964,0,0,0,.173,2.246c.259.778.346,1.123.346,1.123-.346.086.864,1.9,1.037,2.938s-.259.518-.259.518-5.1-3.758-5.011-4.06a2.8,2.8,0,0,0-.259-1.382,2.929,2.929,0,0,1-.864-2.16c-.172-1.814-.864-1.3-1.728-2.2a4.2,4.2,0,0,0-2.246-1.08,8.621,8.621,0,0,0-3.629-.6c.173,1.771,1.3,1.814,1.3,2.765a2.014,2.014,0,0,0,.778,1.512s1.383.562.518.821-.172.259-.172.259c1.123.648.432.864-.087.778s-.756-.778-.756-.778c-.324-1.944-1.944-1.372-1.944-1.372-.972-1.048-2.592.076-2.592.076a2.915,2.915,0,0,0-1.944,1.188c-3.456,2.484-1.4,2.916-1.4,2.916l3.132-.216,2.268-.432c2.376.216,2.7-1.44,2.7-1.44,1.08,1.368,1.728.076,1.728.076l.648.068,3.888,1.944,1.619.971a9.646,9.646,0,0,1,1.446.715c4.626,4.455.054.054.054.054l-1.5-.769a8.153,8.153,0,0,0-1.834-.052c-2.464-.809-2.808.269-2.808.269-2.16-.68-1.3.648-3.132.756s.109,1.08.648,1.512,1.188.864,1.188.864c0,.972,1.728,1.3,1.728,1.3.432,1.62,3.348,1.62,3.672,1.4s2.916.108,3.671-.108,1.512-.864,2.268-.756a5.294,5.294,0,0,1,1.944,1.32l1.08,1.164s1.512,2.052.972,2.268-2.052-1.836-2.052-1.836c-3.132-2.808-4.752-.864-4.752-.864-2.376-.432-3.024,2.7-3.024,2.7l-1.512,1.652c-1.08,2.192,3.023,2.236,3.023,2.236,1.4.972,2.052.324,3.024.324a3.875,3.875,0,0,0,2.052-.972s1.4-.864,2.052-1.188a7.3,7.3,0,0,1,2.268-.324l.756,1.188.216.864s2.375,5.724,1.512,5.724-1.512-.648-1.62-2.268-1.944-1.3-1.944-1.3l-1.512-1.149h-1.836s1.3,6.181,1.836,6.765,2.592-.508,2.592-.508l1.188.076c1.728,0,.432,0,1.588,1.155s-.076,1.869-.076,2.732-.864,5.832-.864,5.832c-1.08,1.4-.432-.388-1.836-3.564s-2.052-2.16-4.1-3.191-2.485.059-2.485.059-1.62,1.3-2.7.972-2.268.972-2.268.972l.738,1.477.125.251a9.059,9.059,0,0,0-.324,3.888c-1.728,2.268-.54,3.132-.54,3.132l-.108.864a4.043,4.043,0,0,0,2.052,4.428s.324,1.728,1.188,2.268,1.512,2.268,1.188,2.916-15.767,9.4-15.767,9.4l.324.756h4V88.6c0-.39,7.829-5.13,7.829-5.13,1.026-.594,2.97.756,2.97.756l1.242,1.242a6.328,6.328,0,0,0,5.022.378c2.268.216,2.592-.648,2.754-.918s.972-.594.972-.594c2.16-.324,2.268-1.782,2.322-2.16s1.3-.918,1.3-.918c2-1.134,2.375-4,2.375-4,.054-.918-.216-.432-.216-.432l-3.618.81c-.81-.378-2.376.27-2.376.27l-.432-.054c-1.566-.486-3.456.864-3.456.864s-1.512.378-2.16.594a2.268,2.268,0,0,0-1.08,1.944c0,.648-.918,1.026-2.052,1.242a1.478,1.478,0,0,1-1.566-.432l3.942-2.916,2.052-1.836a23.956,23.956,0,0,0,1.782-2.268,5.672,5.672,0,0,1,2.484-1.836,4.232,4.232,0,0,1,3.078-.378,3.105,3.105,0,0,0,2.754-.918,5.959,5.959,0,0,1,1.512-.81l.972-.54c.432-.162,1.188-1.835,1.674-2.268s1.026-1.08,1.026-1.458a4.646,4.646,0,0,1,.864-2.385c.54-.5.378-1.287-.108-2.636s-1.458-1.242-2.322-1.08-2.106.81-3.671.27-2.754,1.026-2.754,1.026c-.972,1.35-1.188,1.242-1.188,1.242a28.323,28.323,0,0,1,.54-3.024,3.107,3.107,0,0,1,2.052-1.35,8.461,8.461,0,0,0,2.268-1.35c2.052-.864,2.106-3.726,2.43-4.374a5.749,5.749,0,0,0,.432-2.322,7.77,7.77,0,0,0-.486-2.43s-.162-.108.864-.108a4.5,4.5,0,0,1,1.728.324,9.914,9.914,0,0,0,1.512,1.026.533.533,0,0,0,.648-.162Zm-14.255,18.791-2.052,4.32a16.3,16.3,0,0,1-4.531,5.4c-.006.021-.009.025-.005,0l.005,0c.077-.249.8-3.236.8-3.236l.918-1.512c.756-.648,0-3.186,0-3.186-.162-1.458-.648-1.782-.648-1.782a14.693,14.693,0,0,0-.7-2.268l1.242-.189,1.4.189,1.458.108,1.134-.216.648.486c.81.486.324,1.89.324,1.89Zm-13.089-36.416-.173.172-.734-.389h.562l.345.216ZM-531.3,38.3a3.191,3.191,0,0,1-1.2-.094l-.423-1.384s1.563,1.508,1.62,1.478Z" transform="translate(553.055 -24.918)" fill="none"></path></clipPath><clipPath id="clip-path-3"><path id="Path_319" data-name="Path 319" d="M-560.7,95.554l2.431-.865s3.886-1.749,4.38-4.813a3.214,3.214,0,0,1-1.829,1.089s-1.181,2.488-5.293,3.807l.379.367-.068.415Z" transform="translate(561.012 -89.876)" fill="none"></path></clipPath><clipPath id="clip-path-4"><path id="Path_325" data-name="Path 325" d="M-558.158,95.554l-2.432-.865s-3.886-1.749-4.379-4.813a3.213,3.213,0,0,0,1.829,1.089s1.181,2.488,5.293,3.807l-.379.367.068.415Z" transform="translate(564.969 -89.876)" fill="none"></path></clipPath></defs><g id="CA_Logo_Updated" data-name="CA Logo Updated" transform="translate(0.069)"><rect id="Rectangle_304" data-name="Rectangle 304" width="1.084" height="89.047" transform="translate(96.397)" fill="#11182f"></rect><g id="Group_286" data-name="Group 286" transform="translate(107.807 6.663)"><g id="Group_284" data-name="Group 284" transform="translate(0 21.338)"><path id="Path_196" data-name="Path 196" d="M-409.269,86.495a8.514,8.514,0,0,1-2.709,5.664,8.879,8.879,0,0,1-6.061,1.993,8.152,8.152,0,0,1-6.57-2.939,11.824,11.824,0,0,1-2.471-7.864V81.125a13.182,13.182,0,0,1,1.152-5.672,8.6,8.6,0,0,1,3.265-3.757,9.09,9.09,0,0,1,4.893-1.311,8.361,8.361,0,0,1,5.91,2.058,8.612,8.612,0,0,1,2.589,5.7h-3.066a6.649,6.649,0,0,0-1.724-4.016,5.218,5.218,0,0,0-3.71-1.243,5.459,5.459,0,0,0-4.584,2.162,9.931,9.931,0,0,0-1.66,6.153v2.242a10.2,10.2,0,0,0,1.573,5.994,5.082,5.082,0,0,0,4.4,2.226,5.87,5.87,0,0,0,3.9-1.151,6.4,6.4,0,0,0,1.8-4.012Z" transform="translate(428.525 -70.385)" fill="#11182f"></path><path id="Path_197" data-name="Path 197" d="M-376.122,98a6.246,6.246,0,0,1-5.037,2.017,5.34,5.34,0,0,1-4.186-1.6,6.9,6.9,0,0,1-1.454-4.726V82.509h2.939V93.614q0,3.908,3.177,3.908,3.368,0,4.48-2.51v-12.5h2.939V99.7h-2.8Z" transform="translate(409.041 -76.249)" fill="#11182f"></path><path id="Path_198" data-name="Path 198" d="M-343.857,94.842a2.165,2.165,0,0,0-.9-1.851,8.637,8.637,0,0,0-3.129-1.136,14.8,14.8,0,0,1-3.543-1.144,5.036,5.036,0,0,1-1.938-1.589,3.8,3.8,0,0,1-.628-2.192,4.458,4.458,0,0,1,1.787-3.574,6.976,6.976,0,0,1,4.567-1.462A7.184,7.184,0,0,1-342.9,83.4a4.8,4.8,0,0,1,1.819,3.861h-2.954a2.653,2.653,0,0,0-1.025-2.081,3.84,3.84,0,0,0-2.582-.874,4.018,4.018,0,0,0-2.51.7,2.2,2.2,0,0,0-.906,1.827,1.783,1.783,0,0,0,.842,1.6,10.346,10.346,0,0,0,3.043,1.033,15.865,15.865,0,0,1,3.567,1.176,5.212,5.212,0,0,1,2.026,1.644,4.048,4.048,0,0,1,.659,2.343,4.4,4.4,0,0,1-1.843,3.694,7.731,7.731,0,0,1-4.782,1.39,8.66,8.66,0,0,1-3.654-.731,5.937,5.937,0,0,1-2.487-2.041,4.922,4.922,0,0,1-.9-2.836h2.939a3.043,3.043,0,0,0,1.183,2.344,4.592,4.592,0,0,0,2.916.866,4.737,4.737,0,0,0,2.677-.675A2.074,2.074,0,0,0-343.857,94.842Z" transform="translate(393.458 -75.952)" fill="#11182f"></path><path id="Path_199" data-name="Path 199" d="M-319.924,74.446v4.163h3.209v2.272h-3.209V91.555a2.386,2.386,0,0,0,.429,1.551,1.8,1.8,0,0,0,1.462.517,7.125,7.125,0,0,0,1.4-.191V95.8a8.589,8.589,0,0,1-2.256.315,3.661,3.661,0,0,1-2.971-1.192,5.119,5.119,0,0,1-1-3.383V80.881h-3.129V78.609h3.129V74.446Z" transform="translate(379.631 -72.349)" fill="#11182f"></path><path id="Path_200" data-name="Path 200" d="M-304.761,90.648a10.153,10.153,0,0,1,.993-4.544A7.4,7.4,0,0,1-301,82.99a7.521,7.521,0,0,1,4.043-1.1,7.249,7.249,0,0,1,5.68,2.431,9.351,9.351,0,0,1,2.169,6.466V91a10.245,10.245,0,0,1-.961,4.5,7.3,7.3,0,0,1-2.749,3.107,7.617,7.617,0,0,1-4.107,1.112,7.231,7.231,0,0,1-5.663-2.431,9.3,9.3,0,0,1-2.169-6.434Zm2.955.35a7.354,7.354,0,0,0,1.326,4.592,4.245,4.245,0,0,0,3.551,1.732,4.22,4.22,0,0,0,3.559-1.756,8.04,8.04,0,0,0,1.319-4.917,7.342,7.342,0,0,0-1.343-4.583,4.268,4.268,0,0,0-3.567-1.756,4.22,4.22,0,0,0-3.511,1.732A7.978,7.978,0,0,0-301.806,91Z" transform="translate(369.361 -75.952)" fill="#11182f"></path><path id="Path_201" data-name="Path 201" d="M-265.822,82.212l.08,1.906a6.348,6.348,0,0,1,5.1-2.224q3.606,0,4.909,2.764a6.524,6.524,0,0,1,2.233-2,6.6,6.6,0,0,1,3.249-.762q5.655,0,5.751,5.989V99.4h-2.939V88.058a3.95,3.95,0,0,0-.842-2.757,3.711,3.711,0,0,0-2.828-.913,3.9,3.9,0,0,0-2.717.977,3.964,3.964,0,0,0-1.255,2.629V99.4h-2.955V88.137q0-3.748-3.669-3.749a3.932,3.932,0,0,0-3.956,2.462V99.4H-268.6V82.212Z" transform="translate(351.871 -75.952)" fill="#11182f"></path><path id="Path_202" data-name="Path 202" d="M-205.26,94.842a2.165,2.165,0,0,0-.9-1.851,8.641,8.641,0,0,0-3.13-1.136,14.8,14.8,0,0,1-3.543-1.144,5.042,5.042,0,0,1-1.938-1.589,3.8,3.8,0,0,1-.628-2.192,4.459,4.459,0,0,1,1.787-3.574,6.979,6.979,0,0,1,4.568-1.462A7.185,7.185,0,0,1-204.3,83.4a4.8,4.8,0,0,1,1.819,3.861h-2.955a2.654,2.654,0,0,0-1.025-2.081,3.84,3.84,0,0,0-2.582-.874,4.018,4.018,0,0,0-2.51.7,2.2,2.2,0,0,0-.906,1.827,1.783,1.783,0,0,0,.842,1.6,10.341,10.341,0,0,0,3.042,1.033,15.847,15.847,0,0,1,3.567,1.176,5.2,5.2,0,0,1,2.026,1.644,4.044,4.044,0,0,1,.659,2.343,4.4,4.4,0,0,1-1.843,3.694,7.73,7.73,0,0,1-4.782,1.39,8.662,8.662,0,0,1-3.654-.731,5.939,5.939,0,0,1-2.486-2.041,4.921,4.921,0,0,1-.9-2.836h2.939a3.042,3.042,0,0,0,1.183,2.344,4.592,4.592,0,0,0,2.916.866,4.738,4.738,0,0,0,2.677-.675A2.073,2.073,0,0,0-205.26,94.842Z" transform="translate(326.421 -75.952)" fill="#11182f"></path><path id="Path_203" data-name="Path 203" d="M-414.866,147.449h-9.691l-2.177,6.053h-3.146l8.834-23.132h2.669l8.849,23.132h-3.129Zm-8.77-2.494h7.864l-3.939-10.819Z" transform="translate(429.879 -99.399)" fill="#11182f"></path><path id="Path_204" data-name="Path 204" d="M-376.368,157.369a6.246,6.246,0,0,1-5.037,2.017,5.34,5.34,0,0,1-4.186-1.6,6.91,6.91,0,0,1-1.454-4.726V141.879h2.939v11.105q0,3.908,3.177,3.908,3.367,0,4.481-2.51v-12.5h2.938v17.19h-2.8Z" transform="translate(409.161 -104.966)" fill="#11182f"></path><path id="Path_205" data-name="Path 205" d="M-351.4,133.816v4.163h3.209v2.272H-351.4v10.674a2.388,2.388,0,0,0,.429,1.551,1.8,1.8,0,0,0,1.462.517,7.119,7.119,0,0,0,1.4-.191v2.369a8.588,8.588,0,0,1-2.256.315,3.66,3.66,0,0,1-2.971-1.191,5.121,5.121,0,0,1-1-3.384V140.251h-3.13v-2.272h3.13v-4.163Z" transform="translate(394.857 -101.066)" fill="#11182f"></path><path id="Path_206" data-name="Path 206" d="M-331.178,137.2a6.249,6.249,0,0,1,5.084-2.4q5.448,0,5.5,6.148v11.359h-2.939V140.937a3.961,3.961,0,0,0-.85-2.749,3.409,3.409,0,0,0-2.6-.889,4.243,4.243,0,0,0-2.51.762,5.181,5.181,0,0,0-1.684,2v12.25h-2.939v-24.4h2.939Z" transform="translate(383.56 -98.209)" fill="#11182f"></path><path id="Path_207" data-name="Path 207" d="M-302.176,150.018a10.153,10.153,0,0,1,.993-4.544,7.4,7.4,0,0,1,2.764-3.114,7.521,7.521,0,0,1,4.043-1.1,7.249,7.249,0,0,1,5.68,2.431,9.354,9.354,0,0,1,2.169,6.466v.207a10.244,10.244,0,0,1-.961,4.5,7.3,7.3,0,0,1-2.749,3.107,7.617,7.617,0,0,1-4.107,1.112,7.231,7.231,0,0,1-5.663-2.431,9.3,9.3,0,0,1-2.169-6.434Zm2.955.35a7.353,7.353,0,0,0,1.326,4.591,4.245,4.245,0,0,0,3.551,1.732,4.22,4.22,0,0,0,3.559-1.756,8.041,8.041,0,0,0,1.318-4.917,7.342,7.342,0,0,0-1.342-4.583,4.268,4.268,0,0,0-3.567-1.756,4.22,4.22,0,0,0-3.511,1.732A7.979,7.979,0,0,0-299.221,150.368Z" transform="translate(368.111 -104.668)" fill="#11182f"></path><path id="Path_208" data-name="Path 208" d="M-257.678,144.218a8.914,8.914,0,0,0-1.446-.111,3.872,3.872,0,0,0-3.924,2.462v12.2h-2.939v-17.19h2.86l.048,1.986a4.575,4.575,0,0,1,4.1-2.3,3.009,3.009,0,0,1,1.3.222Z" transform="translate(350.607 -104.668)" fill="#11182f"></path><path id="Path_209" data-name="Path 209" d="M-245.892,131.455a1.754,1.754,0,0,1,.436-1.208,1.642,1.642,0,0,1,1.295-.493,1.665,1.665,0,0,1,1.3.493,1.734,1.734,0,0,1,.445,1.208,1.678,1.678,0,0,1-.445,1.192,1.7,1.7,0,0,1-1.3.476,1.672,1.672,0,0,1-1.295-.476A1.7,1.7,0,0,1-245.892,131.455Zm3.177,21.75h-2.94v-17.19h2.94Z" transform="translate(340.887 -99.102)" fill="#11182f"></path><path id="Path_210" data-name="Path 210" d="M-229.853,133.816v4.163h3.209v2.272h-3.209v10.674a2.385,2.385,0,0,0,.429,1.551,1.8,1.8,0,0,0,1.462.517,7.123,7.123,0,0,0,1.4-.191v2.369a8.588,8.588,0,0,1-2.256.315,3.66,3.66,0,0,1-2.971-1.191,5.121,5.121,0,0,1-1-3.384V140.251h-3.13v-2.272h3.13v-4.163Z" transform="translate(336.064 -101.066)" fill="#11182f"></path><path id="Path_211" data-name="Path 211" d="M-208.7,154.764l4-12.885h3.146l-6.911,19.843q-1.6,4.29-5.1,4.29l-.556-.048-1.1-.207v-2.383l.794.064a3.911,3.911,0,0,0,2.328-.6,4.371,4.371,0,0,0,1.374-2.208l.652-1.748-6.133-17h3.209Z" transform="translate(326.524 -104.966)" fill="#11182f"></path></g><g id="Group_285" data-name="Group 285" transform="translate(0.664)"><path id="Path_212" data-name="Path 212" d="M-417.663,30.451h-4.87V43.645h-1.2V30.451h-4.86V29.436h10.93Z" transform="translate(428.593 -29.241)" fill="#11182f"></path><path id="Path_213" data-name="Path 213" d="M-401.038,43.645h-1.2V29.436h1.2Z" transform="translate(415.845 -29.241)" fill="#11182f"></path><path id="Path_214" data-name="Path 214" d="M-390.624,29.436l5.241,12.54,5.26-12.54h1.6V43.645h-1.2V37.458l.1-6.343-5.289,12.53h-.927l-5.27-12.482.1,6.256v6.226h-1.2V29.436Z" transform="translate(410.997 -29.241)" fill="#11182f"></path><path id="Path_215" data-name="Path 215" d="M-348.528,37.128a8.206,8.206,0,0,1-.679,3.445,5.175,5.175,0,0,1-1.937,2.284,5.3,5.3,0,0,1-2.908.8,5.048,5.048,0,0,1-4.021-1.781,7.123,7.123,0,0,1-1.532-4.807V35.606a8.156,8.156,0,0,1,.688-3.44,5.26,5.26,0,0,1,1.947-2.3,5.265,5.265,0,0,1,2.9-.8,5.31,5.31,0,0,1,2.894.79,5.2,5.2,0,0,1,1.937,2.235,8.042,8.042,0,0,1,.713,3.347Zm-1.2-1.542a6.282,6.282,0,0,0-1.161-4.021,3.851,3.851,0,0,0-3.182-1.454,3.846,3.846,0,0,0-3.157,1.459,6.331,6.331,0,0,0-1.176,4.074v1.484a6.28,6.28,0,0,0,1.171,4.006,3.842,3.842,0,0,0,3.182,1.479,3.811,3.811,0,0,0,3.182-1.46,6.445,6.445,0,0,0,1.142-4.064Z" transform="translate(395.224 -29.058)" fill="#11182f"></path><path id="Path_216" data-name="Path 216" d="M-326.778,37.721h-4.128v5.924h-1.21V29.436h4.616a5.273,5.273,0,0,1,3.553,1.1,3.849,3.849,0,0,1,1.278,3.08,3.845,3.845,0,0,1-.8,2.408,4.088,4.088,0,0,1-2.147,1.443l3.552,6.05v.127h-1.278Zm-4.128-1.015h3.679a3.409,3.409,0,0,0,2.43-.86,2.919,2.919,0,0,0,.917-2.229,2.926,2.926,0,0,0-.957-2.335,3.96,3.96,0,0,0-2.683-.831h-3.386Z" transform="translate(381.929 -29.241)" fill="#11182f"></path><path id="Path_217" data-name="Path 217" d="M-305.133,44.843h-4.675v-.986h4.675Z" transform="translate(371.138 -36.216)" fill="#11182f"></path><path id="Path_218" data-name="Path 218" d="M-294.737,42.63h7.017v1.015h-8.227V29.436h1.21Z" transform="translate(364.434 -29.241)" fill="#11182f"></path><path id="Path_219" data-name="Path 219" d="M-267.474,36.833h-6.646v5.8h7.641v1.015h-8.842V29.436h8.793v1.015h-7.592v5.368h6.646Z" transform="translate(354.457 -29.241)" fill="#11182f"></path><path id="Path_220" data-name="Path 220" d="M-245.9,39.969a2.3,2.3,0,0,0-.83-1.87,8.775,8.775,0,0,0-3.035-1.307,10.653,10.653,0,0,1-3.221-1.352,3.19,3.19,0,0,1-1.444-2.713,3.181,3.181,0,0,1,1.342-2.65,5.512,5.512,0,0,1,3.43-1.019,5.69,5.69,0,0,1,2.533.546,4.146,4.146,0,0,1,1.732,1.523,4,4,0,0,1,.615,2.176h-1.21a2.987,2.987,0,0,0-1-2.344,3.874,3.874,0,0,0-2.674-.886,4.209,4.209,0,0,0-2.6.729,2.271,2.271,0,0,0-.966,1.9,2.15,2.15,0,0,0,.868,1.769,8.054,8.054,0,0,0,2.781,1.208,13.067,13.067,0,0,1,2.9,1.084,4.132,4.132,0,0,1,1.483,1.341,3.36,3.36,0,0,1,.5,1.844,3.212,3.212,0,0,1-1.342,2.694,5.714,5.714,0,0,1-3.538,1.015,6.941,6.941,0,0,1-2.757-.536,4.21,4.21,0,0,1-1.9-1.5,3.881,3.881,0,0,1-.649-2.215h1.2a2.839,2.839,0,0,0,1.122,2.372,4.751,4.751,0,0,0,2.986.868,4.429,4.429,0,0,0,2.665-.732A2.29,2.29,0,0,0-245.9,39.969Z" transform="translate(344.571 -29.058)" fill="#11182f"></path><path id="Path_221" data-name="Path 221" d="M-221.472,30.451h-4.87V43.645h-1.2V30.451h-4.86V29.436h10.93Z" transform="translate(333.698 -29.241)" fill="#11182f"></path><path id="Path_222" data-name="Path 222" d="M-198.712,36.833h-6.646v5.8h7.641v1.015h-8.842V29.436h8.793v1.015h-7.592v5.368h6.646Z" transform="translate(321.198 -29.241)" fill="#11182f"></path></g></g><g id="Group_298" data-name="Group 298" transform="translate(0 3.243)"><path id="Path_223" data-name="Path 223" d="M-554.374,66.485A27.215,27.215,0,0,0-581.589,39.27,27.215,27.215,0,0,0-608.8,66.485,27.215,27.215,0,0,0-581.589,93.7a27.215,27.215,0,0,0,27.215-27.215Zm-2.376,0a24.839,24.839,0,0,1-24.839,24.839,24.839,24.839,0,0,1-24.839-24.839,24.839,24.839,0,0,1,24.839-24.839A24.839,24.839,0,0,1-556.75,66.485Z" transform="translate(624.23 -30.577)" fill="#9e4919"></path><path id="Path_224" data-name="Path 224" d="M-579.831,93.582a25.338,25.338,0,0,0,25.339-25.338A25.338,25.338,0,0,0-579.831,42.9a25.338,25.338,0,0,0-25.338,25.339,25.338,25.338,0,0,0,25.338,25.338Z" transform="translate(622.471 -32.336)" fill="#203c6e"></path><path id="Path_225" data-name="Path 225" d="M-554.679,62.876l-16.785-.429-5.595-15.831-5.6,15.831-16.785.429,13.327,10.213-4.779,16.1,13.831-9.519,13.831,9.519-4.778-16.1,13.327-10.213Zm-2.563.821-11.8,9.044,4.232,14.253-12.247-8.429-12.248,8.429,4.232-14.253-11.8-9.044,14.863-.38,4.955-14.018,4.954,14.018,14.863.38Z" transform="translate(619.7 -34.131)" fill="#9e4919"></path><path id="Path_226" data-name="Path 226" d="M-574.658,51.813l-4.954,14.018-14.863.38,11.8,9.044-4.231,14.253,12.248-8.429,12.248,8.429-4.231-14.253,11.8-9.044-14.863-.38-4.954-14.018Z" transform="translate(617.299 -36.644)" fill="#fff"></path><path id="Path_227" data-name="Path 227" d="M-555.269,64.684H-581.9c-.616,18.09,9.859,26.869,13.207,26.869s13.932-8.779,13.424-26.869Zm-13.359,25.94c-3.131,0-12.929-8.319-12.353-25.238h24.907c.476,16.919-9.424,25.238-12.555,25.238Z" transform="translate(611.229 -42.87)" fill="#e59800"></path><path id="Path_228" data-name="Path 228" d="M-580.9,65.584c-.592,17.389,9.478,25.94,12.7,25.94s13.393-8.551,12.9-25.94h-25.6Z" transform="translate(610.745 -43.305)" fill="#161615"></path><path id="Path_229" data-name="Path 229" d="M-556.094,71.767" transform="translate(598.734 -46.296)" fill="none" stroke="#161615" stroke-width="0.295"></path><path id="Path_230" data-name="Path 230" d="M-555.537,74.4h-1.7v-.756l-2-.324-.011-.54-.637,0a2.745,2.745,0,0,1-1.08-1.294,4.285,4.285,0,0,1-3.39,1.512,4.285,4.285,0,0,1-3.39-1.512,2.745,2.745,0,0,1-1.08,1.294l-.637,0-.011.54-2.106.324V74.4h-1.58c-.31,13.121,6.833,16.307,8.87,16.307s8.748-3.888,8.748-16.307Zm-.593.45c0,11.584-6.269,15.211-8.159,15.211s-8.562-2.972-8.273-15.211h1.474v-.705l1.965-.3.01-.5.594,0a1.679,1.679,0,0,0,.792-.991,5.122,5.122,0,0,0,3.378,1.195,5.123,5.123,0,0,0,3.378-1.195,1.679,1.679,0,0,0,.791.991l.594,0,.01.5,1.863.3v.705Z" transform="translate(606.991 -46.158)" fill="#e59800"></path><path id="Path_231" data-name="Path 231" d="M-557.144,75.388v-.716l-1.892-.307-.01-.512h-.493a1.726,1.726,0,0,1-.913-1.006,5.2,5.2,0,0,1-3.429,1.212,5.2,5.2,0,0,1-3.428-1.212,1.726,1.726,0,0,1-.913,1.006h-.494l-.01.512-1.994.307v.716h-1.5c-.293,12.422,6.469,15.439,8.4,15.439s8.282-3.681,8.282-15.439Z" transform="translate(606.537 -46.818)" fill="#9c0016"></path><path id="Path_232" data-name="Path 232" d="M-618.819,47.316c.187-.211.391-.18.562-.432a26.458,26.458,0,0,0,2.678-4.579s-2.678-1.037-6.307,1.3-3.729,8.726-4.234,4.838c0,0,2.765-7.171,4.493-7.43s3.283,2.009,7.344-.075,4.925-2.43,3.8-2.776-3.283-2.289-7.43-.6c0,0-4.838,3.456-2.16.518s4.12-4.061,5.184-3.975,2.678,1.814,3.456,1.987,5.875-1.6,5.875-1.6a4.73,4.73,0,0,0-2.209-1.784l-.037.1.008-.111a5.194,5.194,0,0,0-2.341-.321c-3.2.26-1.814.605-3.024.951s-1.555-.235.259-1.046,3.888-1.891,3.888-1.891l1.3,1.21-.078,1.1.029.012.222-.592.518-.172.691.691.518-.173-.778-.518-.259-.475.345-.389,1.123.087-.6-.432-1.3.3-.864-.74a4.859,4.859,0,0,1,3.2-1.419,1.485,1.485,0,0,1,.518.907c.173.691.518.605.518.605l.259-.173-.518-.778a3.112,3.112,0,0,1,.951.345c.432.259.345-.345.345-.345l-1.037-.641s-.432-.223.691-.482,1.3-.074,1.3-.074l.432.506.472.26-.472-.906,1.124-.035,0-.485h-1.385l-.864.3-1.3.173-.518-.043.518-.993-1.123-.036.172,1.159s-3.283,1.339-3.542,1.469-.087-1.555-.087-1.555l.951-.475h-.864v-1.3h-.346l-.086,1.3-.864-.389,0,.283.515.537.173,1.6s-6.44,3.888-5.443,2.074,3.888-3.283,1.382-9.245c0,0-3.715,2.592-3.456,6.307s1.642,3.888.432,4.665-5.011,4.32-5.011,4.32-2.765,3.24-.864-.216c0,0,1.987-1.08,2.16-4.363a15.957,15.957,0,0,0-1.123-6.307s-4.061,4.32-3.715,8.078,2.16,3.844.691,6.264l-2.664,5.875s-.965,4.709-1.224,1.685c0,0,3.629-6.911-2.074-14.688,0,0-2.851,3.931-2.678,7.776a11.856,11.856,0,0,0,1.987,6.523c.518.821,3.023,2.765,2.764,5.573s.518,4.277.518,5.227,1.037,5.1-.432,1.555-.951-3.888-5.184-8.035l-5.7-3.456s-.864,8.553,6.134,12.354c0,0,6.653,2.938,7,5.746a21.278,21.278,0,0,0,1.382,3.24c.6.951,3.006,3.5,1.623,3.242-.876-.164-1.685-1.253-2.117-2.289s-4.6-5.964-11.559-7a7.58,7.58,0,0,0,2.376,7,11.159,11.159,0,0,0,9.677,3.456c3.024-.259,3.515.951,4.06,1.555a32.6,32.6,0,0,0,3.283,3.024c.518.3,3.888,2.246,1.555,2.074s-1.641-1.037-3.542-2.2-3.11-3.067-9.763-1.858c-2.206.4-3.326.612-3.857.71.562.991,5.367,6.592,10.6,6.2,5.788-.432,6.307-1.468,6.307-1.468l3.715-.26,7.343,5.421,3.8-.065s-8.812-5.659-9.59-5.875a2.728,2.728,0,0,1-1.555-4.233c1.534-2.678,3.629-7.646-1.124-13.046a7.91,7.91,0,0,0-.057-5.615,10.449,10.449,0,0,0-3.831,2.16c-1.123,1.3-4.147,3.2-4.319,7.171,0,0,.625,2.865-.076,3.844s-4.33-6.35-3.639-7.646a17.82,17.82,0,0,1,2.765-3.585c.259-.13,5.832-5.08,3.24-14m.648,25.228,1.123,1.321s1.641,3.258,2.333,3.56,1.525,1.9.777,2.074-2.327-1.123-2.764-1.339-3.975-4.363-3.975-4.363l2.506-1.253m-4.113-22.709c-2.446,2.634-3.383,7.906-2.885,10.311.518,2.505-.345,3.155-.345,3.155s-2.074-9.98-.346-11.708a10.233,10.233,0,0,1,3.576-1.758" transform="translate(638.681 -22.434)" fill="#e59800"></path><g id="Group_288" data-name="Group 288"><g id="Group_287" data-name="Group 287" clip-path="url(#clip-path)"><path id="Path_233" data-name="Path 233" d="M-622.025,112.646a4.341,4.341,0,0,1-1.992-3.975l-.216-.734-.173.374a19.283,19.283,0,0,0,.389,2.823h-.259l-2.419-1.685-.518-3.412-.389-.216.475,3.283-.432-.086-1.21-.907s-.734-2.506-1.123-3.586-.476-.216-.476-.216l.476,1.469s.734,2.16.389,2.16a8.829,8.829,0,0,1-2.333-1.469c-.216-.259-.087-1.037-.087-1.037s-.561-1.037-.345-1.382-.259-.6-.259-.6h-.216a4.491,4.491,0,0,1,.172.734,4.728,4.728,0,0,0,.216.82s.3,1.642-.518.562a6.854,6.854,0,0,1-1.3-2.419c0-.259-.346-.389-.346-.389s1.08,3.369,3.369,4.665l.139.079c-.054.013-.113.029-.182.051-.864.259-3.357-.951-3.357-.951s-.008-.561,0,.216,3.011,1.139,3.659,1.139c.37,0,.568-.005.672-.01,1.169.656,1.952,1.085,2.321,1.285l-.079,0c-1.407.935-5.246.389-5.246.389s-2.505-.648.3.178a9.223,9.223,0,0,0,5.486-.283l2.277,1.616-.03,0c-.82.907-5.443.821-5.443.821s-.184.321.579.321,2.076-.019,2.694-.019a5.764,5.764,0,0,0,2.431-.718,2.143,2.143,0,0,0,.182-.114l1.416,1,.432.346s-2.462.561-3.327.82.864.259.864.259a7.074,7.074,0,0,1,3.326-.561c1.253.3.225-.518,0-.648Z" transform="translate(636.682 -61.283)" fill="#633321"></path><path id="Path_234" data-name="Path 234" d="M-596.958,112.47s2.506,3.888,2.808,4.536a4.12,4.12,0,0,1,.605,1.944c0,.821.518,2.419.734,1.771a12.463,12.463,0,0,1,.6-2.289c.3-.389.735-1.756,1.21-1.756l1.3-1.181.013-.389a11.673,11.673,0,0,0-2.389,2.2c-.561.907-.3,1.339-.561,1.382s-.605-.749-.389-1.382,2.505-5.443,3.11-5.659.086-1.364-.173-.691-3.024,4.492-3.024,4.492-.6-3.888,1.21-6.307l.907-1.987-.259-.345a46.334,46.334,0,0,0-2.039,4.708,5.229,5.229,0,0,0-.683-2.333l-.345.346s.993,1.6.475,2.635c0,0-.3.3-.951-1.253l-.086-.345-.3.3a5.377,5.377,0,0,0,1.123,1.9l.259.086a23.925,23.925,0,0,0,0,3.11l.043.648s-.172.648-.432-.3a18.287,18.287,0,0,0-2.16-3.672.561.561,0,0,0-.6-.173Z" transform="translate(618.5 -63.246)" fill="#633321"></path><path id="Path_235" data-name="Path 235" d="M-602.907,105.57s-.778,1.253.043.691c0,0,.13-.7.778-.7s1.123-.465,1.555-.508a7.062,7.062,0,0,0,1.706-.778,9.8,9.8,0,0,0,.742-.947l.237-.259s.324-.259-.577.648a3.6,3.6,0,0,1-1.055.715,1.415,1.415,0,0,1-.579.146l-1.685.28.259-1.014s-.13-.555.735-.555a11.1,11.1,0,0,0,2.376-.46,1.578,1.578,0,0,0,1.469-.929c.345-.951,0,.173-.6.345s-1.685.345-1.685.345-2.117.562-1.642-.086,1.382-2.333,1.382-2.333,2.808.043,3.715-1.253l-.1.046v-.453a1.347,1.347,0,0,1-.677.666,8.841,8.841,0,0,1-1.21.518l-1.382.043,1.555-2.16s1.448-.778,1.631-1.166a4.461,4.461,0,0,1,.788-.95l.432-.432-.345-.013-.346-.019-.95,1.242s-.994.648-.087-.518.648-1.037.648-1.037l.346-1.209.043-.907-.529-.691a2.807,2.807,0,0,1,.183.994c0,.561.2.259-.183,1.253a8.829,8.829,0,0,1-.853,1.685s-.345-2.16,0-2.635-.6-.389-.518,1.426.13,1.641.13,1.641l-1.3,1.728a4,4,0,0,1-.5-3.283v-.561a1.915,1.915,0,0,0-.451,1.9c.3,1.253.451,2.2.451,2.2v.432l-.969,1.166a3.8,3.8,0,0,1-.82-3.586c.6-2.16-.043-.95-.216.043a4.911,4.911,0,0,0,.389,3.2c.518.691.476.475.3.907s-1.555,2.851-1.555,2.851l-.13-1.166s-.993-2.722-.648-3.154-.086-.951-.086-.951l-.568.605-.014.907a6.573,6.573,0,0,1,.453,1.209,12.006,12.006,0,0,1,.421,2.549,6.807,6.807,0,0,1-.291,1.771,2.063,2.063,0,0,1-.216.561Z" transform="translate(621.554 -56.022)" fill="#633321"></path><path id="Path_236" data-name="Path 236" d="M-628.439,87.1a7.341,7.341,0,0,1-.993-1.21l.259-4.19-.3-.735-.216,1.037-.3,2.765-1.468-1.382a16.308,16.308,0,0,0,.172-4.709c-.345-1.9-.259-1.3-.259.345s.13,4.709-.648,3.413l-1.166-1.382.216-4.277-.432-.216.043.735-.173,3.024a10.551,10.551,0,0,0-1.469-2.074s-.345-2.333-.518-3.2-.259-.086-.259-.086a14.15,14.15,0,0,1,.13,1.9c-.043.562-.043.648-.043.648s-3.24-3.024-2.981-4.363-.691-.562-.691-.562a29.672,29.672,0,0,0,1.927,3.716h-.026c-.614,0-1.924-1.555-1.924-1.555s-.322-.259.153.605a4.985,4.985,0,0,0,2.19,1.479,2.4,2.4,0,0,0,.2.206,24.929,24.929,0,0,1,2.247,2.3c-2.108.535-4.438-1.173-4.438-1.173l.281.389c1.27,1.43,3.848,1.2,4.395,1.137.193.342.831,1.413,1.432,2.376-1.068.572-4.444-.446-4.444-.446l.13.318a7.162,7.162,0,0,0,4.483.395,10.638,10.638,0,0,0,1,1.447,12.186,12.186,0,0,1,.861.908,16.1,16.1,0,0,1-4.055-.26s-.391.13.214.432a14.973,14.973,0,0,0,3.629.26.69.69,0,0,0,.468-.147c.971,1.089,2.211,2.524,2.211,2.524s.691.085.172-.39Z" transform="translate(639.16 -46.585)" fill="#633321"></path><path id="Path_237" data-name="Path 237" d="M-605.285,72.456l-.224-.241-1.382,1.21.915-2.567s-.083-.771-.462.4a19.46,19.46,0,0,1-.713,1.907l-1.029,2.25a14.152,14.152,0,0,0-.216-3.045c-.028-.1-.034.184-.13.065s-.138.061-.138.061l.087,3.435-.648,1.9s-1.512-2.074-.951-3.715l-.259-.13s-.451,2.91.864,4.233l-.173,1.123-.634,1.858-.058-.044A12.246,12.246,0,0,1-612.18,77.4l.019.216s.271,3.5,1.561,3.931c.066.022.122.039.176.055l-.009.09-.167.373a7.7,7.7,0,0,0-.308.864c-.057.262-.172.907-.172.907l-.26.95s-.473,1.642.453.3a9.207,9.207,0,0,0,.108-1.166c-.014-.363-.092-.518.363-.648a14.17,14.17,0,0,0,1.451-.6,5.684,5.684,0,0,1,1.728-.691,1.839,1.839,0,0,0,.95-.295l-.734-.016a4.556,4.556,0,0,0-1.833.57c-.888.518-1.925.975-1.583.2.087-.2.141-.6.228-.885s.259-.238.345-.5,0-.843.41-.951,4.333-1.921,4.377-2.315-.259,0-.259,0-3.931,2.637-3.758,1.514l.827-2.117a13.643,13.643,0,0,0,3.214-1.771l-.015-.515-.569.386a13.5,13.5,0,0,1-2.267,1.166c-.349,0,0-.562,0-.562l.755-1.728a9.054,9.054,0,0,1,1.368-1.141c.605-.5.5-.562.5-.562Z" transform="translate(625.863 -45.736)" fill="#633321"></path><path id="Path_238" data-name="Path 238" d="M-624.242,53.695l2.505-3.24-.043-.6-2.549,3.24-.151-2.376a4.725,4.725,0,0,0,1.9-3.283l-.279-.734a4.136,4.136,0,0,1-1.728,3.564l.13-5.854-.086-.388-.6.3.165,4.617c-1.029-.654-1.072-2.716-1.072-2.716s-.259.259-.173,1.166a3.976,3.976,0,0,0,1.259,1.917l.107,2.98c-.211.031-1.011.108-1.193-.491a6.378,6.378,0,0,0-1.21-1.685c-.173-.259-.416.6-.216.691s.389-.094.95.691,1.037,1.253,1.512,1.253a.4.4,0,0,0,.171-.032l.12,3.351a11.482,11.482,0,0,1-2.667-2.369c-.518-.931-.562.13-.562.13l1.615,1.339s1.462,1.167,1.624,1.206l.007.2.706,3.043s.259,1.577.734.626a8.8,8.8,0,0,0-.2-1.585c-.147-.423-.687-1.158,1.084-3.49l1.166-1.253.014-.734a27.446,27.446,0,0,0-2.519,3.672s-.562.13-.432-1.685l-.086-1.469Z" transform="translate(633.494 -32.874)" fill="#633321"></path><path id="Path_239" data-name="Path 239" d="M-612.644,68.147a.4.4,0,0,0,.551-.16,10.6,10.6,0,0,1,2.2-1.521c.561-.423,1.253-.015,1.641-.015a3.667,3.667,0,0,0,.951-.2l.44-.3-2.29-.065s-.281-.043.078-.345c.179-.15.85-1.016.85-1.016s3.167-.349,3.6-.435a2.824,2.824,0,0,0,.907-.432l-.734-.015s-1,.185-1.426.275-1.6.553-1.944.13,1.109-1.033,1.347-1.163a5.775,5.775,0,0,0,.712-.562l1.958-.133,1.037-.019v-.5l-.9.089-1.706.238a11.985,11.985,0,0,1,2.625-1.407c.672-.086,0-.3,0-.3l-1.016.432-.864.432s-.432-.7.345-.884-.561-.019-.561-.019-.423.705-.3,1.033c.073.2-.193.3-.193.3l-.671.3-.424.176s-.31-1.3.6-1.688-.389-.13-.389-.13a3.269,3.269,0,0,0-.432.778,8.19,8.19,0,0,0-.335,1.3,1.712,1.712,0,0,1-.227.6,4.422,4.422,0,0,0-1.037.907,2.7,2.7,0,0,1-.475.561,4.923,4.923,0,0,1,.475-2.764l.562-.907-.475.086a5.852,5.852,0,0,0-.951,1.944,10.705,10.705,0,0,0-.173,1.771l-.086.691-1.339,1.244-1.458,1.162s-.889.038-.476.518Z" transform="translate(626.14 -40.686)" fill="#633321"></path><path id="Path_240" data-name="Path 240" d="M-593.468,52.035l-.3-.365-1.037.019-1.869.125a.086.086,0,0,0,.011-.028,6.969,6.969,0,0,1,.95-1.133s.173-.173-.216-.173-1.094,1.127-1.094,1.127l-.121.239-1.823.064-.758.211c.286-.537,1.174-2.158,1.463-2.158.346,0-.3-.087-.3-.087s-1.26,1.823-1.6,2.391l-.214.071-2,.435.367-.929.857-1.58c-.574.229-1.45,2.214-1.645,2.669l-2.849.7c-.345.216.132.3.216.259a4.2,4.2,0,0,1,.734,0c.086,0,.777.043.777.043l.821.475,1.036.518.519.261.345-.076-.562-.271-.907-.518-1.037-.691,2.635-.571.864.528.667.345,1.191.432s1.037.086,1.123.086.173-.328.173-.328l-1.166-.018-1.124-.438-1.08-.685s.785-.285.883-.324l.529-.212,2.088,1.055.821.148-2.649-1.419.583-.108,3.88-.133.82.043Z" transform="translate(622.764 -35.707)" fill="#633321"></path><path id="Path_241" data-name="Path 241" d="M-611.644,35.727s.562,2.764,1.685,3.8l-.13,1.6s-.263.432.15.346a.509.509,0,0,0,.455-.519c0-.13.019-1.123.019-1.123l.413-1.08s1.944-.908,2.333-1.815.518-.993.518-.993l.011-.323s-.95,2.31-2.424,2.44c0,0-.513.043,0-1.123l.427-1.814.3-.346.951-1.641.345-.3-.345-.345-.13.259-.778,1.382s-.432.3-.216-.432a6.122,6.122,0,0,0,.216-1.512l.3-2.2-.432-.6-.086,1.857v1.21s-.389.086-.346-.864-.389-.951-.389-.951l.043,1.253s-.086.778.389.994l-.13,1.382s-.259,1.168-.259,1.362.043,1.165-.345.582a6.155,6.155,0,0,1-.864-2.289,4.733,4.733,0,0,0-.26-1.21,3.367,3.367,0,0,0,.043,1.3,12.61,12.61,0,0,0,.734,2.333c.259.3.389.389.389.6a3.934,3.934,0,0,1-.13.691l-.129.735s0,.648-.432.734-1.771-2.678-1.771-3.283-.148-.194-.13-.086Z" transform="translate(625.604 -25.792)" fill="#633321"></path><path id="Path_242" data-name="Path 242" d="M-595.494,25.5s.173,3.24,1.3,3.542l-.13,1.728s-.086.778.345.13a2.085,2.085,0,0,0,.432-.993l.019-1.123a4.962,4.962,0,0,0,2.357-1.858l.172-.3.017-.389-.182-.018s-.68,1.789-2.072,1.876l.25-2.117a5.37,5.37,0,0,0,1.641-2.333l.043-.475s-.518,1.426-1.383,1.814l.432-2.376.216-.778-.129-.734-.389,1.426-.13.475-.345-.864-.345.13.3.648a6.339,6.339,0,0,1,.173.734,22.334,22.334,0,0,1-.336,2.376s-.787.259-.83-1.6l-.13-1.037a3.321,3.321,0,0,0-.13,1.253c.087.562.345,1.6.6,1.728s.3.173.26.475a6.709,6.709,0,0,1-.346,1.555c-.173.3-.648.613-1.037-.687s-.648-2.207-.648-2.207Z" transform="translate(617.792 -21.786)" fill="#633321"></path><path id="Path_243" data-name="Path 243" d="M-587.719,43.069H-589s-.475-.365-.864-.172-.362.561.562.6,1.092-.019,1.368.262a3.272,3.272,0,0,1,.489,1.077l.476.389.3-.13-.6-.6-.186-.947.648.043,1.08.108-.157.45.863-.346.6-.259.475-.216-.259-.216-1.08.173-1.987-.216a4.489,4.489,0,0,1,2.247-1.426c1.209-.194.345-.194.345-.194l-.648-.019a6.852,6.852,0,0,0-2.4,1.638Z" transform="translate(615.181 -31.623)" fill="#633321"></path><path id="Path_244" data-name="Path 244" d="M-611.108,132.793l-.751-.3,0,0-.937-1.037-.343-1.221-.909-.887-.475-.226.648.907a1.694,1.694,0,0,1,.608,1,1.905,1.905,0,0,0,.515.923c.2.161.46.386.61.519a2.805,2.805,0,0,1-1.388-.152c-.243-.133-.566-.283-.843-.4l-.583-.5-1.3-2.1-.3-.54-.259-.648-.648-.345,2.333,3.888.028.009-.6.034-1.817-.253-.39-.042-2.5-3.679-.648-.3,2.592,3.91.088.022-.59-.064-1.486-.134a8.759,8.759,0,0,0-1.9-.5c-.221-.124-.966-.429-1.261-.548a2.284,2.284,0,0,0-.685-1.172l-.387-.532-.3.014s1.253,1.209,1.08,1.6l.027.015a6.664,6.664,0,0,1-3.838-2.176,7.639,7.639,0,0,1,.787,1.205c.345.676,2.851,1.161,2.851,1.161a4.443,4.443,0,0,0,.57.289,8.528,8.528,0,0,1-2.6-.019s.172.524.432.524h.646c.6,0,.952.276,1.73,0a2.3,2.3,0,0,1,.881-.119,11.441,11.441,0,0,1,1.84.551c0,.092.514.164.934.207l-.631.392a3.047,3.047,0,0,1-1.642.648c-.734,0-2.019.019-2.019.019l.354.413,1.511.012a16.129,16.129,0,0,0,2.5-1.049l.428-.391.034,0,2.635.318.455.168c-.291.419-1.4,1.68-4.516,2.323l-1.685.3,1.814.129.259-.259s3.542-.74,4.406-2.379V132.3l.036.013.395.115.82.171.605.063.143.047-1.871,1.767-.734.605-.389.6.648-.216s.047-.648.153-.648,2.05-1.322,2.05-1.322l.679-.613.271.089,1.1.193.455.331s.306-.233.306-.331.259-.359.259-.359l-.3-.018Zm-16.631-4.967.034.042-.034-.042Zm7,3.175a6.091,6.091,0,0,0-2.16-2.949l-.456-.032s2.508,2.246,1.989,2.808l.626.173Z" transform="translate(633.388 -73.222)" fill="#633321"></path></g></g><path id="Path_246" data-name="Path 246" d="M-618.819,47.316c.187-.211.391-.18.562-.432a26.458,26.458,0,0,0,2.678-4.579s-2.678-1.037-6.307,1.3-3.729,8.726-4.234,4.838c0,0,2.765-7.171,4.493-7.43s3.283,2.009,7.344-.075,4.925-2.43,3.8-2.776-3.283-2.289-7.43-.6c0,0-4.838,3.456-2.16.518s4.12-4.061,5.184-3.975,2.678,1.814,3.456,1.987,5.875-1.6,5.875-1.6a4.73,4.73,0,0,0-2.209-1.784l-.037.1.008-.111a5.194,5.194,0,0,0-2.341-.321c-3.2.26-1.814.605-3.024.951s-1.555-.235.259-1.046,3.888-1.891,3.888-1.891l1.3,1.21-.078,1.1.029.012.222-.592.518-.172.691.691.518-.173-.778-.518-.259-.475.345-.389,1.123.087-.6-.432-1.3.3-.864-.74a4.859,4.859,0,0,1,3.2-1.419,1.485,1.485,0,0,1,.518.907c.173.691.518.605.518.605l.259-.173-.518-.778a3.112,3.112,0,0,1,.951.345c.432.259.345-.345.345-.345l-1.037-.641s-.432-.223.691-.482,1.3-.074,1.3-.074l.432.506.472.26-.472-.906,1.124-.035,0-.485h-1.385l-.864.3-1.3.173-.518-.043.518-.993-1.123-.036.172,1.159s-3.283,1.339-3.542,1.469-.087-1.555-.087-1.555l.951-.475h-.864v-1.3h-.346l-.086,1.3-.864-.389,0,.283.515.537.173,1.6s-6.44,3.888-5.443,2.074,3.888-3.283,1.382-9.245c0,0-3.715,2.592-3.456,6.307s1.642,3.888.432,4.665-5.011,4.32-5.011,4.32-2.765,3.24-.864-.216c0,0,1.987-1.08,2.16-4.363a15.957,15.957,0,0,0-1.123-6.307s-4.061,4.32-3.715,8.078,2.16,3.844.691,6.264l-2.664,5.875s-.965,4.709-1.224,1.685c0,0,3.629-6.911-2.074-14.688,0,0-2.851,3.931-2.678,7.776a11.856,11.856,0,0,0,1.987,6.523c.518.821,3.023,2.765,2.764,5.573s.518,4.277.518,5.227,1.037,5.1-.432,1.555-.951-3.888-5.184-8.035l-5.7-3.456s-.864,8.553,6.134,12.354c0,0,6.653,2.938,7,5.746a21.278,21.278,0,0,0,1.382,3.24c.6.951,3.006,3.5,1.623,3.242-.876-.164-1.685-1.253-2.117-2.289s-4.6-5.964-11.559-7a7.58,7.58,0,0,0,2.376,7,11.159,11.159,0,0,0,9.677,3.456c3.024-.259,3.515.951,4.06,1.555a32.6,32.6,0,0,0,3.283,3.024c.518.3,3.888,2.246,1.555,2.074s-1.641-1.037-3.542-2.2-3.11-3.067-9.763-1.858c-2.206.4-3.326.612-3.857.71.562.991,5.367,6.592,10.6,6.2,5.788-.432,6.307-1.468,6.307-1.468l3.715-.26,7.343,5.421,3.8-.065s-8.812-5.659-9.59-5.875a2.728,2.728,0,0,1-1.555-4.233c1.534-2.678,3.629-7.646-1.124-13.046a7.91,7.91,0,0,0-.057-5.615,10.449,10.449,0,0,0-3.831,2.16c-1.123,1.3-4.147,3.2-4.319,7.171,0,0,.625,2.865-.076,3.844s-4.33-6.35-3.639-7.646a17.82,17.82,0,0,1,2.765-3.585c.259-.13,5.832-5.08,3.24-14m.648,25.228,1.123,1.321s1.641,3.258,2.333,3.56,1.525,1.9.777,2.074-2.327-1.123-2.764-1.339-3.975-4.363-3.975-4.363l2.506-1.253m-4.113-22.709c-2.446,2.634-3.383,7.906-2.885,10.311.518,2.505-.345,3.155-.345,3.155s-2.074-9.98-.346-11.708a10.233,10.233,0,0,1,3.576-1.758" transform="translate(638.681 -22.434)" fill="none" stroke="#633321" stroke-width="0.1"></path><path id="Path_247" data-name="Path 247" d="M-576.647,38.377l.345-.164a1.094,1.094,0,0,0,.4-.113c.164-.1.735-.466,1.192-.138,0,0,.182.155.294-.1s.1.466.087.63.114.449.006.493-.075.033-.108.13.011.2-.1.259-.119.054-.13.195-.054.043-.216,0-.345-.033-.345-.151-.125-.119-.194-.162a1.83,1.83,0,0,0-.238-.13c-.1-.043-.237.086-.237-.1s-.172-.065-.172-.216-.249-.173-.324-.173-.173-.173-.173-.173l-.108-.043" transform="translate(608.686 -29.868)" fill="#9c0016"></path><path id="Path_248" data-name="Path 248" d="M-576.647,38.377l.345-.164a1.094,1.094,0,0,0,.4-.113c.164-.1.735-.466,1.192-.138,0,0,.182.155.294-.1s.1.466.087.63.114.449.006.493-.075.033-.108.13.011.2-.1.259-.119.054-.13.195-.054.043-.216,0-.345-.033-.345-.151-.125-.119-.194-.162a1.83,1.83,0,0,0-.238-.13c-.1-.043-.237.086-.237-.1s-.172-.065-.172-.216-.249-.173-.324-.173-.173-.173-.173-.173l-.108-.043" transform="translate(608.686 -29.868)" fill="none" stroke="#633321" stroke-width="0.221"></path><path id="Path_249" data-name="Path 249" d="M-566.858,34.078l.377-.01a1.11,1.11,0,0,0,.384.173c.19.033.879.117,1.021.673,0,0,.04.24.3.112s-.231.426-.345.549-.2.425-.318.388-.081-.024-.169.031-.126.167-.245.138-.128-.036-.229.067-.07,0-.168-.141-.249-.252-.171-.344-.02-.175-.045-.254a1.962,1.962,0,0,0-.1-.257c-.047-.1-.242-.088-.122-.231s-.092-.164.007-.282-.081-.3-.14-.347-.022-.248-.022-.248l.028-.034" transform="translate(603.941 -28.057)" fill="#9c0016"></path><path id="Path_250" data-name="Path 250" d="M-566.858,34.078l.377-.01a1.11,1.11,0,0,0,.384.173c.19.033.879.117,1.021.673,0,0,.04.24.3.112s-.231.426-.345.549-.2.425-.318.388-.081-.024-.169.031-.126.167-.245.138-.128-.036-.229.067-.07,0-.168-.141-.249-.252-.171-.344-.02-.175-.045-.254a1.962,1.962,0,0,0-.1-.257c-.047-.1-.242-.088-.122-.231s-.092-.164.007-.282-.081-.3-.14-.347-.022-.248-.022-.248l.028-.034" transform="translate(603.941 -28.057)" fill="none" stroke="#633321" stroke-width="0.221"></path><path id="Path_251" data-name="Path 251" d="M-570.232,35.433l.373-.012a1.065,1.065,0,0,0,.4.054c.184-.021.837-.131,1.119.34,0,0,.1.21.3.022s-.1.454-.168.6-.072.446-.186.442-.08,0-.147.074-.07.187-.187.194-.127,0-.192.123-.065.018-.193-.084-.3-.163-.25-.269-.066-.155-.111-.22a1.786,1.786,0,0,0-.162-.208c-.07-.076-.246-.015-.175-.179s-.13-.125-.071-.26-.155-.251-.222-.28-.087-.221-.087-.221l-.091-.147" transform="translate(605.596 -28.704)" fill="#9c0016"></path><path id="Path_252" data-name="Path 252" d="M-570.232,35.433l.373-.012a1.065,1.065,0,0,0,.4.054c.184-.021.837-.131,1.119.34,0,0,.1.21.3.022s-.1.454-.168.6-.072.446-.186.442-.08,0-.147.074-.07.187-.187.194-.127,0-.192.123-.065.018-.193-.084-.3-.163-.25-.269-.066-.155-.111-.22a1.786,1.786,0,0,0-.162-.208c-.07-.076-.246-.015-.175-.179s-.13-.125-.071-.26-.155-.251-.222-.28-.087-.221-.087-.221l-.091-.147" transform="translate(605.596 -28.704)" fill="none" stroke="#633321" stroke-width="0.221"></path><path id="Path_253" data-name="Path 253" d="M-571.884,36.84l.361-.014a1.063,1.063,0,0,0,.367.165c.182.031.84.112.976.643,0,0,.038.23.284.107s-.221.408-.331.525-.2.407-.3.372-.076-.023-.162.029-.12.16-.235.132-.122-.034-.218.064-.068,0-.161-.135-.238-.241-.164-.329-.019-.167-.043-.243a1.773,1.773,0,0,0-.1-.245c-.045-.093-.232-.085-.117-.222s-.088-.156.006-.27-.077-.284-.133-.332-.021-.237-.021-.237l.027-.033" transform="translate(606.372 -29.391)" fill="#9c0016"></path><path id="Path_254" data-name="Path 254" d="M-571.884,36.84l.361-.014a1.063,1.063,0,0,0,.367.165c.182.031.84.112.976.643,0,0,.038.23.284.107s-.221.408-.331.525-.2.407-.3.372-.076-.023-.162.029-.12.16-.235.132-.122-.034-.218.064-.068,0-.161-.135-.238-.241-.164-.329-.019-.167-.043-.243a1.773,1.773,0,0,0-.1-.245c-.045-.093-.232-.085-.117-.222s-.088-.156.006-.27-.077-.284-.133-.332-.021-.237-.021-.237l.027-.033" transform="translate(606.372 -29.391)" fill="none" stroke="#633321" stroke-width="0.221"></path><path id="Path_255" data-name="Path 255" d="M-567.583,30.284l-.139-.3a1.17,1.17,0,0,0,.04-.441c-.032-.2-.185-.914.32-1.246,0,0,.225-.122.009-.334s.5.084.665.155.494.058.5.183,0,.088.088.158.21.068.222.2.008.139.145.2.023.07-.083.216-.165.334-.284.288-.167.079-.237.132a1.964,1.964,0,0,0-.221.188c-.081.081,0,.271-.188.2s-.131.148-.282.09-.268.182-.3.258-.239.106-.239.106l-.043-.017" transform="translate(604.362 -25.072)" fill="#9c0016"></path><path id="Path_256" data-name="Path 256" d="M-567.583,30.284l-.139-.3a1.17,1.17,0,0,0,.04-.441c-.032-.2-.185-.914.32-1.246,0,0,.225-.122.009-.334s.5.084.665.155.494.058.5.183,0,.088.088.158.21.068.222.2.008.139.145.2.023.07-.083.216-.165.334-.284.288-.167.079-.237.132a1.964,1.964,0,0,0-.221.188c-.081.081,0,.271-.188.2s-.131.148-.282.09-.268.182-.3.258-.239.106-.239.106l-.043-.017" transform="translate(604.362 -25.072)" fill="none" stroke="#633321" stroke-linecap="round" stroke-width="0.221"></path><path id="Path_257" data-name="Path 257" d="M-574.07,29.972l-.3-.244a1.315,1.315,0,0,0-.255-.428c-.162-.162-.773-.711-.534-1.348,0,0,.125-.26-.213-.31s.514-.257.708-.3.488-.274.573-.162.061.078.185.086.236-.077.333.032.1.122.267.091.068.049.068.251.07.413-.068.45-.1.183-.129.277a2.228,2.228,0,0,0-.076.318c-.02.127.174.25-.039.308s-.022.221-.2.269-.124.343-.1.432-.147.256-.147.256l-.051.013" transform="translate(608.096 -24.717)" fill="#9c0016"></path><path id="Path_258" data-name="Path 258" d="M-574.07,29.972l-.3-.244a1.315,1.315,0,0,0-.255-.428c-.162-.162-.773-.711-.534-1.348,0,0,.125-.26-.213-.31s.514-.257.708-.3.488-.274.573-.162.061.078.185.086.236-.077.333.032.1.122.267.091.068.049.068.251.07.413-.068.45-.1.183-.129.277a2.228,2.228,0,0,0-.076.318c-.02.127.174.25-.039.308s-.022.221-.2.269-.124.343-.1.432-.147.256-.147.256l-.051.013" transform="translate(608.096 -24.717)" fill="none" stroke="#633321" stroke-linecap="round" stroke-width="0.221"></path><path id="Path_259" data-name="Path 259" d="M-572.346,30.017l-.031-.3a1.17,1.17,0,0,0,.04-.441c-.032-.2-.185-.914.32-1.246,0,0,.225-.122.009-.334s.5.084.664.156.494.058.5.183,0,.088.088.158.21.068.222.2.008.139.145.2.023.07-.083.216-.165.334-.284.288-.167.08-.237.133a1.911,1.911,0,0,0-.221.188c-.081.081,0,.271-.188.2s-.131.148-.282.09-.268.182-.3.258-.24.106-.24.106l-.043-.017" transform="translate(606.614 -24.942)" fill="#9c0016"></path><path id="Path_260" data-name="Path 260" d="M-572.346,30.017l-.031-.3a1.17,1.17,0,0,0,.04-.441c-.032-.2-.185-.914.32-1.246,0,0,.225-.122.009-.334s.5.084.664.156.494.058.5.183,0,.088.088.158.21.068.222.2.008.139.145.2.023.07-.083.216-.165.334-.284.288-.167.08-.237.133a1.911,1.911,0,0,0-.221.188c-.081.081,0,.271-.188.2s-.131.148-.282.09-.268.182-.3.258-.24.106-.24.106l-.043-.017" transform="translate(606.614 -24.942)" fill="none" stroke="#633321" stroke-linecap="round" stroke-width="0.221"></path><path id="Path_261" data-name="Path 261" d="M-581,28.838l-.182-.336a1.089,1.089,0,0,0-.133-.391c-.1-.159-.5-.709-.2-1.183,0,0,.146-.189-.119-.288s.461-.119.625-.119.443-.138.491-.033.037.074.135.1.2-.022.264.084.06.116.2.119.045.052.011.215-.014.347-.133.353-.112.131-.152.2a1.839,1.839,0,0,0-.117.244c-.038.1.1.233-.085.243s-.056.176-.206.184-.16.257-.156.333-.163.182-.163.182l-.043.11" transform="translate(611.114 -24.376)" fill="#9c0016"></path><path id="Path_262" data-name="Path 262" d="M-581,28.838l-.182-.336a1.089,1.089,0,0,0-.133-.391c-.1-.159-.5-.709-.2-1.183,0,0,.146-.189-.119-.288s.461-.119.625-.119.443-.138.491-.033.037.074.135.1.2-.022.264.084.06.116.2.119.045.052.011.215-.014.347-.133.353-.112.131-.152.2a1.839,1.839,0,0,0-.117.244c-.038.1.1.233-.085.243s-.056.176-.206.184-.16.257-.156.333-.163.182-.163.182l-.043.11" transform="translate(611.114 -24.376)" fill="none" stroke="#633321" stroke-linecap="round" stroke-width="0.221"></path><path id="Path_263" data-name="Path 263" d="M-578.985,30.636l.024-.382a1.087,1.087,0,0,0,.094-.4c0-.189-.052-.868.457-1.11,0,0,.224-.084.052-.308s.454.144.594.23.448.118.434.233-.008.082.061.157.185.09.18.211-.01.13.107.208.011.068-.1.188-.2.287-.3.229-.164.052-.236.091a1.835,1.835,0,0,0-.228.145c-.085.064-.04.249-.2.161s-.14.12-.273.046-.272.133-.308.2-.235.068-.235.068l-.086-.014" transform="translate(609.807 -25.302)" fill="#9c0016"></path><path id="Path_264" data-name="Path 264" d="M-578.985,30.636l.024-.382a1.087,1.087,0,0,0,.094-.4c0-.189-.052-.868.457-1.11,0,0,.224-.084.052-.308s.454.144.594.23.448.118.434.233-.008.082.061.157.185.09.18.211-.01.13.107.208.011.068-.1.188-.2.287-.3.229-.164.052-.236.091a1.835,1.835,0,0,0-.228.145c-.085.064-.04.249-.2.161s-.14.12-.273.046-.272.133-.308.2-.235.068-.235.068l-.086-.014" transform="translate(609.807 -25.302)" fill="none" stroke="#633321" stroke-width="0.221"></path><path id="Path_265" data-name="Path 265" d="M-583.657,30.34l.069-.376a1.085,1.085,0,0,1,.006-.413c.049-.183.261-.83-.175-1.188,0,0-.2-.135.024-.31s-.476.029-.632.08-.463.006-.477.121-.012.082-.1.138-.2.043-.226.161-.021.129-.154.176-.028.064.056.209.121.325.235.295.147.09.207.146a1.9,1.9,0,0,1,.186.2c.067.083-.022.252.155.2s.107.15.254.111.231.2.25.268.212.122.212.122l.042-.011" transform="translate(612.901 -25.118)" fill="#9c0016"></path><path id="Path_266" data-name="Path 266" d="M-583.657,30.34l.069-.376a1.085,1.085,0,0,1,.006-.413c.049-.183.261-.83-.175-1.188,0,0-.2-.135.024-.31s-.476.029-.632.08-.463.006-.477.121-.012.082-.1.138-.2.043-.226.161-.021.129-.154.176-.028.064.056.209.121.325.235.295.147.09.207.146a1.9,1.9,0,0,1,.186.2c.067.083-.022.252.155.2s.107.15.254.111.231.2.25.268.212.122.212.122l.042-.011" transform="translate(612.901 -25.118)" fill="none" stroke="#633321" stroke-linecap="round" stroke-width="0.221"></path><path id="Path_267" data-name="Path 267" d="M-564.58,32.067l.191-.224a1.067,1.067,0,0,0,.358-.184c.138-.123.61-.588,1.111-.363,0,0,.2.113.261-.156s.181.427.2.585.2.407.1.469-.066.046-.078.145.05.194-.042.266-.1.074-.086.211-.043.052-.206.042-.336.036-.359-.077-.143-.089-.217-.117a1.753,1.753,0,0,0-.252-.077c-.1-.022-.21.129-.246-.047s-.178-.028-.207-.172-.271-.117-.343-.1-.2-.131-.2-.131l-.009-.041" transform="translate(602.847 -26.615)" fill="#9c0016"></path><path id="Path_268" data-name="Path 268" d="M-564.58,32.067l.191-.224a1.067,1.067,0,0,0,.358-.184c.138-.123.61-.588,1.111-.363,0,0,.2.113.261-.156s.181.427.2.585.2.407.1.469-.066.046-.078.145.05.194-.042.266-.1.074-.086.211-.043.052-.206.042-.336.036-.359-.077-.143-.089-.217-.117a1.753,1.753,0,0,0-.252-.077c-.1-.022-.21.129-.246-.047s-.178-.028-.207-.172-.271-.117-.343-.1-.2-.131-.2-.131l-.009-.041" transform="translate(602.847 -26.615)" fill="none" stroke="#633321" stroke-linecap="round" stroke-width="0.221"></path><path id="Path_269" data-name="Path 269" d="M-564.69,31.009l.124-.291a1.061,1.061,0,0,0,.3-.268c.1-.153.444-.722.985-.63,0,0,.226.059.213-.216s.282.368.345.515.292.344.216.429-.052.061-.039.16.1.175.025.268-.081.1-.03.226-.029.061-.189.092-.316.119-.368.015-.16-.051-.239-.059a1.861,1.861,0,0,0-.263-.012c-.1,0-.171.177-.25.017s-.179.017-.244-.116-.291-.045-.357-.013-.225-.077-.225-.077l-.019-.038" transform="translate(602.899 -25.869)" fill="#9c0016"></path><path id="Path_270" data-name="Path 270" d="M-564.69,31.009l.124-.291a1.061,1.061,0,0,0,.3-.268c.1-.153.444-.722.985-.63,0,0,.226.059.213-.216s.282.368.345.515.292.344.216.429-.052.061-.039.16.1.175.025.268-.081.1-.03.226-.029.061-.189.092-.316.119-.368.015-.16-.051-.239-.059a1.861,1.861,0,0,0-.263-.012c-.1,0-.171.177-.25.017s-.179.017-.244-.116-.291-.045-.357-.013-.225-.077-.225-.077l-.019-.038" transform="translate(602.899 -25.869)" fill="none" stroke="#633321" stroke-linecap="round" stroke-linejoin="round" stroke-width="0.221"></path><path id="Path_271" data-name="Path 271" d="M-560.705,71.327" transform="translate(600.965 -46.083)" fill="none" stroke="#161615" stroke-width="0.295"></path><path id="Path_272" data-name="Path 272" d="M-510.764,49.5l-1.026-1.458a2.652,2.652,0,0,0-1.458-1.89c-2.052-1.242-4.428.972-4.428.972-3.564-.432-4.374,2.916-5.022,2.376s.324-2,.324-2l2.16-2.538a5.466,5.466,0,0,0,.81-3.672,4.362,4.362,0,0,0-.3-2.538l-.076-1.188a4.385,4.385,0,0,0-1.512-2.538,3.08,3.08,0,0,0-1.351-2.16,10.452,10.452,0,0,0-1.079-1.134c-.324-.324.054-.378.054-.378-1.025-.054-1.458,2.376-1.458,2.916s-.108,1.62-.7,2-.108,1.835-.108,1.835l.108,1.512a1.89,1.89,0,0,0,.81,2,3.778,3.778,0,0,0,1.512,2.916c.486.648.864,3.024.054,3.24-.563.15-1.088-.966-1.093-.936l.013.018s.309.319.311.306a13.361,13.361,0,0,1-1.823-3.221,15.214,15.214,0,0,0-2.375-3.672s.216-1.89.324-2.16a10.986,10.986,0,0,0,.54-2.538c.108-1.188-.216-.972-.27-2.16a5.069,5.069,0,0,0-1.188-2.484,5.736,5.736,0,0,1-1.35-1.242c-.378-.594-.864-.324-1.458-.918a2.871,2.871,0,0,0-1.361-.734l-1.037-.518.345.951.173,1.123a7.964,7.964,0,0,0,.173,2.246c.259.778.346,1.123.346,1.123-.346.086.864,1.9,1.037,2.938s-.259.518-.259.518-5.1-3.758-5.011-4.06a2.8,2.8,0,0,0-.259-1.382,2.929,2.929,0,0,1-.864-2.16c-.172-1.814-.864-1.3-1.728-2.2a4.2,4.2,0,0,0-2.246-1.08,8.621,8.621,0,0,0-3.629-.6c.173,1.771,1.3,1.814,1.3,2.765a2.014,2.014,0,0,0,.778,1.512s1.383.562.518.821-.172.259-.172.259c1.123.648.432.864-.087.778s-.756-.778-.756-.778c-.324-1.944-1.944-1.372-1.944-1.372-.972-1.048-2.592.076-2.592.076a2.915,2.915,0,0,0-1.944,1.188c-3.456,2.484-1.4,2.916-1.4,2.916l3.132-.216,2.268-.432c2.376.216,2.7-1.44,2.7-1.44,1.08,1.368,1.728.076,1.728.076l.648.068,3.888,1.944,1.619.971a9.646,9.646,0,0,1,1.446.715c4.626,4.455.054.054.054.054l-1.5-.769a8.153,8.153,0,0,0-1.834-.052c-2.464-.809-2.808.269-2.808.269-2.16-.68-1.3.648-3.132.756s.109,1.08.648,1.512,1.188.864,1.188.864c0,.972,1.728,1.3,1.728,1.3.432,1.62,3.348,1.62,3.672,1.4s2.916.108,3.671-.108,1.512-.864,2.268-.756a5.294,5.294,0,0,1,1.944,1.32l1.08,1.164s1.512,2.052.972,2.268-2.052-1.836-2.052-1.836c-3.132-2.808-4.752-.864-4.752-.864-2.376-.432-3.024,2.7-3.024,2.7l-1.512,1.652c-1.08,2.192,3.023,2.236,3.023,2.236,1.4.972,2.052.324,3.024.324a3.875,3.875,0,0,0,2.052-.972s1.4-.864,2.052-1.188a7.3,7.3,0,0,1,2.268-.324l.756,1.188.216.864s2.375,5.724,1.512,5.724-1.512-.648-1.62-2.268-1.944-1.3-1.944-1.3l-1.512-1.149h-1.836s1.3,6.181,1.836,6.765,2.592-.508,2.592-.508l1.188.076c1.728,0,.432,0,1.588,1.155s-.076,1.869-.076,2.732-.864,5.832-.864,5.832c-1.08,1.4-.432-.388-1.836-3.564s-2.052-2.16-4.1-3.191-2.485.059-2.485.059-1.62,1.3-2.7.972-2.268.972-2.268.972l.738,1.477.125.251a9.059,9.059,0,0,0-.324,3.888c-1.728,2.268-.54,3.132-.54,3.132l-.108.864a4.043,4.043,0,0,0,2.052,4.428s.324,1.728,1.188,2.268,1.512,2.268,1.188,2.916-15.767,9.4-15.767,9.4l.324.756h4V88.6c0-.39,7.829-5.13,7.829-5.13,1.026-.594,2.97.756,2.97.756l1.242,1.242a6.328,6.328,0,0,0,5.022.378c2.268.216,2.592-.648,2.754-.918s.972-.594.972-.594c2.16-.324,2.268-1.782,2.322-2.16s1.3-.918,1.3-.918c2-1.134,2.375-4,2.375-4,.054-.918-.216-.432-.216-.432l-3.618.81c-.81-.378-2.376.27-2.376.27l-.432-.054c-1.566-.486-3.456.864-3.456.864s-1.512.378-2.16.594a2.268,2.268,0,0,0-1.08,1.944c0,.648-.918,1.026-2.052,1.242a1.478,1.478,0,0,1-1.566-.432l3.942-2.916,2.052-1.836a23.956,23.956,0,0,0,1.782-2.268,5.672,5.672,0,0,1,2.484-1.836,4.232,4.232,0,0,1,3.078-.378,3.105,3.105,0,0,0,2.754-.918,5.959,5.959,0,0,1,1.512-.81l.972-.54c.432-.162,1.188-1.835,1.674-2.268s1.026-1.08,1.026-1.458a4.646,4.646,0,0,1,.864-2.385c.54-.5.378-1.287-.108-2.636s-1.458-1.242-2.322-1.08-2.106.81-3.671.27-2.754,1.026-2.754,1.026c-.972,1.35-1.188,1.242-1.188,1.242a28.323,28.323,0,0,1,.54-3.024,3.107,3.107,0,0,1,2.052-1.35,8.461,8.461,0,0,0,2.268-1.35c2.052-.864,2.106-3.726,2.43-4.374a5.749,5.749,0,0,0,.432-2.322,7.77,7.77,0,0,0-.486-2.43s-.162-.108.864-.108a4.5,4.5,0,0,1,1.728.324,9.914,9.914,0,0,0,1.512,1.026.533.533,0,0,0,.648-.162Zm-14.255,18.791-2.052,4.32a16.3,16.3,0,0,1-4.531,5.4c-.006.021-.009.025-.005,0l.005,0c.077-.249.8-3.236.8-3.236l.918-1.512c.756-.648,0-3.186,0-3.186-.162-1.458-.648-1.782-.648-1.782a14.693,14.693,0,0,0-.7-2.268l1.242-.189,1.4.189,1.458.108,1.134-.216.648.486c.81.486.324,1.89.324,1.89Zm-13.089-36.416-.173.172-.734-.389h.562l.345.216ZM-531.3,38.3a3.191,3.191,0,0,1-1.2-.094l-.423-1.384s1.563,1.508,1.62,1.478Z" transform="translate(597.264 -23.636)" fill="#e59800"></path><g id="Group_290" data-name="Group 290" transform="translate(44.21 1.283)"><g id="Group_289" data-name="Group 289" clip-path="url(#clip-path-2)"><path id="Path_273" data-name="Path 273" d="M-514.037,131.778s2.506,0,3.067-.907,1.08-3.629,1.6-3.888a1.693,1.693,0,0,0,.735-.821l.691-.007a3.013,3.013,0,0,1-.518.525c-.475.432-1.209,1.256-1.209,1.771a5.487,5.487,0,0,1-.735,1.9,6.042,6.042,0,0,0-.389.778,13.09,13.09,0,0,0,2.333-.648c.548-.3,1.469-2.506,1.469-2.506a8.3,8.3,0,0,1,1.382-1.555.707.707,0,0,0,.389-.562s-.043.605-.259.735a2.541,2.541,0,0,0-.518.6l-.432.778-.475.851-.6,1.266,1.987-.562s1.037-2.549,1.556-2.851a5.034,5.034,0,0,0,.993-.822l.172-.344.216.173-.562.561-.734.691-.994,2.2.735-.3,1.037-.475.389-.086.3-.951a4.714,4.714,0,0,0,1.037-1.844c.129-.834.3-.4.3-.4l-.173.821-.95,1.9a7.146,7.146,0,0,0,1.382-.778,5.933,5.933,0,0,0,1.641-2.376,1.973,1.973,0,0,1-.691,1.685,28.337,28.337,0,0,1-2.506,2.074s-.3.345.3.216a12.038,12.038,0,0,1,1.555-.173l.734-.23-.3.532-3.154.345-.605.087-2.289,1.037.993.518a4.414,4.414,0,0,0,2.16-.043c.82-.345.864-.216.864-.216a8.579,8.579,0,0,1-1.555.648,1.8,1.8,0,0,1-1.512-.13c-.389-.13-1.177-.432-1.409-.476a20.512,20.512,0,0,0-2.393.605s-1.21.124-.432.667a7.775,7.775,0,0,0,4.45.888l.345.053-1.382.207a11.116,11.116,0,0,1-4.45-1.166s-.345-.259-1.037.043c0,0-.95.173-.389.562,0,0,3.11,1.728,3.24,1.771s.388.476.388.476l-.82.01-3.024-1.911a3.019,3.019,0,0,0-.966-.345c-.33,0-1.28.13-.978-.6Z" transform="translate(534.211 -73.157)" fill="#633321"></path><path id="Path_274" data-name="Path 274" d="M-514.037,131.778s2.506,0,3.067-.907,1.08-3.629,1.6-3.888a1.693,1.693,0,0,0,.735-.821l.691-.007a3.013,3.013,0,0,1-.518.525c-.475.432-1.209,1.256-1.209,1.771a5.487,5.487,0,0,1-.735,1.9,6.042,6.042,0,0,0-.389.778,13.09,13.09,0,0,0,2.333-.648c.548-.3,1.469-2.506,1.469-2.506a8.3,8.3,0,0,1,1.382-1.555.707.707,0,0,0,.389-.562s-.043.605-.259.735a2.541,2.541,0,0,0-.518.6l-.432.778-.475.851-.6,1.266,1.987-.562s1.037-2.549,1.556-2.851a5.034,5.034,0,0,0,.993-.822l.172-.344.216.173-.562.561-.734.691-.994,2.2.735-.3,1.037-.475.389-.086.3-.951a4.714,4.714,0,0,0,1.037-1.844c.129-.834.3-.4.3-.4l-.173.821-.95,1.9a7.146,7.146,0,0,0,1.382-.778,5.933,5.933,0,0,0,1.641-2.376,1.973,1.973,0,0,1-.691,1.685,28.337,28.337,0,0,1-2.506,2.074s-.3.345.3.216a12.038,12.038,0,0,1,1.555-.173l.734-.23-.3.532-3.154.345-.605.087-2.289,1.037.993.518a4.414,4.414,0,0,0,2.16-.043c.82-.345.864-.216.864-.216a8.579,8.579,0,0,1-1.555.648,1.8,1.8,0,0,1-1.512-.13c-.389-.13-1.177-.432-1.409-.476a20.512,20.512,0,0,0-2.393.605s-1.21.124-.432.667a7.775,7.775,0,0,0,4.45.888l.345.053-1.382.207a11.116,11.116,0,0,1-4.45-1.166s-.345-.259-1.037.043c0,0-.95.173-.389.562,0,0,3.11,1.728,3.24,1.771s.388.476.388.476l-.82.01-3.024-1.911a3.019,3.019,0,0,0-.966-.345c-.33,0-1.28.13-.978-.6Z" transform="translate(534.211 -73.157)" fill="none" stroke="#633321" stroke-width="0.074"></path><path id="Path_275" data-name="Path 275" d="M-518.11,111.4l.157-3.629s1.053-3.283,1.269-4.536a12.5,12.5,0,0,0,.216-1.555l-.173-.82-.086,1.209-.734,2.851-.667,1.858-.24.345-.951-3.283a14.07,14.07,0,0,0,1.367-4.752c0-1.08-.243-1.123-.287-.864a11.15,11.15,0,0,1-1.3,5.054h-.259v-.432l-.605-1.3s-1.451-3.24-.734-4.881l.562-1.123-.043-.216-.907,1.6-.017-2.549-.2-.432-.018.432s-.242,3.845.1,4.493a3.763,3.763,0,0,1,.043.778s-1.426-.907-1.426-1.685c0,0-.216,1.166,1.426,2.506,0,0,.907,1.515,1.037,1.857a13,13,0,0,1,.907,2.808s-1.253-.605-1.512-.735-2.246-1.555-2.376-2.333-.346-.778-.346-.778l-.3.259-.012.562a11.838,11.838,0,0,1,1.135,1.209c.389.519,1.3,1.728,1.9,1.9a4.079,4.079,0,0,1,1.555,1.382,3.01,3.01,0,0,1,.864,1.555c.043.691.043,1.638.043,1.638s-2.074-2.631-2.851-2.674a2.152,2.152,0,0,1-1.6-.993c-.13-.3-.3.6-.3.6a3.4,3.4,0,0,0,.907.476c.518.172,1.166.345,1.166.345a6.518,6.518,0,0,1,1.6,1.469c.518.773,1.037,1.555,1.037,1.555l.13.821Z" transform="translate(539.104 -58.305)" fill="#633321"></path><path id="Path_276" data-name="Path 276" d="M-497.165,105.435l5.7-.389.734-.259.007-.216-5.363.173.951-1.166,2.678-.519a7.653,7.653,0,0,1,2.376-.216,4.145,4.145,0,0,0,1.771-.172s.951-.691.259-.605-.6.432-1.9.389h-2.117l-2.635.518.3-1.3,1.469-.432s1.771-.087,2.808-.173a6.083,6.083,0,0,0,2.765-1.3c.734-.518,1.3-.951,1.3-.951l.562-.691a12.116,12.116,0,0,1-2.981,2.031c-.993.259-5.011.6-5.011.6s-.13-.13.13-.475.993-1.382.993-1.382,3.672-.043,5.054-1.3l1.829-1.167.2-.518s0,.129-.389.345-.951.6-.951.6l-1.426.952a8.261,8.261,0,0,1-1.685.431c-.778.086-2.333.172-2.333.172a6.408,6.408,0,0,1,.851-.993c.262-.173,3.684-3.067,4.894-3.11s.13-.389.13-.389l-1.166.518a27.382,27.382,0,0,0-3.857,2.419,2.129,2.129,0,0,1,1.265-2.289l.389-.648a3.343,3.343,0,0,0-2.246,3.412l-1.512,1.9a5.352,5.352,0,0,1,.562-3.5c.951-1.3,1.3-1.814,1.3-1.814h-.3s-2.678,2.752-2.03,5.739l-.821,1.821-.345.043a5.326,5.326,0,0,1-.691-3.974c.605-1.987.354-1.734.354-1.734l-.267.524a15.754,15.754,0,0,0-.475,3.32,12.692,12.692,0,0,0,.648,2.123,1.554,1.554,0,0,1,.173.864c-.043.3-.561.691-.561.691l-.389.648-.994,1.426Z" transform="translate(526.021 -58.305)" fill="#633321"></path><path id="Path_277" data-name="Path 277" d="M-511.565,95.907l-1.339-1.123a6.293,6.293,0,0,0,.67-2.894l-.006-.907-.145.432a13.68,13.68,0,0,1-.734,3.11l-1.21-.778a6.928,6.928,0,0,0-.01-2.376,5.234,5.234,0,0,0-1.372-2.333l-.993-.994.562.907a4.1,4.1,0,0,1,1.426,3.931l-.043.086-1.685-.691s.216-3.327-2.635-3.586l-.82.346a3.086,3.086,0,0,1,1.123,0,2.265,2.265,0,0,1,1.685,2.938l-2.073-.778s-.648-1.512-1.253-1.642l-.605.13a1.5,1.5,0,0,1,1.339,1.339,33.108,33.108,0,0,0-4.1-.648c-.821.043-1.3.346-.518.346s1.166.043,1.166.043l1.857.432,1.253.259,1.166.259a.964.964,0,0,1-.778.475c-.562.043-1.512.043-1.512.043a2.755,2.755,0,0,0,1.339.216c.691-.086,1.086-.6,1.383-.474s1.382.518,1.382.518l.82.432s.259.389-.691.518a18.907,18.907,0,0,0-2.354.561l.237.216,2.462-.476a1.745,1.745,0,0,1,1.166-.216c.475.173.821.216.691.734l-1.512.3-1.382.345-.907-.043.043.217h.6l2.073-.26,1.382-.216.648.043s1.166.605.691.605a4.851,4.851,0,0,0-3.023,1.08l.3.014a3.951,3.951,0,0,1,2.548-.748,3.932,3.932,0,0,1,1.383.475l.3-.172Z" transform="translate(539.341 -55.452)" fill="#633321"></path><path id="Path_278" data-name="Path 278" d="M-492.186,71.639a3.383,3.383,0,0,1,1.034-2.181,3.407,3.407,0,0,1,2.453-1.9h.224l-.112-.408-.041-.112-.051-.071-.092.112-.444.358-.171-.2L-488.172,66l-.571-.389-1.626,2.067-.694.8-1.194,1.6s-.906-1.145-.806-1.506a5.525,5.525,0,0,0-.008-1.322l-.353.1.028,1.179-.051.708.783.982s.129.115.009.971c-.35,2.488-.347,2.471-.347,2.471s-.808-.114-.8-.548a6.407,6.407,0,0,0-.132-1.133l-.2-1.051.086-1.9-.432.518-.075,1.716.348.97.1.984.382.732.734.3-.154,1.094-.268,1.222-.033.316-.113.273,2.634-2.081,3.524-2.316s.874-.7,1.152-.613.386-.334.386-.334l-.889.118-1.782,1.3-1.81.812-2.162,1.247.238-2.729a28.265,28.265,0,0,1,2.93-1.866c.771-.328,2.9-1.191,3.335-.985a.731.731,0,0,0,.67.06s-.215-.194-1.234-.19a8.53,8.53,0,0,0-2.594.752c-1.333.637-2.939,1.38-2.939,1.38" transform="translate(524.759 -44.601)" fill="#633321"></path><path id="Path_279" data-name="Path 279" d="M-504.864,71.764s.405,3.585,2.117,4.147c0,0,1.08.259.172.476l-2.308-.519s-.2.538-1.407.538l-.82-.192.648-.173s1.123.086,1.339-.3l-.562-.389-.518-.389h-.6l-.13-.778.6.259a6.588,6.588,0,0,0-.518-2.462c-.518-1.08-.6-1.3-.6-1.3l.518.605.562,1.037a21.091,21.091,0,0,1,.518,2.289c0,.389,1.728.951,1.728.951a9.445,9.445,0,0,1-.951-3.413c.086-1.253.216-.389.216-.389Z" transform="translate(530.999 -47.055)" fill="#633321"></path><path id="Path_280" data-name="Path 280" d="M-513.843,59.819l-.432-.518-.6-.216-.864-1.9-.562-.925-.3.01.734,1.261.6,1.685L-516.781,59a2.849,2.849,0,0,1-.475-.907,4.061,4.061,0,0,0-2.1-1.642,2.712,2.712,0,0,0-1.358-.13l1.469.518a2.82,2.82,0,0,1,1.9,2.2l-1.641.087s.043-.043-.734-.821-3.067-.778-3.067-.778l-.043.3a3.63,3.63,0,0,1,3.474,1.338l-.321.173-.907.3-1.382.086-.173-.273c-.389-.619-3.758.019-1.857.019s1.512.6,1.512.6l-2.376,1.21s1.858-.648,2.851-1.037.778,0,.778,0a8.4,8.4,0,0,1-2.937,2.462c2.16-.173,3.931-2.875,3.931-2.875l1.265-.249-.012.23c-.907,2.16-3.629,3.327-3.629,3.327l.432.018a6.5,6.5,0,0,0,3.369-3l.534-.666,1.812.014c.041.177.106.861-.964,1.948a9.69,9.69,0,0,1-2.117,1.721,9.628,9.628,0,0,0,2.031-1.246s1.562-1.347,1.635-2.4l2.037.285Z" transform="translate(539.417 -40.077)" fill="#633321"></path><path id="Path_281" data-name="Path 281" d="M-494.81,45.233l-.216-.216s-.648,1.642-.907,2.376a6.961,6.961,0,0,1-1.256,1.766,32.9,32.9,0,0,0-.672-3.312c.374-.164.781-.863.781-.863,1.073-1.157.474-4.372.474-4.372s-.019.259-.019,1.209a4.805,4.805,0,0,1-.691,2.851c-.37.592-.584.719-.7.719-.38-1.042-.984-2.317-.984-2.317s-.743-2.722.589-3.758l.492-.432-.864.6a12.161,12.161,0,0,0-.441,1.339c0,.172-.437-2.808-.019-3.024,0,0-.688-.172-.2,4.665l.1.476-1.253-1.469-.259.345,1.6,1.685.848,1.987.319,1.339-.889-.691s-2.265-.734-2.308-2.2c-.013-.433-.02-.679-.023-.815l-.5.771a4.87,4.87,0,0,0,.6.963,4.843,4.843,0,0,0,1.749,1.586c.541.172,1.577.569,1.664,1.537s.216,2.178.216,2.178l-.173,1.284.389.487.235-2,.043-.019c.84-.422,1.968-3.942,1.968-3.942l.3-.734Zm-2.938,6.209-.259-.982c-.389-1.21-2.721-2.074-2.721-2.074l.3.259a12.838,12.838,0,0,0,1.814,1.814,2.338,2.338,0,0,1,.864.982Zm-3.565-8.319,0-.006s-.012-.319,0,.006Z" transform="translate(528.267 -31.15)" fill="#633321"></path><path id="Path_282" data-name="Path 282" d="M-511.2,41.314l-.086-1.987s2.03-2.116,1.641-3.671c0,0,.22,1.382-1.661,3.153l-.2-1.339.345-.691.086-3.154h-.259l-.086,2.981-.345.259-.259-.518-.259-1.166-.389-2.03-.605-1.382-.018.648.234.691-.13.993-.577-.82-.676-1.123-.411-1.339-.194.216-.014,1.123.834.864v.432l-.993-1.037-.993-1.123.734,1.339,1.037,1.037.864.648.389.345.476.951-.778-.259-.821-.907-1.166-1.166-.751-.173.665.562.864.951.605.648.734.781.734.3.476.476.086.864v.3l-.844-.3s-1.208-1.08-1.575-1.512a1.883,1.883,0,0,0-.864-.562l-.173.435a4.031,4.031,0,0,1,.864.515c.13.172.892.82.892.82a7.449,7.449,0,0,0,1.009.821c.173.043.735.216.735.216l.172,1.123a2.289,2.289,0,0,1-.82-.173,7.489,7.489,0,0,1-1.1-.734l-.848-.778-.821-.691,1.253,1.641.864.691.993.432.389.086.259,1.145.475.151Z" transform="translate(535.244 -27.771)" fill="#633321"></path><path id="Path_283" data-name="Path 283" d="M-527.835,43.243l.518.216s.528,1.339.761,1.728,1.01,1.317,1.01,1.317.993.67.95.972-.583.343-.583.173.124-.3-.626-.216a6.059,6.059,0,0,0-2.038.335c-.424.27-1.159.659-1.159.659a1.735,1.735,0,0,1-.648.173c-.3,0,.562-.476,1.123-.691a10.191,10.191,0,0,1,1.6-.605c.372-.043,1.3-.086,1.3-.086l-.6-.389s.053-.173-.319-.173-.934-.216-1.193,0a16.383,16.383,0,0,1-1.555.864l-1.383.734-.993.043-1.08.086s1.166-.216,1.512-.3a15.6,15.6,0,0,0,1.512-.648l1.067-.605.921-.324a.382.382,0,0,0-.3-.453c-.389-.129-1.3-.518-1.3-.518a.609.609,0,0,0-.475.173c-.259.217-1.037.8-1.037.8a5.481,5.481,0,0,1-1.772.411c-.95.043-1.339.043-1.339.043s-.648-.3.6-.3,1.814-.044,2.247-.388l1.08-.864a.823.823,0,0,0-.648-.3c-.432,0-1.123-.346-1.555-.087s-.432.3-.6.345-.332.389-.821.389h-.864c-.951,0,.043-.259.3-.259a2.972,2.972,0,0,0,.778-.216l1.037-.475s.475-.173-.173-.173a11.37,11.37,0,0,1-1.469-.13l-1.6-.3-.864-.3-.389-.518a2.307,2.307,0,0,0,.778.432,6.205,6.205,0,0,1,.95.3h1.037a2.137,2.137,0,0,0-.778-.648,8.684,8.684,0,0,0-1.166-.233s.389-.019.821-.019a1.993,1.993,0,0,1,.864.252l.778.648,2.03.346s.432-.346-1.08-1.124l-.518-.389-.173-.389a1.79,1.79,0,0,0,.6.389,3.207,3.207,0,0,1,.778.518s.926,1.166,1.08,1.166,1.425.3,1.425.3.308.094.433.021c.044-.026.065-.072.042-.151a3.887,3.887,0,0,0-1.037-1.858c-.648-.518-.475-.4-.475-.4l.864.356a6.418,6.418,0,0,1,1.166,2.289l1.512.778.415.216-.459-.993-.518-1.253-.3-.691Z" transform="translate(545.244 -33.436)" fill="#633321"></path><path id="Path_284" data-name="Path 284" d="M-535.671,30.558h.907a4.068,4.068,0,0,1,1.253-.216c.475.043,1.1-.005,1.252.235s.735.931.691.2-.475-.475-.778-.864a4.6,4.6,0,0,1-.518-1.037c-.13-.259-.864-2.074-.864-2.074s.086-.086-.3-.778-.475-.043-.3.173a4.764,4.764,0,0,1,.388.648l.335.821.27.907s.107.346-.27.259a3.785,3.785,0,0,1-1.069-.734,4.9,4.9,0,0,0-.821-2.074l-.691-1.08.778,1.814.172.951a5.624,5.624,0,0,1-1.555-.648s-1.468-.72-1.468-1.641-.173-.921-.173-.921l-.3-.332s.173.735.216,1.08a1.809,1.809,0,0,0,.475.951c.216.216.993.648.562.734a5.151,5.151,0,0,1-1.288-.043l-.267.389h2.333s.864.476,1.253.691a7.6,7.6,0,0,1,1.037.821,20.782,20.782,0,0,1-3.24-.043c-.475-.173-.216.389.389.389s2.851.086,2.851.086l1.08.087a3.962,3.962,0,0,1,.432.432,2.491,2.491,0,0,0,.346.346s-.691,0-1.253.043a7.017,7.017,0,0,0-1.339.3l-.691.086.173.043Z" transform="translate(546.276 -24.554)" fill="#633321"></path><path id="Path_285" data-name="Path 285" d="M-544.837,33.367c-.432-1.253-2.635-1.9-2.635-1.9s-2.2-.6-.006.087a3.621,3.621,0,0,1,2.441,1.916h-.578l-.691-.318a2.157,2.157,0,0,0-1.08-.777c-.562-.087-1.3-.278-1.3-.278l-.778.019s2.16.172,2.635.95l.016.216-2.176,0-1.641-.174h-.3l1.814.193v.167a18.228,18.228,0,0,1-2.462.5c-.561,0-.345.173-.345.173l1.685.015-1.641.849.648.017,1.253-.795,1.08-.518s-.056-.143.425-.143h.7l-1.123.748-.778.389-.778.338-.216.266.562-.13.389-.259,2.506-1.454.864.071.345.179-.389.3a10.836,10.836,0,0,1-2.419,1.327l-.907.574,1.814-.691,1.468-.907.691-.605.778.043.017-.025c.271,1.055-2.263,1.984-2.263,1.984l.648-.015.345-.259a7.236,7.236,0,0,0,1.555-1.3.876.876,0,0,0-.173-.778Z" transform="translate(552.526 -27.967)" fill="#633321"></path></g></g><path id="Path_287" data-name="Path 287" d="M-510.764,49.5l-1.026-1.458a2.652,2.652,0,0,0-1.458-1.89c-2.052-1.242-4.428.972-4.428.972-3.564-.432-4.374,2.916-5.022,2.376s.324-2,.324-2l2.16-2.538a5.466,5.466,0,0,0,.81-3.672,4.362,4.362,0,0,0-.3-2.538l-.076-1.188a4.385,4.385,0,0,0-1.512-2.538,3.08,3.08,0,0,0-1.351-2.16,10.452,10.452,0,0,0-1.079-1.134c-.324-.324.054-.378.054-.378-1.025-.054-1.458,2.376-1.458,2.916s-.108,1.62-.7,2-.108,1.835-.108,1.835l.108,1.512a1.89,1.89,0,0,0,.81,2,3.778,3.778,0,0,0,1.512,2.916c.486.648.864,3.024.054,3.24-.563.15-1.088-.966-1.093-.936l.013.018s.309.319.311.306a13.361,13.361,0,0,1-1.823-3.221,15.214,15.214,0,0,0-2.375-3.672s.216-1.89.324-2.16a10.986,10.986,0,0,0,.54-2.538c.108-1.188-.216-.972-.27-2.16a5.069,5.069,0,0,0-1.188-2.484,5.736,5.736,0,0,1-1.35-1.242c-.378-.594-.864-.324-1.458-.918a2.871,2.871,0,0,0-1.361-.734l-1.037-.518.345.951.173,1.123a7.964,7.964,0,0,0,.173,2.246c.259.778.346,1.123.346,1.123-.346.086.864,1.9,1.037,2.938s-.259.518-.259.518-5.1-3.758-5.011-4.06a2.8,2.8,0,0,0-.259-1.382,2.929,2.929,0,0,1-.864-2.16c-.172-1.814-.864-1.3-1.728-2.2a4.2,4.2,0,0,0-2.246-1.08,8.621,8.621,0,0,0-3.629-.6c.173,1.771,1.3,1.814,1.3,2.765a2.014,2.014,0,0,0,.778,1.512s1.383.562.518.821-.172.259-.172.259c1.123.648.432.864-.087.778s-.756-.778-.756-.778c-.324-1.944-1.944-1.372-1.944-1.372-.972-1.048-2.592.076-2.592.076a2.915,2.915,0,0,0-1.944,1.188c-3.456,2.484-1.4,2.916-1.4,2.916l3.132-.216,2.268-.432c2.376.216,2.7-1.44,2.7-1.44,1.08,1.368,1.728.076,1.728.076l.648.068,3.888,1.944,1.619.971a9.646,9.646,0,0,1,1.446.715c4.626,4.455.054.054.054.054l-1.5-.769a8.153,8.153,0,0,0-1.834-.052c-2.464-.809-2.808.269-2.808.269-2.16-.68-1.3.648-3.132.756s.109,1.08.648,1.512,1.188.864,1.188.864c0,.972,1.728,1.3,1.728,1.3.432,1.62,3.348,1.62,3.672,1.4s2.916.108,3.671-.108,1.512-.864,2.268-.756a5.294,5.294,0,0,1,1.944,1.32l1.08,1.164s1.512,2.052.972,2.268-2.052-1.836-2.052-1.836c-3.132-2.808-4.752-.864-4.752-.864-2.376-.432-3.024,2.7-3.024,2.7l-1.512,1.652c-1.08,2.192,3.023,2.236,3.023,2.236,1.4.972,2.052.324,3.024.324a3.875,3.875,0,0,0,2.052-.972s1.4-.864,2.052-1.188a7.3,7.3,0,0,1,2.268-.324l.756,1.188.216.864s2.375,5.724,1.512,5.724-1.512-.648-1.62-2.268-1.944-1.3-1.944-1.3l-1.512-1.149h-1.836s1.3,6.181,1.836,6.765,2.592-.508,2.592-.508l1.188.076c1.728,0,.432,0,1.588,1.155s-.076,1.869-.076,2.732-.864,5.832-.864,5.832c-1.08,1.4-.432-.388-1.836-3.564s-2.052-2.16-4.1-3.191-2.485.059-2.485.059-1.62,1.3-2.7.972-2.268.972-2.268.972l.738,1.477.125.251a9.059,9.059,0,0,0-.324,3.888c-1.728,2.268-.54,3.132-.54,3.132l-.108.864a4.043,4.043,0,0,0,2.052,4.428s.324,1.728,1.188,2.268,1.512,2.268,1.188,2.916-15.767,9.4-15.767,9.4l.324.756h4V88.6c0-.39,7.829-5.13,7.829-5.13,1.026-.594,2.97.756,2.97.756l1.242,1.242a6.328,6.328,0,0,0,5.022.378c2.268.216,2.592-.648,2.754-.918s.972-.594.972-.594c2.16-.324,2.268-1.782,2.322-2.16s1.3-.918,1.3-.918c2-1.134,2.375-4,2.375-4,.054-.918-.216-.432-.216-.432l-3.618.81c-.81-.378-2.376.27-2.376.27l-.432-.054c-1.566-.486-3.456.864-3.456.864s-1.512.378-2.16.594a2.268,2.268,0,0,0-1.08,1.944c0,.648-.918,1.026-2.052,1.242a1.478,1.478,0,0,1-1.566-.432l3.942-2.916,2.052-1.836a23.956,23.956,0,0,0,1.782-2.268,5.672,5.672,0,0,1,2.484-1.836,4.232,4.232,0,0,1,3.078-.378,3.105,3.105,0,0,0,2.754-.918,5.959,5.959,0,0,1,1.512-.81l.972-.54c.432-.162,1.188-1.835,1.674-2.268s1.026-1.08,1.026-1.458a4.646,4.646,0,0,1,.864-2.385c.54-.5.378-1.287-.108-2.636s-1.458-1.242-2.322-1.08-2.106.81-3.671.27-2.754,1.026-2.754,1.026c-.972,1.35-1.188,1.242-1.188,1.242a28.323,28.323,0,0,1,.54-3.024,3.107,3.107,0,0,1,2.052-1.35,8.461,8.461,0,0,0,2.268-1.35c2.052-.864,2.106-3.726,2.43-4.374a5.749,5.749,0,0,0,.432-2.322,7.77,7.77,0,0,0-.486-2.43s-.162-.108.864-.108a4.5,4.5,0,0,1,1.728.324,9.914,9.914,0,0,0,1.512,1.026.533.533,0,0,0,.648-.162Zm-14.255,18.791-2.052,4.32a16.3,16.3,0,0,1-4.531,5.4c-.006.021-.009.025-.005,0l.005,0c.077-.249.8-3.236.8-3.236l.918-1.512c.756-.648,0-3.186,0-3.186-.162-1.458-.648-1.782-.648-1.782a14.693,14.693,0,0,0-.7-2.268l1.242-.189,1.4.189,1.458.108,1.134-.216.648.486c.81.486.324,1.89.324,1.89Zm-13.089-36.416-.173.172-.734-.389h.562l.345.216ZM-531.3,38.3a3.191,3.191,0,0,1-1.2-.094l-.423-1.384s1.563,1.508,1.62,1.478Z" transform="translate(597.264 -23.636)" fill="none" stroke="#633321" stroke-width="0.1"></path><path id="Path_288" data-name="Path 288" d="M-497.212,68s3,6.015,2.139,11.685" transform="translate(570.254 -44.472)" fill="none" stroke="#633321" stroke-linejoin="round" stroke-width="0.295"></path><path id="Path_289" data-name="Path 289" d="M-562.11,40.719a27.176,27.176,0,0,0-8.781-1.449,27.09,27.09,0,0,0-15.794,5.051l1.692,1.111a25.218,25.218,0,0,1,14.1-4.285,25.32,25.32,0,0,1,7.528,1.144l1.253-1.572Zm13.881,14.432a25.168,25.168,0,0,1,2.467,8.058h1.89a27.041,27.041,0,0,0-2.491-8.523l-1.866.465Z" transform="translate(613.531 -30.577)" fill="#9e4919"></path><path id="Path_290" data-name="Path 290" d="M-556.047,165.206v-2.958h1.765v-2.894H-580.22v0c-.026,0-.051,0-.077,0a4.5,4.5,0,0,0-4.529,4.459,4.5,4.5,0,0,0,4.529,4.46c.026,0,.052,0,.077,0v0h25.938v-3.067Zm-28.779-1.393a4.5,4.5,0,0,0-4.548-4.459c-.026,0-.052,0-.077,0v0H-615.5v2.894h1.772v2.958H-615.5v3.067h26.045v0c.026,0,.051,0,.077,0a4.5,4.5,0,0,0,4.548-4.46Z" transform="translate(627.467 -88.661)" fill="#fff"></path><path id="Path_291" data-name="Path 291" d="M-531.851,178.053a1.659,1.659,0,0,1,1.145.529c.432.518.475.62.994.62s1.274.08,1.231-.195-.075-.665-.216-.756a1.433,1.433,0,0,1-.292-.3h-2.773l-.089.1Z" transform="translate(587.008 -97.656)" fill="#e59800"></path><path id="Path_292" data-name="Path 292" d="M-583.494,178.053a1.659,1.659,0,0,0-1.145.529c-.432.518-.476.62-.994.62s-1.274.08-1.231-.195.075-.665.216-.756a1.433,1.433,0,0,0,.292-.3h2.773l.089.1Z" transform="translate(613.618 -97.656)" fill="#e59800"></path><path id="Path_293" data-name="Path 293" d="M-555.92,163.3v-1.144h1.814v-4.869h-26.627v0c-.031,0-.062,0-.093,0a5.437,5.437,0,0,0-4.739,2.773,5.436,5.436,0,0,0-4.739-2.773c-.031,0-.061,0-.093,0v0h-26.627v4.869h1.814V163.3h-1.814v4.869H-590.4v0c.031,0,.062,0,.093,0a5.436,5.436,0,0,0,4.739-2.773,5.437,5.437,0,0,0,4.739,2.773c.031,0,.061,0,.093,0v0h26.627V163.3Zm-30.2-1.823a5.43,5.43,0,0,0-.15,1.251,5.43,5.43,0,0,0,.174,1.342,4.46,4.46,0,0,1-4.278,3.206c-.025,0-.051,0-.076,0v0h-25.54V164.2h1.738v-2.958h-1.738v-2.894h25.54v0c.025,0,.051,0,.076,0a4.462,4.462,0,0,1,4.254,3.12Zm29.236-.226V164.2h1.738v3.067h-25.54v0c-.026,0-.051,0-.076,0a4.46,4.46,0,0,1-4.278-3.206,5.43,5.43,0,0,0,.174-1.342,5.433,5.433,0,0,0-.15-1.251,4.461,4.461,0,0,1,4.254-3.12c.026,0,.051,0,.076,0v0h25.54v2.894Z" transform="translate(628.206 -87.659)" fill="#e59800"></path><path id="Path_294" data-name="Path 294" d="M-554.515,159.715V148.29h-49.958v11.425Zm-1.026-.883h-47.906v-9.66h47.906v9.66Z" transform="translate(622.135 -83.309)" fill="#9e4919"></path><path id="Path_295" data-name="Path 295" d="M-602.486,150v9.66h47.906V150Z" transform="translate(621.174 -84.136)" fill="#203c6e"></path><g id="Group_291" data-name="Group 291" transform="translate(20.847 68.456)"><path id="Path_296" data-name="Path 296" d="M-595.183,158.663h-1.531l-.213.721H-598.3l1.64-4.363h1.47l1.64,4.363h-1.412Zm-.28-.943-.482-1.569-.477,1.569Z" transform="translate(598.304 -155.02)" fill="#e59800"></path></g><g id="Group_292" data-name="Group 292" transform="translate(26.269 67.339)"><path id="Path_297" data-name="Path 297" d="M-587.8,155.02h1.348v3.289h2.1v1.074H-587.8Z" transform="translate(587.802 -153.903)" fill="#e59800"></path><path id="Path_298" data-name="Path 298" d="M-579.443,155.02h3.333v.937h-1.979v.763h1.691v.881h-1.691v1.783h-1.354Z" transform="translate(583.759 -153.903)" fill="#e59800"></path><path id="Path_299" data-name="Path 299" d="M-568.835,157.616h-1.531l-.213.721h-1.377l1.64-4.363h1.471l1.639,4.363h-1.412Zm-1.171-4.759h.86l.66.852h-.738l-.363-.456-.363.456h-.738Zm.891,3.816-.482-1.569-.477,1.569Z" transform="translate(580.137 -152.857)" fill="#e59800"></path><path id="Path_300" data-name="Path 300" d="M-561.435,155.02h1.259l1.643,2.414V155.02h1.271v4.363h-1.271l-1.634-2.4v2.4h-1.268Z" transform="translate(575.049 -153.903)" fill="#e59800"></path><path id="Path_301" data-name="Path 301" d="M-551.111,155.02h2a2.393,2.393,0,0,1,.957.161,1.552,1.552,0,0,1,.6.462,1.916,1.916,0,0,1,.345.7,3.255,3.255,0,0,1,.107.845,2.939,2.939,0,0,1-.159,1.085,1.8,1.8,0,0,1-.442.646,1.437,1.437,0,0,1-.608.347,3.119,3.119,0,0,1-.8.119h-2Zm1.349.988v2.384h.33a1.39,1.39,0,0,0,.6-.094.632.632,0,0,0,.28-.327,2.05,2.05,0,0,0,.1-.757,1.473,1.473,0,0,0-.226-.95.959.959,0,0,0-.75-.256Z" transform="translate(570.055 -153.903)" fill="#e59800"></path><path id="Path_302" data-name="Path 302" d="M-541.495,155.02h3.613v.931h-2.262v.693h2.1v.89h-2.1v.86h2.328v.988h-3.679Z" transform="translate(565.404 -153.903)" fill="#e59800"></path><path id="Path_303" data-name="Path 303" d="M-530.454,157.732v-.908h2.084v1.86a4.243,4.243,0,0,1-1.059.555,3.578,3.578,0,0,1-1.09.148,2.651,2.651,0,0,1-1.266-.265,1.811,1.811,0,0,1-.759-.789,2.6,2.6,0,0,1-.269-1.2,2.508,2.508,0,0,1,.295-1.243,1.911,1.911,0,0,1,.863-.8,2.817,2.817,0,0,1,1.194-.211,3.351,3.351,0,0,1,1.082.131,1.407,1.407,0,0,1,.6.406,1.812,1.812,0,0,1,.356.7l-1.3.232a.7.7,0,0,0-.272-.378.852.852,0,0,0-.49-.131.884.884,0,0,0-.707.308,1.484,1.484,0,0,0-.263.975,1.531,1.531,0,0,0,.266,1.012.938.938,0,0,0,.743.3,1.421,1.421,0,0,0,.432-.066,2.343,2.343,0,0,0,.47-.224v-.411Z" transform="translate(561.205 -153.833)" fill="#e59800"></path></g><g id="Group_293" data-name="Group 293" transform="translate(59.711 68.456)"><path id="Path_304" data-name="Path 304" d="M-519.911,158.663h-1.53l-.213.721h-1.377l1.64-4.363h1.47l1.64,4.363h-1.412Zm-.28-.943-.481-1.569-.477,1.569Z" transform="translate(523.031 -155.02)" fill="#e59800"></path></g><path id="Path_305" data-name="Path 305" d="M-576.89,40.447l.367.109a1.092,1.092,0,0,0,.371.182c.185.039.858.145.978.695,0,0,.03.237.288.12s-.242.41-.358.526-.216.41-.325.371-.078-.027-.167.024-.13.16-.246.128-.124-.039-.227.058-.069,0-.16-.145-.236-.255-.156-.343-.013-.172-.036-.25a1.85,1.85,0,0,0-.09-.256c-.043-.1-.234-.094-.111-.231s-.085-.164.016-.276-.069-.295-.125-.345-.013-.244-.013-.244l.029-.14" transform="translate(608.798 -31.138)" fill="#9c0016"></path><path id="Path_306" data-name="Path 306" d="M-576.89,40.447l.367.109a1.092,1.092,0,0,0,.371.182c.185.039.858.145.978.695,0,0,.03.237.288.12s-.242.41-.358.526-.216.41-.325.371-.078-.027-.167.024-.13.16-.246.128-.124-.039-.227.058-.069,0-.16-.145-.236-.255-.156-.343-.013-.172-.036-.25a1.85,1.85,0,0,0-.09-.256c-.043-.1-.234-.094-.111-.231s-.085-.164.016-.276-.069-.295-.125-.345-.013-.244-.013-.244l.029-.14" transform="translate(608.798 -31.138)" fill="none" stroke="#633321" stroke-width="0.221"></path><path id="Path_307" data-name="Path 307" d="M-556.048,82.8l-.721-1.715-.72,1.715Zm0,0h-1.44l.545.54v0h.349v0l.545-.54Z" transform="translate(599.409 -50.801)"></path><path id="Path_308" data-name="Path 308" d="M-556.432,85.445v9.908h.349V85.445Z" transform="translate(598.898 -52.912)"></path><path id="Path_309" data-name="Path 309" d="M-579.206,40.464l.164.345a1.088,1.088,0,0,0,.112.4c.095.164.467.734.138,1.192,0,0-.155.181.1.294s-.467.1-.631.086-.449.115-.492.007-.033-.076-.13-.108-.206.011-.259-.1-.054-.119-.195-.13-.043-.054,0-.216.032-.345.151-.345.119-.125.162-.195a1.827,1.827,0,0,0,.13-.238c.043-.1-.087-.238.1-.238s.065-.173.216-.173.173-.248.173-.324.173-.173.173-.173h.151" transform="translate(610.523 -31.155)" fill="#9c0016"></path><path id="Path_310" data-name="Path 310" d="M-579.206,40.464l.164.345a1.088,1.088,0,0,0,.112.4c.095.164.467.734.138,1.192,0,0-.155.181.1.294s-.467.1-.631.086-.449.115-.492.007-.033-.076-.13-.108-.206.011-.259-.1-.054-.119-.195-.13-.043-.054,0-.216.032-.345.151-.345.119-.125.162-.195a1.827,1.827,0,0,0,.13-.238c.043-.1-.087-.238.1-.238s.065-.173.216-.173.173-.248.173-.324.173-.173.173-.173h.151" transform="translate(610.523 -31.155)" fill="none" stroke="#633321" stroke-width="0.221"></path><line id="Line_49" data-name="Line 49" x2="3.476" y2="3.58" transform="translate(40.842 31.542)" fill="none" stroke="#161615" stroke-width="0.207"></line><path id="Path_311" data-name="Path 311" d="M-560.631,82.439l.444.991.533-.517-.977-.474" transform="translate(600.929 -51.458)" fill="#161615"></path><path id="Path_312" data-name="Path 312" d="M-553.634,89.2l0,0v0l-.406.058-.058.406h0l.592.592h0l.058-.405.405-.058h0l-.592-.592Z" transform="translate(597.77 -54.729)" fill="#fff"></path><line id="Line_50" data-name="Line 50" x1="3.476" y2="3.58" transform="translate(40.964 31.542)" fill="none" stroke="#161615" stroke-width="0.207"></line><path id="Path_313" data-name="Path 313" d="M-552.471,82.439l-.444.991-.533-.517.977-.474" transform="translate(597.455 -51.458)" fill="#161615"></path><path id="Path_314" data-name="Path 314" d="M-559.5,89.187l0,0h0l.4.066.066.4h0l-.565.565h0l-.066-.4-.4-.066h0l.565-.565Z" transform="translate(600.657 -54.722)" fill="#161615"></path><path id="Path_315" data-name="Path 315" d="M-557.055,77.3l-.3.663-.724.083.537.493-.144.714.634-.358.635.358-.144-.714.537-.493-.724-.083-.3-.663Z" transform="translate(599.696 -48.972)" fill="#fff"></path><path id="Path_316" data-name="Path 316" d="M-563.48,101.217a.573.573,0,0,1,.111.26c0,.112.017.482.017.482h.318s.185-.259.26-.185.083-.074.186-.074,0-.371,0-.371l-.186-.372-.706.26Z" transform="translate(602.307 -60.415)" fill="#161615"></path><path id="Path_317" data-name="Path 317" d="M-560.7,95.554l2.431-.865s3.886-1.749,4.38-4.813a3.214,3.214,0,0,1-1.829,1.089s-1.181,2.488-5.293,3.807l.379.367-.068.415Z" transform="translate(601.113 -55.055)" fill="#161615"></path><g id="Group_295" data-name="Group 295" transform="translate(40.101 34.821)"><g id="Group_294" data-name="Group 294" clip-path="url(#clip-path-3)"><path id="Path_318" data-name="Path 318" d="M-560.923,95.693s5.038-1.419,5.882-4.609l-1.344-.012-4.87,3.905-.171.383.5.333Z" transform="translate(561.212 -90.455)" fill="#fff"></path></g></g><path id="Path_320" data-name="Path 320" d="M-561.369,100.241l-.733-2.117s-.2-.392,0-.469.381-.083.307.335.471.89.471.89-.208.751.2.992.046.664-.244.37Z" transform="translate(601.684 -58.798)" fill="#161615"></path><path id="Path_321" data-name="Path 321" d="M-563.687,100.2c-.109.225-.251-.063-.408.134s-.349.013-.476.2c0,0-.4-.2-.4.342,0,0,.172.406.5.019,0,0,.3.028.354-.092s.273,0,.353-.088a.56.56,0,0,1,.373-.14c.091.016.149-.052.207-.114s-.122-.372-.122-.372-.276-.111-.386.114Zm-.988.444a.121.121,0,0,1,.1.14.121.121,0,0,1-.14.1.121.121,0,0,1-.1-.14.121.121,0,0,1,.139-.1Z" transform="translate(603.027 -59.982)" fill="#161615"></path><path id="Path_322" data-name="Path 322" d="M-549.585,101.217a.573.573,0,0,0-.112.26c0,.112-.016.482-.016.482h-.318s-.185-.259-.26-.185-.083-.074-.186-.074,0-.371,0-.371l.186-.372.706.26Z" transform="translate(596.04 -60.415)" fill="#161615"></path><path id="Path_323" data-name="Path 323" d="M-558.158,95.554l-2.432-.865s-3.886-1.749-4.379-4.813a3.213,3.213,0,0,0,1.829,1.089s1.181,2.488,5.293,3.807l-.379.367.068.415Z" transform="translate(603.027 -55.055)" fill="#161615"></path><g id="Group_297" data-name="Group 297" transform="translate(38.058 34.821)"><g id="Group_296" data-name="Group 296" clip-path="url(#clip-path-4)"><path id="Path_324" data-name="Path 324" d="M-557.246,95.693s-5.038-1.419-5.882-4.609l1.343-.012,4.871,3.905.171.383-.5.333Z" transform="translate(564.078 -90.455)" fill="#fff"></path></g></g><path id="Path_326" data-name="Path 326" d="M-551.989,100.241l.733-2.117s.2-.392,0-.469-.38-.083-.307.335-.471.89-.471.89.208.751-.2.992-.046.664.244.37Z" transform="translate(596.955 -58.798)" fill="#161615"></path><path id="Path_327" data-name="Path 327" d="M-550.188,100.2c.109.225.251-.063.408.134s.349.013.476.2c0,0,.4-.2.4.342,0,0-.172.406-.5.019,0,0-.3.028-.354-.092s-.273,0-.353-.088a.56.56,0,0,0-.373-.14c-.091.016-.149-.052-.207-.114s.122-.372.122-.372.276-.111.386.114Zm.988.444a.121.121,0,0,0-.1.14.121.121,0,0,0,.14.1.121.121,0,0,0,.1-.14.12.12,0,0,0-.139-.1Z" transform="translate(596.129 -59.982)" fill="#161615"></path><path id="Path_328" data-name="Path 328" d="M-520.117,52.632" transform="translate(581.333 -37.04)" fill="#e59800"></path><path id="Path_329" data-name="Path 329" d="M-520.117,52.632" transform="translate(581.333 -37.04)" fill="none" stroke="#633321" stroke-width="0.074"></path><path id="Path_330" data-name="Path 330" d="M-521.37,95.342l.972-1.242,1.458,1.512,1.6,1.534,1.49,2.431" transform="translate(581.939 -57.098)" fill="none" stroke="#633321" stroke-linejoin="round" stroke-width="0.295"></path><path id="Path_331" data-name="Path 331" d="M-489.754,68.366s-2.661-.364-.8-2.218M-497,83.122s-.67,5.99-2.83,9.489" transform="translate(571.518 -43.578)" fill="none" stroke="#633321" stroke-linecap="round" stroke-linejoin="round" stroke-width="0.295"></path><path id="Path_332" data-name="Path 332" d="M-529.806,36.424h-1.62l-2.052-.756-.108-.324-.648-.648m11.094,6.534a33.462,33.462,0,0,1,3.684,3.618" transform="translate(588.161 -28.365)" fill="none" stroke="#633321" stroke-linejoin="round" stroke-width="0.295"></path><path id="Path_333" data-name="Path 333" d="M-517.778,134.734a4.3,4.3,0,0,0,1.254,0c.5-.141.4.228.216.228s-.648-.005-1.254-.005c-.3,0-.562-.223-.216-.223Z" transform="translate(580.281 -76.736)" fill="#9e4919"></path><path id="Path_334" data-name="Path 334" d="M-517.778,134.734a4.3,4.3,0,0,0,1.254,0c.5-.141.4.228.216.228s-.648-.005-1.254-.005c-.3,0-.562-.223-.216-.223Z" transform="translate(580.281 -76.736)" fill="none" stroke="#633321" stroke-width="0.221"></path><path id="Path_335" data-name="Path 335" d="M-515.344,134.223a1.473,1.473,0,0,0,1.984.594,1.473,1.473,0,0,0,.886-1.872,1.473,1.473,0,0,0-1.984-.594,1.473,1.473,0,0,0-.886,1.872Z" transform="translate(579.074 -75.524)" fill="#9c0016"></path><path id="Path_336" data-name="Path 336" d="M-515.344,134.223a1.473,1.473,0,0,0,1.984.594,1.473,1.473,0,0,0,.886-1.872,1.473,1.473,0,0,0-1.984-.594,1.473,1.473,0,0,0-.886,1.872Z" transform="translate(579.074 -75.524)" fill="none" stroke="#633321" stroke-width="0.221"></path><path id="Path_337" data-name="Path 337" d="M-518.29,132.868a4.282,4.282,0,0,0,.175-1.242c-.071-.511.281-.363.256-.182s-.1.641-.18,1.241c-.042.3-.3.526-.25.183Z" transform="translate(580.452 -75.079)" fill="#9e4919"></path><path id="Path_338" data-name="Path 338" d="M-518.29,132.868a4.282,4.282,0,0,0,.175-1.242c-.071-.511.281-.363.256-.182s-.1.641-.18,1.241c-.042.3-.3.526-.25.183Z" transform="translate(580.452 -75.079)" fill="none" stroke="#633321" stroke-width="0.221"></path><path id="Path_339" data-name="Path 339" d="M-518.824,129.838a1.473,1.473,0,0,0,1.266-1.639,1.473,1.473,0,0,0-1.43-1.5,1.474,1.474,0,0,0-1.266,1.64,1.473,1.473,0,0,0,1.43,1.5Z" transform="translate(581.401 -72.866)" fill="#9c0016"></path><path id="Path_340" data-name="Path 340" d="M-518.824,129.838a1.473,1.473,0,0,0,1.266-1.639,1.473,1.473,0,0,0-1.43-1.5,1.474,1.474,0,0,0-1.266,1.64,1.473,1.473,0,0,0,1.43,1.5Z" transform="translate(581.401 -72.866)" fill="none" stroke="#633321" stroke-width="0.221"></path><path id="Path_341" data-name="Path 341" d="M-517.659,133.094a4.265,4.265,0,0,0,.822-.946c.219-.467.434-.152.314-.014s-.429.486-.826.943c-.2.228-.537.278-.31.017Z" transform="translate(580.18 -75.382)" fill="#9e4919"></path><path id="Path_342" data-name="Path 342" d="M-517.659,133.094a4.265,4.265,0,0,0,.822-.946c.219-.467.434-.152.314-.014s-.429.486-.826.943c-.2.228-.537.278-.31.017Z" transform="translate(580.18 -75.382)" fill="none" stroke="#633321" stroke-width="0.221"></path><path id="Path_343" data-name="Path 343" d="M-516.065,131.378a1.473,1.473,0,0,0,1.954-.686,1.472,1.472,0,0,0-.384-2.035,1.473,1.473,0,0,0-1.954.685,1.472,1.472,0,0,0,.384,2.035Z" transform="translate(579.674 -73.736)" fill="#9c0016"></path><path id="Path_344" data-name="Path 344" d="M-516.065,131.378a1.473,1.473,0,0,0,1.954-.686,1.472,1.472,0,0,0-.384-2.035,1.473,1.473,0,0,0-1.954.685,1.472,1.472,0,0,0,.384,2.035Z" transform="translate(579.674 -73.736)" fill="none" stroke="#633321" stroke-width="0.221"></path><path id="Path_345" data-name="Path 345" d="M-500.657,115.9a3.578,3.578,0,0,0,.019-1.053c-.111-.419.2-.332.195-.179s-.014.545-.023,1.053c0,.254-.2.468-.191.178Z" transform="translate(571.923 -66.986)" fill="#9e4919"></path><path id="Path_346" data-name="Path 346" d="M-500.657,115.9a3.578,3.578,0,0,0,.019-1.053c-.111-.419.2-.332.195-.179s-.014.545-.023,1.053c0,.254-.2.468-.191.178Z" transform="translate(571.923 -66.986)" fill="none" stroke="#633321" stroke-width="0.221"></path><path id="Path_347" data-name="Path 347" d="M-501.049,112.851a1.238,1.238,0,0,0,.528-1.658,1.237,1.237,0,0,0-1.559-.771,1.237,1.237,0,0,0-.528,1.657,1.237,1.237,0,0,0,1.559.772Z" transform="translate(572.922 -64.954)" fill="#9c0016"></path><path id="Path_348" data-name="Path 348" d="M-501.049,112.851a1.238,1.238,0,0,0,.528-1.658,1.237,1.237,0,0,0-1.559-.771,1.237,1.237,0,0,0-.528,1.657,1.237,1.237,0,0,0,1.559.772Z" transform="translate(572.922 -64.954)" fill="none" stroke="#633321" stroke-width="0.221"></path><path id="Path_349" data-name="Path 349" d="M-501.834,116.094a3.6,3.6,0,0,0-.745-.745c-.379-.211-.1-.372.007-.263s.382.388.741.748c.18.18.2.466,0,.261Z" transform="translate(572.943 -67.231)" fill="#9e4919"></path><path id="Path_350" data-name="Path 350" d="M-501.834,116.094a3.6,3.6,0,0,0-.745-.745c-.379-.211-.1-.372.007-.263s.382.388.741.748c.18.18.2.466,0,.261Z" transform="translate(572.943 -67.231)" fill="none" stroke="#633321" stroke-width="0.221"></path><path id="Path_351" data-name="Path 351" d="M-503.82,113.923a1.238,1.238,0,0,0-.46-1.679,1.238,1.238,0,0,0-1.728.2,1.237,1.237,0,0,0,.46,1.678,1.238,1.238,0,0,0,1.728-.2Z" transform="translate(574.591 -65.751)" fill="#9c0016"></path><path id="Path_352" data-name="Path 352" d="M-503.82,113.923a1.238,1.238,0,0,0-.46-1.679,1.238,1.238,0,0,0-1.728.2,1.237,1.237,0,0,0,.46,1.678,1.238,1.238,0,0,0,1.728-.2Z" transform="translate(574.591 -65.751)" fill="none" stroke="#633321" stroke-width="0.221"></path><path id="Path_353" data-name="Path 353" d="M-500,116.215a3.59,3.59,0,0,0,.691-.795c.184-.392.364-.128.263-.011s-.36.408-.694.791c-.167.192-.451.234-.26.014Z" transform="translate(571.634 -67.31)" fill="#9e4919"></path><path id="Path_354" data-name="Path 354" d="M-500,116.215a3.59,3.59,0,0,0,.691-.795c.184-.392.364-.128.263-.011s-.36.408-.694.791c-.167.192-.451.234-.26.014Z" transform="translate(571.634 -67.31)" fill="none" stroke="#633321" stroke-width="0.221"></path><path id="Path_355" data-name="Path 355" d="M-498.663,114.773a1.237,1.237,0,0,0,1.641-.576,1.237,1.237,0,0,0-.322-1.71,1.238,1.238,0,0,0-1.642.576,1.238,1.238,0,0,0,.323,1.71Z" transform="translate(571.209 -65.927)" fill="#9c0016"></path><path id="Path_356" data-name="Path 356" d="M-498.663,114.773a1.237,1.237,0,0,0,1.641-.576,1.237,1.237,0,0,0-.322-1.71,1.238,1.238,0,0,0-1.642.576,1.238,1.238,0,0,0,.323,1.71Z" transform="translate(571.209 -65.927)" fill="none" stroke="#633321" stroke-width="0.221"></path><path id="Path_357" data-name="Path 357" d="M-494.6,88.68a3.583,3.583,0,0,0,.018-1.053c-.111-.419.2-.331.195-.178s-.014.545-.023,1.053c0,.254-.2.469-.19.178Z" transform="translate(568.995 -53.819)" fill="#9e4919"></path><path id="Path_358" data-name="Path 358" d="M-494.6,88.68a3.583,3.583,0,0,0,.018-1.053c-.111-.419.2-.331.195-.178s-.014.545-.023,1.053c0,.254-.2.469-.19.178Z" transform="translate(568.995 -53.819)" fill="none" stroke="#633321" stroke-width="0.221"></path><path id="Path_359" data-name="Path 359" d="M-494.994,85.629a1.238,1.238,0,0,0,.528-1.658,1.238,1.238,0,0,0-1.56-.771,1.237,1.237,0,0,0-.528,1.657,1.238,1.238,0,0,0,1.56.772Z" transform="translate(569.994 -51.787)" fill="#9c0016"></path><path id="Path_360" data-name="Path 360" d="M-494.994,85.629a1.238,1.238,0,0,0,.528-1.658,1.238,1.238,0,0,0-1.56-.771,1.237,1.237,0,0,0-.528,1.657,1.238,1.238,0,0,0,1.56.772Z" transform="translate(569.994 -51.787)" fill="none" stroke="#633321" stroke-width="0.221"></path><path id="Path_361" data-name="Path 361" d="M-492.973,88.525a3.622,3.622,0,0,0,.219-1.03c-.029-.433.257-.289.225-.138s-.117.532-.223,1.03c-.053.249-.281.423-.22.139Z" transform="translate(568.209 -53.764)" fill="#9e4919"></path><path id="Path_362" data-name="Path 362" d="M-492.973,88.525a3.622,3.622,0,0,0,.219-1.03c-.029-.433.257-.289.225-.138s-.117.532-.223,1.03c-.053.249-.281.423-.22.139Z" transform="translate(568.209 -53.764)" fill="none" stroke="#633321" stroke-width="0.221"></path><path id="Path_363" data-name="Path 363" d="M-493.187,85.6a1.237,1.237,0,0,0,1.157-1.3,1.237,1.237,0,0,0-1.111-1.339,1.236,1.236,0,0,0-1.157,1.3,1.238,1.238,0,0,0,1.111,1.339Z" transform="translate(568.844 -51.709)" fill="#9c0016"></path><path id="Path_364" data-name="Path 364" d="M-493.187,85.6a1.237,1.237,0,0,0,1.157-1.3,1.237,1.237,0,0,0-1.111-1.339,1.236,1.236,0,0,0-1.157,1.3,1.238,1.238,0,0,0,1.111,1.339Z" transform="translate(568.844 -51.709)" fill="none" stroke="#633321" stroke-width="0.221"></path><path id="Path_365" data-name="Path 365" d="M-495.79,89.174a3.575,3.575,0,0,0-.745-.745c-.379-.211-.1-.373.007-.264s.382.388.741.748c.18.18.2.466,0,.261Z" transform="translate(570.02 -54.211)" fill="#9e4919"></path><path id="Path_366" data-name="Path 366" d="M-495.79,89.174a3.575,3.575,0,0,0-.745-.745c-.379-.211-.1-.373.007-.264s.382.388.741.748c.18.18.2.466,0,.261Z" transform="translate(570.02 -54.211)" fill="none" stroke="#633321" stroke-width="0.221"></path><path id="Path_367" data-name="Path 367" d="M-497.776,87a1.237,1.237,0,0,0-.46-1.678,1.237,1.237,0,0,0-1.728.2,1.237,1.237,0,0,0,.46,1.677,1.237,1.237,0,0,0,1.728-.2Z" transform="translate(571.668 -52.73)" fill="#9c0016"></path><path id="Path_368" data-name="Path 368" d="M-497.776,87a1.237,1.237,0,0,0-.46-1.678,1.237,1.237,0,0,0-1.728.2,1.237,1.237,0,0,0,.46,1.677,1.237,1.237,0,0,0,1.728-.2Z" transform="translate(571.668 -52.73)" fill="none" stroke="#633321" stroke-width="0.221"></path><path id="Path_369" data-name="Path 369" d="M-497.821,66.04a3.583,3.583,0,0,0,.29-1.012c0-.433.276-.27.234-.121s-.154.522-.294,1.011c-.07.244-.31.4-.23.123Z" transform="translate(570.556 -42.901)" fill="#9e4919"></path><path id="Path_370" data-name="Path 370" d="M-497.821,66.04a3.583,3.583,0,0,0,.29-1.012c0-.433.276-.27.234-.121s-.154.522-.294,1.011c-.07.244-.31.4-.23.123Z" transform="translate(570.556 -42.901)" fill="none" stroke="#633321" stroke-width="0.221"></path><path id="Path_371" data-name="Path 371" d="M-497.207,63.932a1.237,1.237,0,0,0,1.245-1.215,1.237,1.237,0,0,0-1.015-1.413,1.237,1.237,0,0,0-1.245,1.215,1.237,1.237,0,0,0,1.015,1.413Z" transform="translate(570.745 -41.233)" fill="#9c0016"></path><path id="Path_372" data-name="Path 372" d="M-497.207,63.932a1.237,1.237,0,0,0,1.245-1.215,1.237,1.237,0,0,0-1.015-1.413,1.237,1.237,0,0,0-1.245,1.215,1.237,1.237,0,0,0,1.015,1.413Z" transform="translate(570.745 -41.233)" fill="none" stroke="#633321" stroke-width="0.221"></path><path id="Path_373" data-name="Path 373" d="M-500.477,67.476a3.587,3.587,0,0,0-.955-.445c-.428-.069-.223-.315-.084-.25s.491.234.953.449c.23.107.349.369.086.246Z" transform="translate(572.419 -43.879)" fill="#9e4919"></path><path id="Path_374" data-name="Path 374" d="M-500.477,67.476a3.587,3.587,0,0,0-.955-.445c-.428-.069-.223-.315-.084-.25s.491.234.953.449c.23.107.349.369.086.246Z" transform="translate(572.419 -43.879)" fill="none" stroke="#633321" stroke-width="0.221"></path><path id="Path_375" data-name="Path 375" d="M-502.841,65.733a1.237,1.237,0,0,0-1.006-1.419,1.237,1.237,0,0,0-1.554.781,1.237,1.237,0,0,0,1.006,1.419,1.238,1.238,0,0,0,1.555-.781Z" transform="translate(574.229 -42.668)" fill="#9c0016"></path><path id="Path_376" data-name="Path 376" d="M-502.841,65.733a1.237,1.237,0,0,0-1.006-1.419,1.237,1.237,0,0,0-1.554.781,1.237,1.237,0,0,0,1.006,1.419,1.238,1.238,0,0,0,1.555-.781Z" transform="translate(574.229 -42.668)" fill="none" stroke="#633321" stroke-width="0.221"></path><path id="Path_377" data-name="Path 377" d="M-499.153,66.5a3.573,3.573,0,0,0-.377-.984c-.26-.346.059-.382.114-.238s.191.51.373.985c.091.237-.005.508-.109.236Z" transform="translate(571.424 -43.118)" fill="#9e4919"></path><path id="Path_378" data-name="Path 378" d="M-499.153,66.5a3.573,3.573,0,0,0-.377-.984c-.26-.346.059-.382.114-.238s.191.51.373.985c.091.237-.005.508-.109.236Z" transform="translate(571.424 -43.118)" fill="none" stroke="#633321" stroke-width="0.221"></path><path id="Path_379" data-name="Path 379" d="M-500.38,63.418a1.238,1.238,0,0,0-.131-1.735,1.238,1.238,0,0,0-1.735-.131,1.237,1.237,0,0,0,.131,1.735,1.237,1.237,0,0,0,1.735.131Z" transform="translate(572.833 -41.211)" fill="#9c0016"></path><path id="Path_380" data-name="Path 380" d="M-500.38,63.418a1.238,1.238,0,0,0-.131-1.735,1.238,1.238,0,0,0-1.735-.131,1.237,1.237,0,0,0,.131,1.735,1.237,1.237,0,0,0,1.735.131Z" transform="translate(572.833 -41.211)" fill="none" stroke="#633321" stroke-width="0.221"></path><path id="Path_381" data-name="Path 381" d="M-505.422,53.572a2.085,2.085,0,0,0,.168-.588c0-.251.161-.156.136-.07s-.09.3-.171.587c-.041.141-.18.233-.133.071Z" transform="translate(574.229 -37.133)" fill="#9e4919"></path><path id="Path_382" data-name="Path 382" d="M-505.422,53.572a2.085,2.085,0,0,0,.168-.588c0-.251.161-.156.136-.07s-.09.3-.171.587c-.041.141-.18.233-.133.071Z" transform="translate(574.229 -37.133)" fill="none" stroke="#633321" stroke-width="0.221"></path><path id="Path_383" data-name="Path 383" d="M-505.066,52.35a.718.718,0,0,0,.722-.705.717.717,0,0,0-.589-.819.717.717,0,0,0-.722.7.718.718,0,0,0,.589.82Z" transform="translate(574.339 -36.165)" fill="#9c0016"></path><path id="Path_384" data-name="Path 384" d="M-505.066,52.35a.718.718,0,0,0,.722-.705.717.717,0,0,0-.589-.819.717.717,0,0,0-.722.7.718.718,0,0,0,.589.82Z" transform="translate(574.339 -36.165)" fill="none" stroke="#633321" stroke-width="0.221"></path><path id="Path_385" data-name="Path 385" d="M-507.393,54.129a2.116,2.116,0,0,0-.554-.258c-.248-.04-.129-.182-.049-.145s.285.136.552.261c.134.062.2.214.05.143Z" transform="translate(575.518 -37.566)" fill="#9e4919"></path><path id="Path_386" data-name="Path 386" d="M-507.393,54.129a2.116,2.116,0,0,0-.554-.258c-.248-.04-.129-.182-.049-.145s.285.136.552.261c.134.062.2.214.05.143Z" transform="translate(575.518 -37.566)" fill="none" stroke="#633321" stroke-width="0.221"></path><path id="Path_387" data-name="Path 387" d="M-508.764,53.118a.718.718,0,0,0-.583-.824.717.717,0,0,0-.9.453.717.717,0,0,0,.583.823.718.718,0,0,0,.9-.453Z" transform="translate(576.568 -36.864)" fill="#9c0016"></path><path id="Path_388" data-name="Path 388" d="M-508.764,53.118a.718.718,0,0,0-.583-.824.717.717,0,0,0-.9.453.717.717,0,0,0,.583.823.718.718,0,0,0,.9-.453Z" transform="translate(576.568 -36.864)" fill="none" stroke="#633321" stroke-width="0.221"></path><path id="Path_389" data-name="Path 389" d="M-506.558,53.561a2.09,2.09,0,0,0-.219-.571c-.151-.2.034-.221.066-.138s.11.3.216.571c.053.138,0,.294-.064.137Z" transform="translate(574.909 -37.125)" fill="#9e4919"></path><path id="Path_390" data-name="Path 390" d="M-506.558,53.561a2.09,2.09,0,0,0-.219-.571c-.151-.2.034-.221.066-.138s.11.3.216.571c.053.138,0,.294-.064.137Z" transform="translate(574.909 -37.125)" fill="none" stroke="#633321" stroke-width="0.221"></path><path id="Path_391" data-name="Path 391" d="M-507.27,51.775a.718.718,0,0,0-.076-1.006.717.717,0,0,0-1.006-.076.717.717,0,0,0,.076,1.006.718.718,0,0,0,1.006.076Z" transform="translate(575.726 -36.019)" fill="#9c0016"></path><path id="Path_392" data-name="Path 392" d="M-507.27,51.775a.718.718,0,0,0-.076-1.006.717.717,0,0,0-1.006-.076.717.717,0,0,0,.076,1.006.718.718,0,0,0,1.006.076Z" transform="translate(575.726 -36.019)" fill="none" stroke="#633321" stroke-width="0.221"></path><path id="Path_393" data-name="Path 393" d="M-599.118,112.324s5.119-3.437,5.378-7.7" transform="translate(619.545 -62.187)" fill="none" stroke="#633321" stroke-linejoin="round" stroke-width="0.295"></path><line id="Line_51" data-name="Line 51" y1="2.527" x2="3.521" transform="translate(16.366 24.863)" fill="none" stroke="#633321" stroke-linecap="round" stroke-linejoin="round" stroke-width="0.295"></line></g></g></svg> 