<?xml version="1.0" encoding="UTF-8"?> <svg xmlns="http://www.w3.org/2000/svg" xmlns:xlink="http://www.w3.org/1999/xlink" width="261.639" height="89.993" viewBox="0 0 261.639 89.993"><defs><clipPath id="clip-path"><path id="Path_6162" data-name="Path 6162" d="M37.619,47.2c.19-.213.4-.182.568-.436a26.739,26.739,0,0,0,2.707-4.628s-2.707-1.048-6.374,1.31-3.768,8.819-4.279,4.89c0,0,2.794-7.247,4.541-7.509s3.318,2.03,7.421-.076,4.977-2.456,3.842-2.805-3.318-2.314-7.509-.611c0,0-4.89,3.492-2.183.524s4.163-4.1,5.239-4.017,2.707,1.834,3.492,2.008,5.937-1.615,5.937-1.615a4.776,4.776,0,0,0-2.232-1.8l-.038.1.008-.112a5.253,5.253,0,0,0-2.366-.324c-3.23.262-1.834.611-3.056.96s-1.572-.237.261-1.057,3.93-1.911,3.93-1.911l1.31,1.223-.079,1.11.03.012.224-.6.524-.175.7.7.524-.175-.786-.524-.262-.48.349-.393,1.135.087-.612-.437-1.31.306-.873-.748a4.91,4.91,0,0,1,3.23-1.434,1.5,1.5,0,0,1,.524.916c.175.7.524.612.524.612l.262-.175-.524-.786a3.146,3.146,0,0,1,.961.349c.437.262.349-.349.349-.349l-1.048-.647s-.436-.226.7-.488,1.31-.075,1.31-.075l.437.512.477.262-.477-.915,1.135-.035,0-.49h-1.4l-.873.306-1.31.175-.524-.044.524-1-1.135-.035.175,1.17S48.4,29.165,48.14,29.3s-.087-1.572-.087-1.572l.96-.48H48.14v-1.31h-.349l-.088,1.31-.873-.393,0,.286.521.543.175,1.615s-6.508,3.929-5.5,2.1,3.929-3.318,1.4-9.343c0,0-3.754,2.619-3.493,6.374s1.659,3.929.437,4.715S35.305,37.5,35.305,37.5s-2.794,3.274-.873-.218c0,0,2.008-1.092,2.183-4.409A16.126,16.126,0,0,0,35.48,26.5s-4.1,4.366-3.754,8.164,2.183,3.885.7,6.33l-2.693,5.937s-.974,4.759-1.236,1.7c0,0,3.667-6.985-2.1-14.843,0,0-2.881,3.972-2.707,7.858A11.982,11.982,0,0,0,25.7,48.243c.524.83,3.056,2.794,2.794,5.632s.524,4.322.524,5.282,1.048,5.152-.437,1.572-.961-3.929-5.239-8.12l-5.763-3.492s-.873,8.644,6.2,12.486c0,0,6.723,2.968,7.072,5.806a21.562,21.562,0,0,0,1.4,3.274c.611.961,3.037,3.539,1.641,3.277-.884-.166-1.7-1.266-2.139-2.314S27.1,65.619,20.069,64.571a7.661,7.661,0,0,0,2.4,7.072,11.277,11.277,0,0,0,9.779,3.492c3.056-.262,3.552.961,4.1,1.572a32.836,32.836,0,0,0,3.318,3.056c.523.306,3.929,2.27,1.571,2.1s-1.659-1.048-3.579-2.226-3.143-3.1-9.867-1.877c-2.23.405-3.361.618-3.9.717.568,1,5.424,6.662,10.708,6.268,5.85-.436,6.374-1.484,6.374-1.484l3.754-.262,7.421,5.479L56,88.407s-8.906-5.719-9.692-5.937a2.757,2.757,0,0,1-1.572-4.278c1.551-2.707,3.667-7.727-1.135-13.184a8,8,0,0,0-.057-5.676,10.555,10.555,0,0,0-3.871,2.183c-1.135,1.31-4.192,3.231-4.366,7.247,0,0,.632,2.9-.077,3.885s-4.376-6.418-3.678-7.727A18.015,18.015,0,0,1,34.345,61.3c.262-.131,5.894-5.134,3.274-14.145m.655,25.5,1.135,1.335s1.659,3.293,2.357,3.6,1.54,1.921.785,2.1-2.352-1.135-2.794-1.354-4.016-4.409-4.016-4.409l2.532-1.266M34.117,49.7c-2.472,2.662-3.419,7.99-2.916,10.421.524,2.532-.349,3.188-.349,3.188s-2.1-10.086-.35-11.832A10.349,10.349,0,0,1,34.117,49.7" transform="translate(-17.546 -22.049)" fill="none"></path></clipPath><clipPath id="clip-path-2"><path id="Path_6203" data-name="Path 6203" d="M145.913,49.378,144.876,47.9a2.681,2.681,0,0,0-1.474-1.91c-2.074-1.255-4.475.982-4.475.982-3.6-.437-4.42,2.947-5.075,2.4s.327-2.019.327-2.019l2.183-2.565a5.524,5.524,0,0,0,.819-3.711,4.409,4.409,0,0,0-.305-2.565l-.077-1.2a4.432,4.432,0,0,0-1.528-2.565,3.114,3.114,0,0,0-1.365-2.183,10.613,10.613,0,0,0-1.091-1.146c-.328-.328.054-.382.054-.382-1.036-.055-1.474,2.4-1.474,2.947s-.109,1.637-.709,2.019-.109,1.855-.109,1.855l.109,1.528a1.911,1.911,0,0,0,.819,2.019,3.82,3.82,0,0,0,1.528,2.947c.491.655.873,3.056.054,3.274-.569.152-1.1-.976-1.1-.946L132,46.7s.312.322.315.309a13.5,13.5,0,0,1-1.843-3.255,15.375,15.375,0,0,0-2.4-3.711s.218-1.91.327-2.183a11.1,11.1,0,0,0,.546-2.565c.109-1.2-.218-.982-.273-2.183a5.118,5.118,0,0,0-1.2-2.51A5.814,5.814,0,0,1,126.1,29.35c-.382-.6-.873-.328-1.474-.928a2.9,2.9,0,0,0-1.375-.742l-1.048-.524.35.961.174,1.135a8.045,8.045,0,0,0,.175,2.27c.262.786.349,1.135.349,1.135-.349.088.873,1.921,1.048,2.969s-.262.524-.262.524-5.151-3.8-5.064-4.1a2.821,2.821,0,0,0-.262-1.4,2.959,2.959,0,0,1-.873-2.183c-.175-1.834-.873-1.31-1.746-2.226a4.242,4.242,0,0,0-2.27-1.092,8.713,8.713,0,0,0-3.667-.611c.175,1.79,1.31,1.834,1.31,2.794a2.036,2.036,0,0,0,.786,1.528s1.4.568.524.83-.174.262-.174.262c1.135.655.436.873-.088.786s-.764-.786-.764-.786c-.327-1.965-1.965-1.387-1.965-1.387-.982-1.059-2.619.077-2.619.077a2.947,2.947,0,0,0-1.965,1.2c-3.492,2.51-1.419,2.947-1.419,2.947l3.165-.218,2.292-.437c2.4.219,2.728-1.455,2.728-1.455,1.092,1.383,1.746.077,1.746.077l.655.069,3.929,1.965,1.636.981a9.749,9.749,0,0,1,1.462.723c4.675,4.5.054.055.054.055l-1.516-.777a8.241,8.241,0,0,0-1.854-.053c-2.491-.818-2.838.272-2.838.272-2.183-.687-1.31.655-3.165.764s.109,1.092.655,1.528,1.2.873,1.2.873c0,.982,1.746,1.31,1.746,1.31.437,1.637,3.383,1.637,3.711,1.419s2.947.109,3.711-.109,1.528-.873,2.292-.764a5.35,5.35,0,0,1,1.965,1.334l1.092,1.176s1.528,2.074.982,2.292-2.074-1.855-2.074-1.855c-3.165-2.838-4.8-.873-4.8-.873-2.4-.437-3.056,2.728-3.056,2.728l-1.528,1.669c-1.092,2.215,3.056,2.26,3.056,2.26,1.419.983,2.074.328,3.056.328a3.913,3.913,0,0,0,2.074-.983s1.419-.873,2.074-1.2a7.379,7.379,0,0,1,2.292-.327l.764,1.2.219.873s2.4,5.785,1.528,5.785-1.528-.655-1.637-2.292-1.965-1.31-1.965-1.31L127.9,48.653h-1.855s1.31,6.246,1.855,6.837,2.619-.513,2.619-.513l1.2.077c1.746,0,.437,0,1.605,1.168s-.077,1.888-.077,2.761-.873,5.894-.873,5.894c-1.092,1.419-.437-.392-1.855-3.6s-2.074-2.183-4.147-3.225-2.51.06-2.51.06-1.637,1.31-2.728.983-2.292.982-2.292.982l.746,1.493.127.254a9.156,9.156,0,0,0-.327,3.929c-1.746,2.292-.546,3.165-.546,3.165l-.109.873a4.086,4.086,0,0,0,2.074,4.475s.328,1.746,1.2,2.292,1.528,2.292,1.2,2.947S107.276,89,107.276,89l.328.764h4.038v-.873c0-.394,7.913-5.185,7.913-5.185,1.037-.6,3,.764,3,.764l1.255,1.255a6.4,6.4,0,0,0,5.075.382c2.292.218,2.619-.655,2.783-.928s.983-.6.983-.6c2.183-.327,2.292-1.8,2.346-2.183s1.31-.928,1.31-.928c2.019-1.146,2.4-4.038,2.4-4.038.055-.928-.218-.437-.218-.437l-3.656.819c-.819-.382-2.4.273-2.4.273L132,78.027c-1.583-.491-3.493.873-3.493.873s-1.528.382-2.183.6a2.292,2.292,0,0,0-1.092,1.965c0,.655-.928,1.037-2.074,1.255a1.494,1.494,0,0,1-1.583-.436l3.984-2.947,2.074-1.855a24.22,24.22,0,0,0,1.8-2.292,5.736,5.736,0,0,1,2.51-1.855,4.278,4.278,0,0,1,3.11-.382,3.137,3.137,0,0,0,2.783-.928,6.022,6.022,0,0,1,1.528-.819l.982-.546c.437-.163,1.2-1.855,1.692-2.292s1.037-1.092,1.037-1.474a4.692,4.692,0,0,1,.873-2.411c.545-.5.382-1.3-.11-2.664s-1.473-1.255-2.346-1.092-2.128.819-3.71.273S135,62.038,135,62.038c-.983,1.364-1.2,1.255-1.2,1.255a28.776,28.776,0,0,1,.546-3.056,3.14,3.14,0,0,1,2.074-1.364,8.551,8.551,0,0,0,2.292-1.364c2.074-.873,2.128-3.765,2.456-4.42a5.817,5.817,0,0,0,.437-2.347,7.862,7.862,0,0,0-.492-2.456s-.163-.109.873-.109a4.54,4.54,0,0,1,1.746.327,10,10,0,0,0,1.528,1.037.539.539,0,0,0,.655-.163ZM131.506,68.368l-2.074,4.366a16.477,16.477,0,0,1-4.578,5.453c-.007.021-.009.025-.006,0l.006,0c.077-.252.813-3.27.813-3.27l.928-1.528c.764-.655,0-3.22,0-3.22-.164-1.474-.655-1.8-.655-1.8a14.844,14.844,0,0,0-.71-2.292l1.255-.191,1.419.191,1.474.11,1.146-.219.655.492c.819.491.328,1.91.328,1.91Zm-13.228-36.8-.174.174-.743-.393h.568l.349.219Zm6.885,6.494a3.225,3.225,0,0,1-1.209-.1l-.428-1.4s1.58,1.524,1.637,1.494Z" transform="translate(-103.173 -24.533)" fill="none"></path></clipPath><clipPath id="clip-path-3"><path id="Path_6236" data-name="Path 6236" d="M95.529,95.23l2.458-.875s3.927-1.767,4.426-4.864a3.247,3.247,0,0,1-1.848,1.1s-1.193,2.514-5.349,3.848l.383.371-.069.419Z" transform="translate(-95.215 -89.491)" fill="none"></path></clipPath><clipPath id="clip-path-4"><path id="Path_6242" data-name="Path 6242" d="M98.142,95.23l-2.458-.875s-3.927-1.767-4.426-4.864a3.247,3.247,0,0,0,1.848,1.1s1.194,2.514,5.349,3.848l-.383.371.069.419Z" transform="translate(-91.258 -89.491)" fill="none"></path></clipPath></defs><g id="Group_1756" data-name="Group 1756" transform="translate(-17.379 -15.767)"><rect id="Rectangle_1103" data-name="Rectangle 1103" width="1.095" height="89.993" transform="translate(114.967 15.767)" fill="#11182f"></rect><g id="Group_1752" data-name="Group 1752" transform="translate(17.546 19.045)"><path id="Path_6140" data-name="Path 6140" d="M102.431,66.389a27.5,27.5,0,1,0-27.5,27.5,27.5,27.5,0,0,0,27.5-27.5Zm-2.4,0a25.1,25.1,0,1,1-25.1-25.1,25.1,25.1,0,0,1,25.1,25.1Z" transform="translate(-31.834 -30.1)" fill="#9e4919"></path><path id="Path_6141" data-name="Path 6141" d="M76.665,93.734A25.607,25.607,0,1,0,51.058,68.127,25.607,25.607,0,0,0,76.665,93.734Z" transform="translate(-33.572 -31.838)" fill="#203c6e"></path><path id="Path_6142" data-name="Path 6142" d="M102.023,62.663,85.06,62.23l-5.654-16-5.655,16-16.962.434L70.257,72.985,65.428,89.251l13.978-9.62,13.978,9.62L88.555,72.985l13.468-10.322Zm-2.59.83-11.927,9.14,4.277,14.4L79.406,78.519,67.028,87.037l4.277-14.4-11.926-9.14,15.02-.384,5.007-14.167,5.007,14.167,15.021.384Z" transform="translate(-36.313 -33.613)" fill="#9e4919"></path><path id="Path_6143" data-name="Path 6143" d="M81.779,51.428,76.772,65.594l-15.021.384,11.926,9.14L69.4,89.522,81.779,81l12.378,8.518-4.276-14.4,11.926-9.14-15.021-.384L81.779,51.428Z" transform="translate(-38.686 -36.098)" fill="#fff"></path><path id="Path_6144" data-name="Path 6144" d="M101.242,64.3H74.329c-.623,18.281,9.964,27.154,13.347,27.154S101.755,82.58,101.242,64.3Zm-13.5,26.215c-3.165,0-13.066-8.408-12.484-25.506h25.172c.481,17.1-9.523,25.506-12.688,25.506Z" transform="translate(-44.688 -42.253)" fill="#e59800"></path><path id="Path_6145" data-name="Path 6145" d="M75.328,65.2c-.6,17.573,9.578,26.215,12.831,26.215S101.693,82.772,101.2,65.2H75.328Z" transform="translate(-45.166 -42.684)" fill="#161615"></path><path id="Path_6146" data-name="Path 6146" d="M100.134,71.382" transform="translate(-57.04 -45.64)" fill="none" stroke="#161615" stroke-width="0.295"></path><path id="Path_6147" data-name="Path 6147" d="M100.878,74.044H99.161V73.28l-2.019-.327-.011-.546-.643,0A2.774,2.774,0,0,1,95.4,71.1a4.6,4.6,0,0,1-6.852,0,2.771,2.771,0,0,1-1.091,1.308l-.644,0-.011.546-2.128.327v.764h-1.6c-.313,13.26,6.906,16.48,8.964,16.48s8.84-3.929,8.84-16.48Zm-.6.455c0,11.707-6.336,15.373-8.246,15.373s-8.653-3-8.361-15.373h1.49v-.713l1.985-.305.01-.509.6,0a1.7,1.7,0,0,0,.8-1,5.43,5.43,0,0,0,6.828,0,1.7,1.7,0,0,0,.8,1l.6,0,.01.509,1.884.305V74.5Z" transform="translate(-48.877 -45.504)" fill="#e59800"></path><path id="Path_6148" data-name="Path 6148" d="M99.243,75.03v-.723L97.332,74l-.011-.517-.5,0a1.744,1.744,0,0,1-.923-1.017,5.512,5.512,0,0,1-6.93,0,1.744,1.744,0,0,1-.923,1.017l-.5,0-.01.517-2.015.31v.723H84.011c-.3,12.555,6.538,15.6,8.486,15.6s8.37-3.72,8.37-15.6Z" transform="translate(-49.326 -46.157)" fill="#9c0016"></path><path id="Path_6149" data-name="Path 6149" d="M37.619,47.2c.19-.213.4-.182.568-.436a26.739,26.739,0,0,0,2.707-4.628s-2.707-1.048-6.374,1.31-3.768,8.819-4.279,4.89c0,0,2.794-7.247,4.541-7.509s3.318,2.03,7.421-.076,4.977-2.456,3.842-2.805-3.318-2.314-7.509-.611c0,0-4.89,3.492-2.183.524s4.163-4.1,5.239-4.017,2.707,1.834,3.492,2.008,5.937-1.615,5.937-1.615a4.776,4.776,0,0,0-2.232-1.8l-.038.1.008-.112a5.253,5.253,0,0,0-2.366-.324c-3.23.262-1.834.611-3.056.96s-1.572-.237.261-1.057,3.93-1.911,3.93-1.911l1.31,1.223-.079,1.11.03.012.224-.6.524-.175.7.7.524-.175-.786-.524-.262-.48.349-.393,1.135.087-.612-.437-1.31.306-.873-.748a4.91,4.91,0,0,1,3.23-1.434,1.5,1.5,0,0,1,.524.916c.175.7.524.612.524.612l.262-.175-.524-.786a3.146,3.146,0,0,1,.961.349c.437.262.349-.349.349-.349l-1.048-.647s-.436-.226.7-.488,1.31-.075,1.31-.075l.437.512.477.262-.477-.915,1.135-.035,0-.49h-1.4l-.873.306-1.31.175-.524-.044.524-1-1.135-.035.175,1.17S48.4,29.165,48.14,29.3s-.087-1.572-.087-1.572l.96-.48H48.14v-1.31h-.349l-.088,1.31-.873-.393,0,.286.521.543.175,1.615s-6.508,3.929-5.5,2.1,3.929-3.318,1.4-9.343c0,0-3.754,2.619-3.493,6.374s1.659,3.929.437,4.715S35.305,37.5,35.305,37.5s-2.794,3.274-.873-.218c0,0,2.008-1.092,2.183-4.409A16.126,16.126,0,0,0,35.48,26.5s-4.1,4.366-3.754,8.164,2.183,3.885.7,6.33l-2.693,5.937s-.974,4.759-1.236,1.7c0,0,3.667-6.985-2.1-14.843,0,0-2.881,3.972-2.707,7.858A11.982,11.982,0,0,0,25.7,48.243c.524.83,3.056,2.794,2.794,5.632s.524,4.322.524,5.282,1.048,5.152-.437,1.572-.961-3.929-5.239-8.12l-5.763-3.492s-.873,8.644,6.2,12.486c0,0,6.723,2.968,7.072,5.806a21.562,21.562,0,0,0,1.4,3.274c.611.961,3.037,3.539,1.641,3.277-.884-.166-1.7-1.266-2.139-2.314S27.1,65.619,20.069,64.571a7.661,7.661,0,0,0,2.4,7.072,11.277,11.277,0,0,0,9.779,3.492c3.056-.262,3.552.961,4.1,1.572a32.836,32.836,0,0,0,3.318,3.056c.523.306,3.929,2.27,1.571,2.1s-1.659-1.048-3.579-2.226-3.143-3.1-9.867-1.877c-2.23.405-3.361.618-3.9.717.568,1,5.424,6.662,10.708,6.268,5.85-.436,6.374-1.484,6.374-1.484l3.754-.262,7.421,5.479L56,88.407s-8.906-5.719-9.692-5.937a2.757,2.757,0,0,1-1.572-4.278c1.551-2.707,3.667-7.727-1.135-13.184a8,8,0,0,0-.057-5.676,10.555,10.555,0,0,0-3.871,2.183c-1.135,1.31-4.192,3.231-4.366,7.247,0,0,.632,2.9-.077,3.885s-4.376-6.418-3.678-7.727A18.015,18.015,0,0,1,34.345,61.3c.262-.131,5.894-5.134,3.274-14.145m.655,25.5,1.135,1.335s1.659,3.293,2.357,3.6,1.54,1.921.785,2.1-2.352-1.135-2.794-1.354-4.016-4.409-4.016-4.409l2.532-1.266M34.117,49.7c-2.472,2.662-3.419,7.99-2.916,10.421.524,2.532-.349,3.188-.349,3.188s-2.1-10.086-.35-11.832A10.349,10.349,0,0,1,34.117,49.7" transform="translate(-17.546 -22.049)" fill="#e59800"></path><g id="Group_1742" data-name="Group 1742"><g id="Group_1741" data-name="Group 1741" clip-path="url(#clip-path)"><path id="Path_6150" data-name="Path 6150" d="M34.334,112.366a4.386,4.386,0,0,1-2.013-4.017l-.219-.742-.174.378a19.413,19.413,0,0,0,.393,2.853H32.06l-2.445-1.7-.524-3.449-.393-.219.481,3.318-.437-.087-1.223-.917s-.742-2.532-1.135-3.624-.48-.218-.48-.218l.48,1.484s.742,2.183.393,2.183a8.931,8.931,0,0,1-2.357-1.484c-.218-.262-.087-1.048-.087-1.048s-.568-1.048-.35-1.4-.262-.611-.262-.611H23.5a4.542,4.542,0,0,1,.174.742,4.778,4.778,0,0,0,.219.829s.306,1.659-.524.568a6.927,6.927,0,0,1-1.31-2.445c0-.262-.35-.393-.35-.393s1.092,3.405,3.406,4.715l.141.08c-.055.014-.114.03-.185.051-.873.262-3.392-.961-3.392-.961s-.008-.567,0,.219,3.043,1.152,3.7,1.152c.374,0,.573-.005.679-.01,1.181.663,1.973,1.1,2.346,1.3l-.081,0c-1.422.945-5.3.393-5.3.393s-2.532-.655.305.179a9.319,9.319,0,0,0,5.545-.286l2.3,1.634h-.03c-.83.917-5.5.83-5.5.83s-.186.325.584.325,2.1-.019,2.722-.019a5.823,5.823,0,0,0,2.457-.725,2.1,2.1,0,0,0,.184-.115l1.43,1.015.437.35s-2.488.567-3.361.829.873.262.873.262a7.149,7.149,0,0,1,3.361-.567c1.266.305.228-.524,0-.655Z" transform="translate(-19.523 -60.458)" fill="#633321"></path><path id="Path_6151" data-name="Path 6151" d="M59.269,112.145s2.532,3.929,2.838,4.584a4.17,4.17,0,0,1,.611,1.965c0,.83.524,2.445.742,1.79a12.554,12.554,0,0,1,.612-2.314c.305-.393.742-1.775,1.222-1.775L66.6,115.2l.013-.393a11.786,11.786,0,0,0-2.414,2.226c-.568.917-.306,1.354-.568,1.4s-.612-.757-.393-1.4,2.532-5.5,3.143-5.719.087-1.379-.175-.7-3.056,4.54-3.056,4.54-.612-3.929,1.222-6.374l.917-2.008-.262-.349a46.825,46.825,0,0,0-2.061,4.758,5.285,5.285,0,0,0-.69-2.357l-.349.35s1,1.615.48,2.663c0,0-.305.306-.96-1.266l-.088-.349-.305.305a5.429,5.429,0,0,0,1.135,1.921l.262.087a24.188,24.188,0,0,0,0,3.143l.044.655s-.175.655-.437-.305a18.479,18.479,0,0,0-2.183-3.711.568.568,0,0,0-.612-.175Z" transform="translate(-37.499 -62.399)" fill="#633321"></path><path id="Path_6152" data-name="Path 6152" d="M53.324,105.33s-.786,1.266.044.7c0,0,.131-.709.786-.709s1.135-.47,1.572-.513a7.158,7.158,0,0,0,1.725-.786,9.986,9.986,0,0,0,.75-.957l.24-.262s.327-.262-.583.655a3.633,3.633,0,0,1-1.066.723,1.429,1.429,0,0,1-.585.147l-1.7.283.262-1.025s-.131-.561.742-.561a11.223,11.223,0,0,0,2.4-.465,1.594,1.594,0,0,0,1.484-.939c.35-.961,0,.175-.611.349s-1.7.35-1.7.35-2.139.567-1.659-.088,1.4-2.357,1.4-2.357,2.838.044,3.754-1.266l-.1.047V98.2a1.361,1.361,0,0,1-.685.673,8.911,8.911,0,0,1-1.222.524l-1.4.044,1.572-2.183s1.464-.786,1.649-1.179a4.492,4.492,0,0,1,.8-.96l.436-.437-.349-.014-.349-.019L59.96,95.9s-1,.655-.087-.524.655-1.048.655-1.048l.349-1.222.044-.917-.534-.7a2.844,2.844,0,0,1,.185,1c0,.567.2.261-.185,1.266a8.94,8.94,0,0,1-.863,1.7s-.349-2.183,0-2.663-.611-.393-.524,1.441.131,1.659.131,1.659l-1.31,1.746a4.049,4.049,0,0,1-.5-3.318v-.567a1.934,1.934,0,0,0-.456,1.921c.305,1.266.456,2.226.456,2.226v.437l-.98,1.179a3.842,3.842,0,0,1-.829-3.623c.611-2.183-.044-.961-.219.043a4.966,4.966,0,0,0,.393,3.231c.524.7.481.48.306.916s-1.572,2.882-1.572,2.882l-.131-1.179s-1-2.751-.655-3.187-.087-.961-.087-.961l-.574.612-.014.917a6.643,6.643,0,0,1,.458,1.222,12.137,12.137,0,0,1,.425,2.576,6.878,6.878,0,0,1-.294,1.79,2.091,2.091,0,0,1-.219.568Z" transform="translate(-34.479 -55.257)" fill="#633321"></path><path id="Path_6153" data-name="Path 6153" d="M27.908,86.876a7.438,7.438,0,0,1-1-1.223l.262-4.234-.305-.743-.219,1.048-.305,2.794-1.484-1.4a16.494,16.494,0,0,0,.175-4.759c-.35-1.921-.262-1.31-.262.349s.131,4.759-.655,3.449l-1.179-1.4.218-4.322-.437-.219.044.743-.175,3.056a10.664,10.664,0,0,0-1.484-2.1s-.349-2.357-.523-3.23-.262-.087-.262-.087a14.361,14.361,0,0,1,.131,1.921c-.044.568-.044.655-.044.655s-3.274-3.056-3.012-4.409-.7-.568-.7-.568a29.977,29.977,0,0,0,1.947,3.755h-.027c-.62,0-1.944-1.572-1.944-1.572s-.326-.261.154.612A5.044,5.044,0,0,0,19.031,76.5a2.5,2.5,0,0,0,.2.208,25.272,25.272,0,0,1,2.271,2.32c-2.131.541-4.485-1.186-4.485-1.186l.283.393c1.284,1.445,3.889,1.216,4.442,1.15.195.345.84,1.428,1.447,2.4-1.079.578-4.492-.45-4.492-.45l.131.321a7.239,7.239,0,0,0,4.531.4,10.652,10.652,0,0,0,1.014,1.463,12.48,12.48,0,0,1,.869.917,16.268,16.268,0,0,1-4.1-.262s-.395.131.216.437a15.16,15.16,0,0,0,3.668.262.694.694,0,0,0,.472-.149c.981,1.1,2.234,2.551,2.234,2.551s.7.086.175-.394Z" transform="translate(-17.073 -45.927)" fill="#633321"></path><path id="Path_6154" data-name="Path 6154" d="M51.016,72.091l-.226-.244-1.4,1.223.925-2.594s-.084-.779-.466.405a19.744,19.744,0,0,1-.721,1.927l-1.04,2.273A14.265,14.265,0,0,0,47.872,72c-.028-.106-.033.186-.131.065s-.139.062-.139.062L47.69,75.6l-.655,1.921s-1.528-2.1-.961-3.754l-.262-.131s-.456,2.941.873,4.278l-.175,1.135-.64,1.877-.058-.044a12.378,12.378,0,0,1-1.765-3.8l.019.219s.273,3.536,1.577,3.973c.067.022.123.039.177.055l-.009.091-.169.377a7.774,7.774,0,0,0-.312.873c-.057.265-.173.917-.173.917l-.264.96s-.478,1.659.458.306a9.306,9.306,0,0,0,.11-1.179c-.014-.367-.093-.524.367-.655a14.316,14.316,0,0,0,1.467-.611,5.744,5.744,0,0,1,1.746-.7,1.858,1.858,0,0,0,.96-.3l-.742-.016a4.6,4.6,0,0,0-1.853.576c-.9.524-1.946.986-1.6.2.088-.2.142-.611.23-.895s.262-.24.349-.5,0-.852.415-.961,4.379-1.941,4.423-2.339-.262,0-.262,0-3.973,2.665-3.8,1.53L48,76.868a13.787,13.787,0,0,0,3.248-1.79l-.016-.521-.576.39a13.623,13.623,0,0,1-2.291,1.179c-.353,0,0-.568,0-.568l.763-1.746a9.132,9.132,0,0,1,1.383-1.153c.611-.5.5-.568.5-.568Z" transform="translate(-30.219 -45.087)" fill="#633321"></path><path id="Path_6155" data-name="Path 6155" d="M32.025,53.412l2.532-3.274-.044-.611L31.938,52.8l-.153-2.4A4.775,4.775,0,0,0,33.7,47.082l-.282-.742a4.179,4.179,0,0,1-1.746,3.6l.131-5.916-.088-.393-.611.306.167,4.666c-1.04-.66-1.084-2.745-1.084-2.745s-.262.262-.175,1.179a4.018,4.018,0,0,0,1.272,1.937l.108,3.012c-.213.031-1.022.109-1.205-.5a6.445,6.445,0,0,0-1.223-1.7c-.174-.262-.421.611-.218.7s.393-.095.961.7,1.048,1.266,1.528,1.266a.4.4,0,0,0,.173-.032l.122,3.387a11.6,11.6,0,0,1-2.7-2.394c-.524-.941-.567.131-.567.131L29.9,54.9s1.478,1.18,1.642,1.219l.007.2.713,3.075s.262,1.594.742.633a8.9,8.9,0,0,0-.2-1.6c-.148-.428-.694-1.17,1.1-3.527l1.179-1.266.014-.742A27.727,27.727,0,0,0,32.549,56.6s-.568.131-.437-1.7l-.087-1.484Z" transform="translate(-22.675 -32.371)" fill="#633321"></path><path id="Path_6156" data-name="Path 6156" d="M43.585,67.847a.408.408,0,0,0,.557-.162,10.715,10.715,0,0,1,2.226-1.537c.568-.428,1.266-.015,1.659-.015a3.706,3.706,0,0,0,.961-.2l.445-.3-2.314-.065s-.284-.044.079-.349c.181-.152.859-1.026.859-1.026s3.2-.353,3.637-.44a2.854,2.854,0,0,0,.917-.437l-.742-.016s-1.012.187-1.441.278-1.618.559-1.965.131,1.121-1.044,1.361-1.175a5.854,5.854,0,0,0,.721-.568l1.978-.134,1.048-.019v-.5l-.909.09-1.724.241a12.112,12.112,0,0,1,2.653-1.422c.679-.087,0-.306,0-.306l-1.026.437-.873.437s-.436-.708.35-.894-.568-.019-.568-.019-.427.713-.306,1.044c.074.2-.195.305-.195.305l-.678.306-.428.178s-.314-1.313.6-1.706-.393-.131-.393-.131a3.3,3.3,0,0,0-.437.786,8.283,8.283,0,0,0-.339,1.31,1.716,1.716,0,0,1-.229.611,4.48,4.48,0,0,0-1.048.917,2.748,2.748,0,0,1-.48.568,4.978,4.978,0,0,1,.48-2.794l.568-.917-.48.087a5.925,5.925,0,0,0-.961,1.965,10.82,10.82,0,0,0-.175,1.79l-.087.7-1.354,1.258-1.473,1.175s-.9.038-.481.524Z" transform="translate(-29.945 -40.095)" fill="#633321"></path><path id="Path_6157" data-name="Path 6157" d="M62.889,51.673l-.305-.368-1.048.019-1.888.126a.078.078,0,0,0,.011-.029,7.044,7.044,0,0,1,.961-1.145s.174-.174-.219-.174S59.3,51.24,59.3,51.24l-.122.242-1.842.064-.766.213c.29-.543,1.187-2.181,1.478-2.181.35,0-.305-.088-.305-.088s-1.273,1.842-1.618,2.416l-.215.072-2.022.44.371-.939.865-1.6c-.58.232-1.465,2.237-1.662,2.7l-2.879.708c-.349.219.134.306.219.262a4.245,4.245,0,0,1,.742,0c.087,0,.786.044.786.044l.83.48L54.2,54.6l.524.264.349-.077-.568-.274-.917-.524-1.048-.7,2.663-.577.873.534.674.349,1.2.437s1.048.087,1.135.087.175-.331.175-.331l-1.179-.018-1.135-.442-1.092-.693s.794-.288.892-.328l.535-.214L59.4,53.157l.83.15L57.55,51.873l.589-.11,3.921-.134.829.044Z" transform="translate(-33.283 -35.172)" fill="#633321"></path><path id="Path_6158" data-name="Path 6158" d="M44.584,35.41s.568,2.794,1.7,3.842l-.131,1.615s-.266.437.151.35a.515.515,0,0,0,.46-.524c0-.13.019-1.135.019-1.135l.417-1.091s1.965-.917,2.357-1.834.524-1,.524-1l.01-.327s-.96,2.335-2.45,2.466c0,0-.518.044,0-1.135l.431-1.833.306-.35.96-1.659.35-.306-.35-.349-.131.262-.786,1.4s-.436.306-.218-.437a6.187,6.187,0,0,0,.218-1.528l.306-2.226-.437-.611-.087,1.877v1.223s-.393.088-.349-.873-.393-.961-.393-.961l.043,1.266s-.087.785.393,1l-.131,1.4s-.262,1.18-.262,1.376.044,1.177-.349.589a6.219,6.219,0,0,1-.873-2.314,4.793,4.793,0,0,0-.262-1.223,3.411,3.411,0,0,0,.043,1.31,12.757,12.757,0,0,0,.743,2.357c.262.306.393.393.393.611a3.975,3.975,0,0,1-.131.7l-.131.743s0,.655-.437.742-1.79-2.707-1.79-3.318-.15-.2-.131-.087Z" transform="translate(-30.475 -25.369)" fill="#633321"></path><path id="Path_6159" data-name="Path 6159" d="M60.733,25.162s.175,3.274,1.31,3.579l-.131,1.746s-.087.786.35.131a2.109,2.109,0,0,0,.436-1l.019-1.135A5.012,5.012,0,0,0,65.1,26.6l.175-.306.017-.393-.184-.018s-.688,1.808-2.094,1.9l.253-2.139a5.43,5.43,0,0,0,1.659-2.357l.043-.48s-.524,1.441-1.4,1.834l.436-2.4.219-.786-.131-.742L63.7,22.15l-.131.48-.349-.873-.35.131.306.655a6.345,6.345,0,0,1,.174.742,22.562,22.562,0,0,1-.34,2.4s-.8.262-.839-1.615l-.131-1.048a3.357,3.357,0,0,0-.131,1.266c.088.568.35,1.615.612,1.746s.305.175.262.481a6.777,6.777,0,0,1-.35,1.571c-.174.306-.655.62-1.048-.694s-.655-2.231-.655-2.231Z" transform="translate(-38.199 -21.408)" fill="#633321"></path><path id="Path_6160" data-name="Path 6160" d="M68.534,42.7h-1.29s-.48-.368-.873-.174-.366.567.568.611,1.1-.019,1.383.265a3.318,3.318,0,0,1,.494,1.088l.48.393.305-.131-.611-.611-.188-.957.655.044,1.091.109-.159.455.871-.35.611-.261.48-.219-.262-.218L71,42.92,68.99,42.7a4.537,4.537,0,0,1,2.27-1.441c1.223-.2.349-.2.349-.2l-.655-.019A6.935,6.935,0,0,0,68.534,42.7Z" transform="translate(-40.78 -31.134)" fill="#633321"></path><path id="Path_6161" data-name="Path 6161" d="M45.3,132.465l-.76-.3,0,0-.946-1.048-.348-1.234-.919-.9-.48-.229.655.917a1.712,1.712,0,0,1,.614,1.007,1.93,1.93,0,0,0,.521.932c.2.163.465.391.617.525a2.842,2.842,0,0,1-1.4-.153c-.245-.135-.572-.286-.852-.41l-.589-.5L40.1,128.95,39.8,128.4l-.262-.655-.655-.349,2.357,3.929.028.009-.6.034-1.836-.256-.394-.042-2.522-3.718-.655-.306L37.875,131l.089.022-.6-.065-1.5-.136a8.81,8.81,0,0,0-1.921-.506c-.223-.126-.977-.434-1.274-.555a2.311,2.311,0,0,0-.693-1.184l-.391-.538-.306.014s1.266,1.222,1.092,1.615l.027.016a6.731,6.731,0,0,1-3.878-2.2,7.765,7.765,0,0,1,.795,1.218c.35.683,2.881,1.174,2.881,1.174a4.529,4.529,0,0,0,.576.292,8.618,8.618,0,0,1-2.628-.019s.175.53.437.53h.653c.609,0,.962.279,1.748,0a2.33,2.33,0,0,1,.891-.12,11.547,11.547,0,0,1,1.86.557c0,.093.52.166.944.209l-.638.4a3.077,3.077,0,0,1-1.659.655c-.743,0-2.041.019-2.041.019l.358.417,1.527.013a16.332,16.332,0,0,0,2.528-1.06l.432-.4.034,0,2.663.321.46.17c-.294.423-1.414,1.7-4.564,2.348l-1.7.306,1.834.13.262-.262s3.58-.748,4.453-2.4v-.014l.037.014.4.116.829.172.612.064.144.048-1.89,1.786-.742.612-.393.611.655-.218s.047-.655.154-.655S42.5,133.18,42.5,133.18l.686-.62.274.09,1.108.195.46.335s.309-.236.309-.335.262-.363.262-.363l-.305-.018Zm-16.808-5.02.034.042-.034-.042Zm7.072,3.208a6.159,6.159,0,0,0-2.183-2.98l-.461-.032s2.535,2.27,2.011,2.837l.633.175Z" transform="translate(-22.779 -72.262)" fill="#633321"></path></g></g><path id="Path_6163" data-name="Path 6163" d="M37.619,47.2c.19-.213.4-.182.568-.436a26.739,26.739,0,0,0,2.707-4.628s-2.707-1.048-6.374,1.31-3.768,8.819-4.279,4.89c0,0,2.794-7.247,4.541-7.509s3.318,2.03,7.421-.076,4.977-2.456,3.842-2.805-3.318-2.314-7.509-.611c0,0-4.89,3.492-2.183.524s4.163-4.1,5.239-4.017,2.707,1.834,3.492,2.008,5.937-1.615,5.937-1.615a4.776,4.776,0,0,0-2.232-1.8l-.038.1.008-.112a5.253,5.253,0,0,0-2.366-.324c-3.23.262-1.834.611-3.056.96s-1.572-.237.261-1.057,3.93-1.911,3.93-1.911l1.31,1.223-.079,1.11.03.012.224-.6.524-.175.7.7.524-.175-.786-.524-.262-.48.349-.393,1.135.087-.612-.437-1.31.306-.873-.748a4.91,4.91,0,0,1,3.23-1.434,1.5,1.5,0,0,1,.524.916c.175.7.524.612.524.612l.262-.175-.524-.786a3.146,3.146,0,0,1,.961.349c.437.262.349-.349.349-.349l-1.048-.647s-.436-.226.7-.488,1.31-.075,1.31-.075l.437.512.477.262-.477-.915,1.135-.035,0-.49h-1.4l-.873.306-1.31.175-.524-.044.524-1-1.135-.035.175,1.17S48.4,29.165,48.14,29.3s-.087-1.572-.087-1.572l.96-.48H48.14v-1.31h-.349l-.088,1.31-.873-.393,0,.286.521.543.175,1.615s-6.508,3.929-5.5,2.1,3.929-3.318,1.4-9.343c0,0-3.754,2.619-3.493,6.374s1.659,3.929.437,4.715S35.305,37.5,35.305,37.5s-2.794,3.274-.873-.218c0,0,2.008-1.092,2.183-4.409A16.126,16.126,0,0,0,35.48,26.5s-4.1,4.366-3.754,8.164,2.183,3.885.7,6.33l-2.693,5.937s-.974,4.759-1.236,1.7c0,0,3.667-6.985-2.1-14.843,0,0-2.881,3.972-2.707,7.858A11.982,11.982,0,0,0,25.7,48.243c.524.83,3.056,2.794,2.794,5.632s.524,4.322.524,5.282,1.048,5.152-.437,1.572-.961-3.929-5.239-8.12l-5.763-3.492s-.873,8.644,6.2,12.486c0,0,6.723,2.968,7.072,5.806a21.562,21.562,0,0,0,1.4,3.274c.611.961,3.037,3.539,1.641,3.277-.884-.166-1.7-1.266-2.139-2.314S27.1,65.619,20.069,64.571a7.661,7.661,0,0,0,2.4,7.072,11.277,11.277,0,0,0,9.779,3.492c3.056-.262,3.552.961,4.1,1.572a32.836,32.836,0,0,0,3.318,3.056c.523.306,3.929,2.27,1.571,2.1s-1.659-1.048-3.579-2.226-3.143-3.1-9.867-1.877c-2.23.405-3.361.618-3.9.717.568,1,5.424,6.662,10.708,6.268,5.85-.436,6.374-1.484,6.374-1.484l3.754-.262,7.421,5.479L56,88.407s-8.906-5.719-9.692-5.937a2.757,2.757,0,0,1-1.572-4.278c1.551-2.707,3.667-7.727-1.135-13.184a8,8,0,0,0-.057-5.676,10.555,10.555,0,0,0-3.871,2.183c-1.135,1.31-4.192,3.231-4.366,7.247,0,0,.632,2.9-.077,3.885s-4.376-6.418-3.678-7.727A18.015,18.015,0,0,1,34.345,61.3c.262-.131,5.894-5.134,3.274-14.145m.655,25.5,1.135,1.335s1.659,3.293,2.357,3.6,1.54,1.921.785,2.1-2.352-1.135-2.794-1.354-4.016-4.409-4.016-4.409l2.532-1.266M34.117,49.7c-2.472,2.662-3.419,7.99-2.916,10.421.524,2.532-.349,3.188-.349,3.188s-2.1-10.086-.35-11.832A10.349,10.349,0,0,1,34.117,49.7" transform="translate(-17.546 -22.049)" fill="none" stroke="#633321" stroke-width="0.295"></path><path id="Path_6164" data-name="Path 6164" d="M79.58,38l.35-.166a1.1,1.1,0,0,0,.4-.114c.166-.1.743-.471,1.205-.139,0,0,.183.157.3-.1s.1.472.088.637.115.454.006.5-.076.033-.109.131.011.208-.1.262-.12.055-.131.2-.055.043-.218,0-.35-.033-.35-.153-.126-.12-.2-.164a1.944,1.944,0,0,0-.24-.131c-.1-.044-.241.088-.241-.1s-.174-.066-.174-.218-.251-.175-.328-.175-.174-.175-.174-.175l-.109-.044" transform="translate(-47.201 -29.399)" fill="#9c0016"></path><path id="Path_6165" data-name="Path 6165" d="M79.58,38l.35-.166a1.1,1.1,0,0,0,.4-.114c.166-.1.743-.471,1.205-.139,0,0,.183.157.3-.1s.1.472.088.637.115.454.006.5-.076.033-.109.131.011.208-.1.262-.12.055-.131.2-.055.043-.218,0-.35-.033-.35-.153-.126-.12-.2-.164a1.944,1.944,0,0,0-.24-.131c-.1-.044-.241.088-.241-.1s-.174-.066-.174-.218-.251-.175-.328-.175-.174-.175-.174-.175l-.109-.044" transform="translate(-47.201 -29.399)" fill="none" stroke="#633321" stroke-width="0.221"></path><path id="Path_6166" data-name="Path 6166" d="M89.369,33.693l.381-.01a1.122,1.122,0,0,0,.388.175c.193.034.888.118,1.032.68,0,0,.04.243.3.113s-.234.431-.349.555-.207.43-.321.393-.081-.025-.171.031-.128.169-.248.14-.129-.036-.231.068-.071,0-.17-.143-.252-.255-.173-.348-.02-.176-.046-.257a1.9,1.9,0,0,0-.1-.259c-.048-.1-.245-.089-.123-.234s-.093-.165.007-.285-.081-.3-.141-.351-.022-.25-.022-.25l.029-.034" transform="translate(-51.892 -27.609)" fill="#9c0016"></path><path id="Path_6167" data-name="Path 6167" d="M89.369,33.693l.381-.01a1.122,1.122,0,0,0,.388.175c.193.034.888.118,1.032.68,0,0,.04.243.3.113s-.234.431-.349.555-.207.43-.321.393-.081-.025-.171.031-.128.169-.248.14-.129-.036-.231.068-.071,0-.17-.143-.252-.255-.173-.348-.02-.176-.046-.257a1.9,1.9,0,0,0-.1-.259c-.048-.1-.245-.089-.123-.234s-.093-.165.007-.285-.081-.3-.141-.351-.022-.25-.022-.25l.029-.034" transform="translate(-51.892 -27.609)" fill="none" stroke="#633321" stroke-width="0.221"></path><path id="Path_6168" data-name="Path 6168" d="M86,35.049l.377-.013a1.076,1.076,0,0,0,.4.054c.186-.021.846-.133,1.131.343,0,0,.1.212.306.022s-.1.459-.17.6-.073.45-.187.447-.081,0-.149.075-.07.189-.189.2-.128,0-.193.125-.066.018-.2-.085-.3-.165-.253-.272-.066-.157-.112-.223a1.814,1.814,0,0,0-.164-.21c-.071-.077-.248-.015-.176-.181s-.13-.126-.071-.263-.157-.254-.225-.283-.088-.224-.088-.224l-.092-.148" transform="translate(-50.256 -28.248)" fill="#9c0016"></path><path id="Path_6169" data-name="Path 6169" d="M86,35.049l.377-.013a1.076,1.076,0,0,0,.4.054c.186-.021.846-.133,1.131.343,0,0,.1.212.306.022s-.1.459-.17.6-.073.45-.187.447-.081,0-.149.075-.07.189-.189.2-.128,0-.193.125-.066.018-.2-.085-.3-.165-.253-.272-.066-.157-.112-.223a1.814,1.814,0,0,0-.164-.21c-.071-.077-.248-.015-.176-.181s-.13-.126-.071-.263-.157-.254-.225-.283-.088-.224-.088-.224l-.092-.148" transform="translate(-50.256 -28.248)" fill="none" stroke="#633321" stroke-width="0.221"></path><path id="Path_6170" data-name="Path 6170" d="M84.343,36.455l.365-.014a1.074,1.074,0,0,0,.371.167c.184.032.849.113.987.65,0,0,.039.232.288.108s-.224.412-.334.53-.2.412-.307.376-.077-.023-.163.03-.122.161-.237.134-.124-.034-.221.065-.068,0-.163-.137-.241-.243-.165-.333-.019-.169-.044-.245a1.816,1.816,0,0,0-.1-.248c-.046-.094-.234-.085-.118-.224s-.089-.158.006-.272-.078-.288-.135-.336-.021-.24-.021-.24l.028-.033" transform="translate(-49.489 -28.928)" fill="#9c0016"></path><path id="Path_6171" data-name="Path 6171" d="M84.343,36.455l.365-.014a1.074,1.074,0,0,0,.371.167c.184.032.849.113.987.65,0,0,.039.232.288.108s-.224.412-.334.53-.2.412-.307.376-.077-.023-.163.03-.122.161-.237.134-.124-.034-.221.065-.068,0-.163-.137-.241-.243-.165-.333-.019-.169-.044-.245a1.816,1.816,0,0,0-.1-.248c-.046-.094-.234-.085-.118-.224s-.089-.158.006-.272-.078-.288-.135-.336-.021-.24-.021-.24l.028-.033" transform="translate(-49.489 -28.928)" fill="none" stroke="#633321" stroke-width="0.221"></path><path id="Path_6172" data-name="Path 6172" d="M88.646,29.924l-.141-.3a1.18,1.18,0,0,0,.041-.445c-.032-.2-.187-.924.323-1.26,0,0,.227-.123.009-.337s.509.085.671.157.5.059.5.185,0,.089.089.16.212.069.224.2.009.141.147.207.022.071-.084.218-.167.337-.287.291-.169.08-.24.134a2.046,2.046,0,0,0-.223.19c-.081.081,0,.274-.19.2s-.133.15-.285.091-.271.184-.3.261-.242.107-.242.107l-.044-.017" transform="translate(-51.476 -24.657)" fill="#9c0016"></path><path id="Path_6173" data-name="Path 6173" d="M88.646,29.924l-.141-.3a1.18,1.18,0,0,0,.041-.445c-.032-.2-.187-.924.323-1.26,0,0,.227-.123.009-.337s.509.085.671.157.5.059.5.185,0,.089.089.16.212.069.224.2.009.141.147.207.022.071-.084.218-.167.337-.287.291-.169.08-.24.134a2.046,2.046,0,0,0-.223.19c-.081.081,0,.274-.19.2s-.133.15-.285.091-.271.184-.3.261-.242.107-.242.107l-.044-.017" transform="translate(-51.476 -24.657)" fill="none" stroke="#633321" stroke-linecap="round" stroke-width="0.221"></path><path id="Path_6174" data-name="Path 6174" d="M82.172,29.617l-.3-.246a1.328,1.328,0,0,0-.258-.433c-.164-.164-.782-.719-.54-1.362,0,0,.126-.262-.215-.313s.52-.259.716-.3.494-.277.579-.163.062.079.187.087.238-.078.336.033.1.123.27.091.068.05.068.254.071.417-.069.455-.1.185-.129.28a2.181,2.181,0,0,0-.078.321c-.02.128.177.253-.04.311s-.022.224-.2.272-.125.347-.1.436-.149.258-.149.258l-.051.014" transform="translate(-47.784 -24.306)" fill="#9c0016"></path><path id="Path_6175" data-name="Path 6175" d="M82.172,29.617l-.3-.246a1.328,1.328,0,0,0-.258-.433c-.164-.164-.782-.719-.54-1.362,0,0,.126-.262-.215-.313s.52-.259.716-.3.494-.277.579-.163.062.079.187.087.238-.078.336.033.1.123.27.091.068.05.068.254.071.417-.069.455-.1.185-.129.28a2.181,2.181,0,0,0-.078.321c-.02.128.177.253-.04.311s-.022.224-.2.272-.125.347-.1.436-.149.258-.149.258l-.051.014" transform="translate(-47.784 -24.306)" fill="none" stroke="#633321" stroke-linecap="round" stroke-width="0.221"></path><path id="Path_6176" data-name="Path 6176" d="M83.881,29.657l-.032-.3a1.182,1.182,0,0,0,.041-.446c-.032-.2-.187-.924.323-1.259,0,0,.227-.123.009-.337s.509.085.672.157.5.059.5.185,0,.089.089.16.212.069.224.2.009.141.147.207.022.071-.084.218-.167.337-.287.291-.169.08-.24.134a1.988,1.988,0,0,0-.223.19c-.081.081,0,.274-.19.2s-.133.15-.285.091-.271.184-.3.261-.242.107-.242.107l-.044-.017" transform="translate(-49.25 -24.529)" fill="#9c0016"></path><path id="Path_6177" data-name="Path 6177" d="M83.881,29.657l-.032-.3a1.182,1.182,0,0,0,.041-.446c-.032-.2-.187-.924.323-1.259,0,0,.227-.123.009-.337s.509.085.672.157.5.059.5.185,0,.089.089.16.212.069.224.2.009.141.147.207.022.071-.084.218-.167.337-.287.291-.169.08-.24.134a1.988,1.988,0,0,0-.223.19c-.081.081,0,.274-.19.2s-.133.15-.285.091-.271.184-.3.261-.242.107-.242.107l-.044-.017" transform="translate(-49.25 -24.529)" fill="none" stroke="#633321" stroke-linecap="round" stroke-width="0.221"></path><path id="Path_6178" data-name="Path 6178" d="M75.238,28.479l-.184-.34a1.1,1.1,0,0,0-.135-.4c-.1-.16-.51-.716-.2-1.2,0,0,.147-.191-.12-.291s.466-.121.632-.121.447-.139.5-.032.037.074.137.1.206-.022.266.085.061.117.2.121.046.052.011.218-.015.351-.135.357-.113.133-.153.205a1.853,1.853,0,0,0-.118.246c-.039.1.1.235-.086.245s-.056.178-.209.186-.161.26-.158.336-.165.184-.165.184l-.044.111" transform="translate(-44.801 -23.969)" fill="#9c0016"></path><path id="Path_6179" data-name="Path 6179" d="M75.238,28.479l-.184-.34a1.1,1.1,0,0,0-.135-.4c-.1-.16-.51-.716-.2-1.2,0,0,.147-.191-.12-.291s.466-.121.632-.121.447-.139.5-.032.037.074.137.1.206-.022.266.085.061.117.2.121.046.052.011.218-.015.351-.135.357-.113.133-.153.205a1.853,1.853,0,0,0-.118.246c-.039.1.1.235-.086.245s-.056.178-.209.186-.161.26-.158.336-.165.184-.165.184l-.044.111" transform="translate(-44.801 -23.969)" fill="none" stroke="#633321" stroke-linecap="round" stroke-width="0.221"></path><path id="Path_6180" data-name="Path 6180" d="M77.242,30.276l.025-.386a1.1,1.1,0,0,0,.1-.406c0-.191-.053-.878.462-1.121,0,0,.226-.085.053-.31s.459.145.6.233.453.119.438.235-.008.082.062.159.187.091.182.213-.01.131.109.21.011.069-.106.19-.2.29-.3.232-.166.052-.238.092a1.815,1.815,0,0,0-.231.147c-.086.065-.04.253-.2.162s-.142.121-.276.047-.274.135-.312.2-.237.068-.237.068l-.087-.014" transform="translate(-46.093 -24.885)" fill="#9c0016"></path><path id="Path_6181" data-name="Path 6181" d="M77.242,30.276l.025-.386a1.1,1.1,0,0,0,.1-.406c0-.191-.053-.878.462-1.121,0,0,.226-.085.053-.31s.459.145.6.233.453.119.438.235-.008.082.062.159.187.091.182.213-.01.131.109.21.011.069-.106.19-.2.29-.3.232-.166.052-.238.092a1.815,1.815,0,0,0-.231.147c-.086.065-.04.253-.2.162s-.142.121-.276.047-.274.135-.312.2-.237.068-.237.068l-.087-.014" transform="translate(-46.093 -24.885)" fill="none" stroke="#633321" stroke-width="0.221"></path><path id="Path_6182" data-name="Path 6182" d="M72.589,29.98l.07-.38a1.109,1.109,0,0,1,.006-.417c.05-.185.264-.839-.177-1.2,0,0-.2-.136.025-.314s-.48.029-.638.081-.469.006-.483.123-.011.082-.1.139-.2.043-.228.163-.022.13-.156.177-.028.064.056.211.122.329.238.3.149.091.209.147a1.853,1.853,0,0,1,.188.2c.068.083-.022.255.157.207s.109.151.256.112.234.2.254.271.214.124.214.124l.042-.011" transform="translate(-43.035 -24.702)" fill="#9c0016"></path><path id="Path_6183" data-name="Path 6183" d="M72.589,29.98l.07-.38a1.109,1.109,0,0,1,.006-.417c.05-.185.264-.839-.177-1.2,0,0-.2-.136.025-.314s-.48.029-.638.081-.469.006-.483.123-.011.082-.1.139-.2.043-.228.163-.022.13-.156.177-.028.064.056.211.122.329.238.3.149.091.209.147a1.853,1.853,0,0,1,.188.2c.068.083-.022.255.157.207s.109.151.256.112.234.2.254.271.214.124.214.124l.042-.011" transform="translate(-43.035 -24.702)" fill="none" stroke="#633321" stroke-linecap="round" stroke-width="0.221"></path><path id="Path_6184" data-name="Path 6184" d="M91.648,31.693l.192-.226a1.079,1.079,0,0,0,.362-.186c.139-.124.617-.594,1.123-.367,0,0,.206.114.263-.158s.183.432.207.592.2.411.1.474-.067.046-.079.147.051.2-.043.269-.1.075-.087.213-.044.052-.209.042-.34.037-.363-.078-.144-.09-.219-.118a1.781,1.781,0,0,0-.255-.078c-.1-.022-.212.13-.248-.047s-.18-.028-.209-.174-.274-.118-.347-.1-.2-.133-.2-.133l-.008-.042" transform="translate(-52.974 -26.182)" fill="#9c0016"></path><path id="Path_6185" data-name="Path 6185" d="M91.648,31.693l.192-.226a1.079,1.079,0,0,0,.362-.186c.139-.124.617-.594,1.123-.367,0,0,.206.114.263-.158s.183.432.207.592.2.411.1.474-.067.046-.079.147.051.2-.043.269-.1.075-.087.213-.044.052-.209.042-.34.037-.363-.078-.144-.09-.219-.118a1.781,1.781,0,0,0-.255-.078c-.1-.022-.212.13-.248-.047s-.18-.028-.209-.174-.274-.118-.347-.1-.2-.133-.2-.133l-.008-.042" transform="translate(-52.974 -26.182)" fill="none" stroke="#633321" stroke-linecap="round" stroke-width="0.221"></path><path id="Path_6186" data-name="Path 6186" d="M91.537,30.64l.126-.294a1.082,1.082,0,0,0,.3-.271c.1-.155.448-.73,1-.638,0,0,.228.059.215-.218s.285.372.349.521.3.349.219.433-.053.062-.04.161.1.177.026.271-.081.1-.031.228-.029.062-.191.093-.32.121-.371.015-.162-.051-.242-.059a1.875,1.875,0,0,0-.266-.012c-.1,0-.173.179-.252.017s-.181.017-.246-.117-.295-.045-.362-.013-.228-.078-.228-.078l-.019-.038" transform="translate(-52.923 -25.445)" fill="#9c0016"></path><path id="Path_6187" data-name="Path 6187" d="M91.537,30.64l.126-.294a1.082,1.082,0,0,0,.3-.271c.1-.155.448-.73,1-.638,0,0,.228.059.215-.218s.285.372.349.521.3.349.219.433-.053.062-.04.161.1.177.026.271-.081.1-.031.228-.029.062-.191.093-.32.121-.371.015-.162-.051-.242-.059a1.875,1.875,0,0,0-.266-.012c-.1,0-.173.179-.252.017s-.181.017-.246-.117-.295-.045-.362-.013-.228-.078-.228-.078l-.019-.038" transform="translate(-52.923 -25.445)" fill="none" stroke="#633321" stroke-linecap="round" stroke-linejoin="round" stroke-width="0.221"></path><path id="Path_6188" data-name="Path 6188" d="M95.522,70.942" transform="translate(-54.835 -45.43)" fill="none" stroke="#161615" stroke-width="0.295"></path><path id="Path_6189" data-name="Path 6189" d="M145.913,49.378,144.876,47.9a2.681,2.681,0,0,0-1.474-1.91c-2.074-1.255-4.475.982-4.475.982-3.6-.437-4.42,2.947-5.075,2.4s.327-2.019.327-2.019l2.183-2.565a5.524,5.524,0,0,0,.819-3.711,4.409,4.409,0,0,0-.305-2.565l-.077-1.2a4.432,4.432,0,0,0-1.528-2.565,3.114,3.114,0,0,0-1.365-2.183,10.613,10.613,0,0,0-1.091-1.146c-.328-.328.054-.382.054-.382-1.036-.055-1.474,2.4-1.474,2.947s-.109,1.637-.709,2.019-.109,1.855-.109,1.855l.109,1.528a1.911,1.911,0,0,0,.819,2.019,3.82,3.82,0,0,0,1.528,2.947c.491.655.873,3.056.054,3.274-.569.152-1.1-.976-1.1-.946L132,46.7s.312.322.315.309a13.5,13.5,0,0,1-1.843-3.255,15.375,15.375,0,0,0-2.4-3.711s.218-1.91.327-2.183a11.1,11.1,0,0,0,.546-2.565c.109-1.2-.218-.982-.273-2.183a5.118,5.118,0,0,0-1.2-2.51A5.814,5.814,0,0,1,126.1,29.35c-.382-.6-.873-.328-1.474-.928a2.9,2.9,0,0,0-1.375-.742l-1.048-.524.35.961.174,1.135a8.045,8.045,0,0,0,.175,2.27c.262.786.349,1.135.349,1.135-.349.088.873,1.921,1.048,2.969s-.262.524-.262.524-5.151-3.8-5.064-4.1a2.821,2.821,0,0,0-.262-1.4,2.959,2.959,0,0,1-.873-2.183c-.175-1.834-.873-1.31-1.746-2.226a4.242,4.242,0,0,0-2.27-1.092,8.713,8.713,0,0,0-3.667-.611c.175,1.79,1.31,1.834,1.31,2.794a2.036,2.036,0,0,0,.786,1.528s1.4.568.524.83-.174.262-.174.262c1.135.655.436.873-.088.786s-.764-.786-.764-.786c-.327-1.965-1.965-1.387-1.965-1.387-.982-1.059-2.619.077-2.619.077a2.947,2.947,0,0,0-1.965,1.2c-3.492,2.51-1.419,2.947-1.419,2.947l3.165-.218,2.292-.437c2.4.219,2.728-1.455,2.728-1.455,1.092,1.383,1.746.077,1.746.077l.655.069,3.929,1.965,1.636.981a9.749,9.749,0,0,1,1.462.723c4.675,4.5.054.055.054.055l-1.516-.777a8.241,8.241,0,0,0-1.854-.053c-2.491-.818-2.838.272-2.838.272-2.183-.687-1.31.655-3.165.764s.109,1.092.655,1.528,1.2.873,1.2.873c0,.982,1.746,1.31,1.746,1.31.437,1.637,3.383,1.637,3.711,1.419s2.947.109,3.711-.109,1.528-.873,2.292-.764a5.35,5.35,0,0,1,1.965,1.334l1.092,1.176s1.528,2.074.982,2.292-2.074-1.855-2.074-1.855c-3.165-2.838-4.8-.873-4.8-.873-2.4-.437-3.056,2.728-3.056,2.728l-1.528,1.669c-1.092,2.215,3.056,2.26,3.056,2.26,1.419.983,2.074.328,3.056.328a3.913,3.913,0,0,0,2.074-.983s1.419-.873,2.074-1.2a7.379,7.379,0,0,1,2.292-.327l.764,1.2.219.873s2.4,5.785,1.528,5.785-1.528-.655-1.637-2.292-1.965-1.31-1.965-1.31L127.9,48.653h-1.855s1.31,6.246,1.855,6.837,2.619-.513,2.619-.513l1.2.077c1.746,0,.437,0,1.605,1.168s-.077,1.888-.077,2.761-.873,5.894-.873,5.894c-1.092,1.419-.437-.392-1.855-3.6s-2.074-2.183-4.147-3.225-2.51.06-2.51.06-1.637,1.31-2.728.983-2.292.982-2.292.982l.746,1.493.127.254a9.156,9.156,0,0,0-.327,3.929c-1.746,2.292-.546,3.165-.546,3.165l-.109.873a4.086,4.086,0,0,0,2.074,4.475s.328,1.746,1.2,2.292,1.528,2.292,1.2,2.947S107.276,89,107.276,89l.328.764h4.038v-.873c0-.394,7.913-5.185,7.913-5.185,1.037-.6,3,.764,3,.764l1.255,1.255a6.4,6.4,0,0,0,5.075.382c2.292.218,2.619-.655,2.783-.928s.983-.6.983-.6c2.183-.327,2.292-1.8,2.346-2.183s1.31-.928,1.31-.928c2.019-1.146,2.4-4.038,2.4-4.038.055-.928-.218-.437-.218-.437l-3.656.819c-.819-.382-2.4.273-2.4.273L132,78.027c-1.583-.491-3.493.873-3.493.873s-1.528.382-2.183.6a2.292,2.292,0,0,0-1.092,1.965c0,.655-.928,1.037-2.074,1.255a1.494,1.494,0,0,1-1.583-.436l3.984-2.947,2.074-1.855a24.22,24.22,0,0,0,1.8-2.292,5.736,5.736,0,0,1,2.51-1.855,4.278,4.278,0,0,1,3.11-.382,3.137,3.137,0,0,0,2.783-.928,6.022,6.022,0,0,1,1.528-.819l.982-.546c.437-.163,1.2-1.855,1.692-2.292s1.037-1.092,1.037-1.474a4.692,4.692,0,0,1,.873-2.411c.545-.5.382-1.3-.11-2.664s-1.473-1.255-2.346-1.092-2.128.819-3.71.273S135,62.038,135,62.038c-.983,1.364-1.2,1.255-1.2,1.255a28.776,28.776,0,0,1,.546-3.056,3.14,3.14,0,0,1,2.074-1.364,8.551,8.551,0,0,0,2.292-1.364c2.074-.873,2.128-3.765,2.456-4.42a5.817,5.817,0,0,0,.437-2.347,7.862,7.862,0,0,0-.492-2.456s-.163-.109.873-.109a4.54,4.54,0,0,1,1.746.327,10,10,0,0,0,1.528,1.037.539.539,0,0,0,.655-.163ZM131.506,68.368l-2.074,4.366a16.477,16.477,0,0,1-4.578,5.453c-.007.021-.009.025-.006,0l.006,0c.077-.252.813-3.27.813-3.27l.928-1.528c.764-.655,0-3.22,0-3.22-.164-1.474-.655-1.8-.655-1.8a14.844,14.844,0,0,0-.71-2.292l1.255-.191,1.419.191,1.474.11,1.146-.219.655.492c.819.491.328,1.91.328,1.91Zm-13.228-36.8-.174.174-.743-.393h.568l.349.219Zm6.885,6.494a3.225,3.225,0,0,1-1.209-.1l-.428-1.4s1.58,1.524,1.637,1.494Z" transform="translate(-58.494 -23.237)" fill="#e59800"></path><g id="Group_1744" data-name="Group 1744" transform="translate(44.679 1.296)"><g id="Group_1743" data-name="Group 1743" clip-path="url(#clip-path-2)"><path id="Path_6190" data-name="Path 6190" d="M142.191,131.468s2.532,0,3.1-.917,1.091-3.667,1.615-3.929a1.711,1.711,0,0,0,.743-.83l.7-.007a3.047,3.047,0,0,1-.524.531c-.48.437-1.222,1.27-1.222,1.79a5.542,5.542,0,0,1-.743,1.921,6.179,6.179,0,0,0-.393.786,13.228,13.228,0,0,0,2.357-.655c.554-.306,1.484-2.532,1.484-2.532a8.39,8.39,0,0,1,1.4-1.572.713.713,0,0,0,.393-.568s-.043.612-.262.743a2.569,2.569,0,0,0-.524.611l-.436.786-.481.86-.611,1.279,2.008-.568s1.048-2.576,1.572-2.881a5.067,5.067,0,0,0,1-.831l.175-.348.218.175-.568.567-.742.7-1,2.226.742-.306,1.048-.48.393-.087.306-.961a4.757,4.757,0,0,0,1.048-1.863c.131-.843.305-.406.305-.406l-.174.829-.961,1.921a7.208,7.208,0,0,0,1.4-.786,6,6,0,0,0,1.659-2.4,2,2,0,0,1-.7,1.7,28.627,28.627,0,0,1-2.532,2.1s-.305.349.306.218a12.168,12.168,0,0,1,1.572-.175l.742-.232-.305.538-3.187.349-.611.088L150.18,129.9l1,.524a4.452,4.452,0,0,0,2.183-.044c.83-.349.873-.218.873-.218a8.65,8.65,0,0,1-1.572.655,1.815,1.815,0,0,1-1.528-.131c-.393-.131-1.189-.437-1.424-.481a20.755,20.755,0,0,0-2.418.612s-1.222.126-.436.674a7.855,7.855,0,0,0,4.5.9l.35.053-1.4.209a11.231,11.231,0,0,1-4.5-1.179s-.35-.262-1.048.043c0,0-.961.175-.393.568,0,0,3.143,1.746,3.274,1.79s.393.481.393.481l-.83.01-3.056-1.931a3.043,3.043,0,0,0-.976-.35c-.333,0-1.294.131-.988-.611Z" transform="translate(-121.803 -72.226)" fill="#633321"></path><path id="Path_6191" data-name="Path 6191" d="M142.191,131.468s2.532,0,3.1-.917,1.091-3.667,1.615-3.929a1.711,1.711,0,0,0,.743-.83l.7-.007a3.047,3.047,0,0,1-.524.531c-.48.437-1.222,1.27-1.222,1.79a5.542,5.542,0,0,1-.743,1.921,6.179,6.179,0,0,0-.393.786,13.228,13.228,0,0,0,2.357-.655c.554-.306,1.484-2.532,1.484-2.532a8.39,8.39,0,0,1,1.4-1.572.713.713,0,0,0,.393-.568s-.043.612-.262.743a2.569,2.569,0,0,0-.524.611l-.436.786-.481.86-.611,1.279,2.008-.568s1.048-2.576,1.572-2.881a5.067,5.067,0,0,0,1-.831l.175-.348.218.175-.568.567-.742.7-1,2.226.742-.306,1.048-.48.393-.087.306-.961a4.757,4.757,0,0,0,1.048-1.863c.131-.843.305-.406.305-.406l-.174.829-.961,1.921a7.208,7.208,0,0,0,1.4-.786,6,6,0,0,0,1.659-2.4,2,2,0,0,1-.7,1.7,28.627,28.627,0,0,1-2.532,2.1s-.305.349.306.218a12.168,12.168,0,0,1,1.572-.175l.742-.232-.305.538-3.187.349-.611.088L150.18,129.9l1,.524a4.452,4.452,0,0,0,2.183-.044c.83-.349.873-.218.873-.218a8.65,8.65,0,0,1-1.572.655,1.815,1.815,0,0,1-1.528-.131c-.393-.131-1.189-.437-1.424-.481a20.755,20.755,0,0,0-2.418.612s-1.222.126-.436.674a7.855,7.855,0,0,0,4.5.9l.35.053-1.4.209a11.231,11.231,0,0,1-4.5-1.179s-.35-.262-1.048.043c0,0-.961.175-.393.568,0,0,3.143,1.746,3.274,1.79s.393.481.393.481l-.83.01-3.056-1.931a3.043,3.043,0,0,0-.976-.35c-.333,0-1.294.131-.988-.611Z" transform="translate(-121.803 -72.226)" fill="none" stroke="#633321" stroke-width="0.074"></path><path id="Path_6192" data-name="Path 6192" d="M138.182,111.2l.159-3.667s1.064-3.318,1.282-4.584a12.631,12.631,0,0,0,.218-1.572l-.174-.829-.088,1.222-.742,2.881-.674,1.877-.243.349-.961-3.318a14.219,14.219,0,0,0,1.381-4.8c0-1.091-.246-1.135-.29-.873a11.269,11.269,0,0,1-1.31,5.108h-.262v-.437l-.611-1.31s-1.467-3.274-.743-4.933l.568-1.135-.044-.219-.917,1.615L134.716,94l-.2-.437L134.5,94s-.244,3.885.1,4.54a3.8,3.8,0,0,1,.044.786s-1.441-.917-1.441-1.7c0,0-.219,1.179,1.441,2.532,0,0,.917,1.531,1.048,1.877a13.134,13.134,0,0,1,.917,2.838s-1.266-.612-1.528-.743-2.27-1.572-2.4-2.357-.35-.786-.35-.786l-.305.262-.013.568a11.924,11.924,0,0,1,1.147,1.223c.393.524,1.31,1.746,1.921,1.921a4.13,4.13,0,0,1,1.572,1.4,3.041,3.041,0,0,1,.873,1.572c.044.7.044,1.655.044,1.655s-2.1-2.659-2.882-2.7a2.175,2.175,0,0,1-1.615-1c-.131-.306-.306.611-.306.611a3.432,3.432,0,0,0,.917.481c.524.174,1.179.349,1.179.349a6.587,6.587,0,0,1,1.615,1.485c.524.782,1.048,1.572,1.048,1.572l.131.83Z" transform="translate(-116.965 -57.542)" fill="#633321"></path><path id="Path_6193" data-name="Path 6193" d="M159.062,105.171l5.763-.393.743-.262.006-.218-5.42.175.961-1.179,2.707-.524a7.733,7.733,0,0,1,2.4-.219,4.187,4.187,0,0,0,1.79-.174s.961-.7.262-.612-.611.437-1.921.393h-2.139l-2.663.524.305-1.31,1.484-.436s1.79-.088,2.837-.175a6.139,6.139,0,0,0,2.794-1.31c.742-.524,1.31-.961,1.31-.961l.567-.7a12.244,12.244,0,0,1-3.012,2.052c-1,.262-5.064.611-5.064.611s-.131-.131.131-.48,1-1.4,1-1.4,3.71-.044,5.107-1.31l1.849-1.179.2-.523s0,.131-.393.349-.961.611-.961.611l-1.441.962a8.349,8.349,0,0,1-1.7.436c-.786.087-2.357.174-2.357.174a6.506,6.506,0,0,1,.86-1c.265-.175,3.724-3.1,4.946-3.143s.131-.393.131-.393l-1.179.524a27.673,27.673,0,0,0-3.9,2.445,2.152,2.152,0,0,1,1.279-2.314l.393-.655a3.379,3.379,0,0,0-2.27,3.449l-1.528,1.921a5.41,5.41,0,0,1,.567-3.536c.961-1.31,1.31-1.834,1.31-1.834h-.305s-2.707,2.782-2.052,5.8l-.829,1.84-.35.043a5.38,5.38,0,0,1-.7-4.016c.611-2.008.357-1.752.357-1.752l-.27.53a15.893,15.893,0,0,0-.48,3.356,12.728,12.728,0,0,0,.655,2.145,1.574,1.574,0,0,1,.174.873c-.043.305-.567.7-.567.7l-.393.655-1,1.441Z" transform="translate(-129.9 -57.542)" fill="#633321"></path><path id="Path_6194" data-name="Path 6194" d="M144.8,95.606l-1.354-1.135a6.363,6.363,0,0,0,.677-2.925l-.006-.917-.147.436a13.824,13.824,0,0,1-.742,3.143l-1.223-.785a7.006,7.006,0,0,0-.01-2.4,5.291,5.291,0,0,0-1.386-2.357l-1-1,.568.917a4.144,4.144,0,0,1,1.441,3.973l-.044.087-1.7-.7s.219-3.362-2.663-3.624l-.83.35a3.131,3.131,0,0,1,1.135,0c.35.131,2.139.525,1.7,2.969l-2.1-.786s-.655-1.528-1.266-1.659l-.611.131a1.511,1.511,0,0,1,1.353,1.353,33.44,33.44,0,0,0-4.147-.655c-.83.044-1.31.35-.524.35s1.179.043,1.179.043l1.877.437,1.266.262,1.179.262a.973.973,0,0,1-.786.48c-.568.044-1.528.044-1.528.044a2.789,2.789,0,0,0,1.354.219c.7-.088,1.1-.61,1.4-.48s1.4.523,1.4.523l.83.437s.262.393-.7.524a19.109,19.109,0,0,0-2.379.567l.24.219,2.488-.48a1.763,1.763,0,0,1,1.179-.219c.481.175.83.219.7.742l-1.528.306-1.4.349-.917-.043.044.219h.611l2.1-.263,1.4-.218.655.043s1.179.612.7.612a4.907,4.907,0,0,0-3.056,1.091l.305.014a3.442,3.442,0,0,1,3.973-.276l.306-.175Z" transform="translate(-116.73 -54.721)" fill="#633321"></path><path id="Path_6195" data-name="Path 6195" d="M164.066,71.318a3.419,3.419,0,0,1,1.045-2.2,3.444,3.444,0,0,1,2.479-1.923h.226l-.113-.412-.041-.113-.052-.072-.093.113-.448.362-.173-.2,1.226-1.248-.577-.393L165.9,67.315l-.7.808-1.207,1.617s-.915-1.157-.815-1.522a5.582,5.582,0,0,0-.008-1.336l-.356.1.028,1.192-.051.715.791.992s.13.116.009.981c-.353,2.515-.351,2.5-.351,2.5s-.817-.115-.8-.554a6.479,6.479,0,0,0-.133-1.145L162.1,70.6l.087-1.921-.436.524-.077,1.734.352.98.1.995.386.74.741.3-.155,1.1-.272,1.235-.033.319-.114.276,2.662-2.1,3.561-2.34s.883-.708,1.165-.62.39-.337.39-.337l-.9.119-1.8,1.314-1.829.821L163.746,75l.241-2.758a28.564,28.564,0,0,1,2.961-1.886c.78-.331,2.934-1.2,3.371-1a.738.738,0,0,0,.677.061s-.217-.2-1.246-.192a8.614,8.614,0,0,0-2.622.76c-1.347.643-2.971,1.395-2.971,1.395" transform="translate(-131.148 -43.993)" fill="#633321"></path><path id="Path_6196" data-name="Path 6196" d="M151.39,71.391s.41,3.623,2.139,4.191c0,0,1.092.262.175.481l-2.333-.524s-.2.544-1.422.544l-.829-.194.655-.175s1.135.088,1.353-.305l-.567-.393-.524-.393h-.612l-.131-.786.612.262a6.66,6.66,0,0,0-.524-2.489c-.524-1.091-.612-1.31-.612-1.31l.524.612.568,1.048a21.318,21.318,0,0,1,.524,2.314c0,.393,1.746.961,1.746.961a9.541,9.541,0,0,1-.961-3.449c.087-1.266.218-.393.218-.393Z" transform="translate(-124.978 -46.419)" fill="#633321"></path><path id="Path_6197" data-name="Path 6197" d="M142.5,59.472l-.437-.524-.611-.218-.873-1.921-.567-.935-.306.01.742,1.274.612,1.7-1.528-.218a2.879,2.879,0,0,1-.48-.917,4.1,4.1,0,0,0-2.121-1.659,2.738,2.738,0,0,0-1.372-.131l1.484.524a2.85,2.85,0,0,1,1.921,2.226l-1.659.088s.044-.044-.742-.83-3.1-.786-3.1-.786l-.044.306a3.667,3.667,0,0,1,3.511,1.352l-.324.175-.917.306-1.4.087-.174-.276c-.393-.625-3.8.019-1.877.019s1.528.606,1.528.606l-2.4,1.223s1.877-.655,2.882-1.048.785,0,.785,0a8.489,8.489,0,0,1-2.968,2.488c2.183-.175,3.973-2.906,3.973-2.906l1.278-.252-.013.233c-.917,2.183-3.667,3.361-3.667,3.361l.437.018a6.568,6.568,0,0,0,3.405-3.03l.54-.672,1.831.014c.042.179.107.87-.974,1.968a9.792,9.792,0,0,1-2.139,1.74,9.73,9.73,0,0,0,2.052-1.26s1.579-1.361,1.652-2.427l2.059.289Z" transform="translate(-116.656 -39.521)" fill="#633321"></path><path id="Path_6198" data-name="Path 6198" d="M161.491,44.926l-.218-.218s-.655,1.659-.917,2.4a7.036,7.036,0,0,1-1.27,1.785,33.1,33.1,0,0,0-.679-3.347c.378-.165.789-.872.789-.872,1.085-1.169.48-4.419.48-4.419s-.019.262-.019,1.222a4.856,4.856,0,0,1-.7,2.881c-.374.6-.591.726-.709.727-.384-1.053-.994-2.342-.994-2.342s-.751-2.75.595-3.8l.5-.437-.873.611a12.289,12.289,0,0,0-.446,1.354c0,.175-.441-2.838-.019-3.056,0,0-.7-.174-.2,4.715l.1.481-1.266-1.485-.262.349,1.615,1.7.857,2.008.322,1.354-.9-.7s-2.289-.742-2.333-2.226c-.013-.438-.02-.686-.023-.823l-.5.78a6.482,6.482,0,0,0,2.378,2.576c.547.174,1.595.575,1.682,1.553s.218,2.2.218,2.2l-.175,1.3.393.492.237-2.022c.016-.007.028-.011.044-.019.849-.426,1.989-3.983,1.989-3.983l.306-.742ZM158.522,51.2l-.261-.992c-.393-1.223-2.751-2.1-2.751-2.1l.306.262a13,13,0,0,0,1.834,1.834,2.363,2.363,0,0,1,.873.992Zm-3.6-8.408,0-.006s-.012-.322,0,.006Z" transform="translate(-127.679 -30.694)" fill="#633321"></path><path id="Path_6199" data-name="Path 6199" d="M145.077,41.041l-.088-2.008s2.052-2.138,1.659-3.71c0,0,.223,1.4-1.678,3.187l-.2-1.353.349-.7.087-3.187h-.262l-.087,3.013-.349.261-.262-.524-.262-1.179-.393-2.052-.612-1.4-.017.655.236.7-.131,1-.583-.829-.683-1.135-.414-1.354-.2.218-.014,1.135.844.873V33.1l-1-1.048-1-1.135.742,1.354,1.048,1.048.873.655.393.349.48.961-.786-.262-.83-.917-1.179-1.179L140,32.746l.672.568.873.961.612.655.742.789.742.3.481.481.087.873v.306l-.853-.306s-1.22-1.091-1.591-1.528a1.9,1.9,0,0,0-.873-.568l-.174.44a4.072,4.072,0,0,1,.873.521c.131.174.9.829.9.829a7.528,7.528,0,0,0,1.02.83c.175.044.743.218.743.218l.175,1.135a2.315,2.315,0,0,1-.83-.175,7.568,7.568,0,0,1-1.107-.742l-.857-.786-.83-.7,1.266,1.659.873.7,1,.437.393.087.262,1.157.481.153Z" transform="translate(-120.782 -27.354)" fill="#633321"></path><path id="Path_6200" data-name="Path 6200" d="M128.488,42.865l.524.218s.533,1.354.769,1.746,1.021,1.331,1.021,1.331,1,.677.961.983-.59.346-.59.175.126-.306-.633-.218a6.123,6.123,0,0,0-2.06.338c-.429.273-1.171.666-1.171.666a1.753,1.753,0,0,1-.655.175c-.305,0,.568-.481,1.135-.7a10.236,10.236,0,0,1,1.615-.611c.376-.044,1.31-.088,1.31-.088l-.612-.393s.054-.174-.322-.174-.943-.219-1.205,0a16.652,16.652,0,0,1-1.572.873l-1.4.742-1,.044-1.091.087s1.179-.218,1.528-.305a15.767,15.767,0,0,0,1.528-.655l1.078-.612.93-.328a.386.386,0,0,0-.306-.458c-.393-.13-1.31-.524-1.31-.524a.616.616,0,0,0-.48.175c-.262.219-1.048.807-1.048.807a5.538,5.538,0,0,1-1.79.415c-.96.043-1.353.043-1.353.043s-.655-.305.611-.305,1.834-.044,2.27-.393l1.091-.873a.832.832,0,0,0-.655-.305c-.436,0-1.135-.35-1.571-.088s-.437.306-.612.349-.335.393-.83.393h-.873c-.96,0,.044-.262.306-.262a3,3,0,0,0,.786-.219l1.048-.48s.48-.175-.175-.175a11.49,11.49,0,0,1-1.484-.131l-1.615-.305-.873-.306L119.32,43a2.33,2.33,0,0,0,.786.437,6.278,6.278,0,0,1,.96.305h1.048a2.159,2.159,0,0,0-.786-.655,8.777,8.777,0,0,0-1.179-.236s.393-.019.83-.019a2.01,2.01,0,0,1,.873.255l.786.655,2.052.35s.436-.35-1.092-1.135l-.524-.393-.175-.393a1.808,1.808,0,0,0,.612.393,3.23,3.23,0,0,1,.785.524s.936,1.179,1.092,1.179,1.441.306,1.441.306.311.1.437.021c.044-.026.066-.073.043-.152a3.928,3.928,0,0,0-1.048-1.877c-.655-.524-.48-.4-.48-.4l.873.36a6.493,6.493,0,0,1,1.179,2.314l1.528.786.419.218-.463-1-.524-1.266-.305-.7Z" transform="translate(-110.895 -32.955)" fill="#633321"></path><path id="Path_6201" data-name="Path 6201" d="M120.592,30.241h.917a4.111,4.111,0,0,1,1.266-.218c.481.044,1.112-.005,1.266.237s.742.941.7.2-.48-.481-.786-.873a4.646,4.646,0,0,1-.524-1.048c-.131-.262-.873-2.1-.873-2.1s.087-.087-.306-.786-.48-.043-.305.175a4.845,4.845,0,0,1,.393.655l.338.83.273.916s.109.35-.273.262a3.825,3.825,0,0,1-1.081-.742,4.959,4.959,0,0,0-.829-2.1l-.7-1.092.786,1.834.175.96a5.684,5.684,0,0,1-1.572-.655s-1.484-.728-1.484-1.659-.175-.931-.175-.931l-.305-.336s.174.743.218,1.092a1.831,1.831,0,0,0,.48.961c.219.218,1,.655.568.742a5.206,5.206,0,0,1-1.3-.044l-.27.393h2.357s.873.481,1.266.7a7.674,7.674,0,0,1,1.048.83,21,21,0,0,1-3.274-.044c-.48-.175-.218.393.393.393s2.881.087,2.881.087l1.092.088a4.012,4.012,0,0,1,.437.437,2.514,2.514,0,0,0,.349.349s-.7,0-1.266.044a7.063,7.063,0,0,0-1.354.305l-.7.087.175.044Z" transform="translate(-109.875 -24.173)" fill="#633321"></path><path id="Path_6202" data-name="Path 6202" d="M111.466,33c-.436-1.266-2.663-1.921-2.663-1.921s-2.226-.612-.006.087a3.664,3.664,0,0,1,2.467,1.936h-.584l-.7-.32A2.18,2.18,0,0,0,108.89,32c-.568-.088-1.31-.281-1.31-.281l-.786.019s2.183.174,2.663.96l.016.218-2.2,0-1.659-.176h-.306l1.834.2v.169a18.423,18.423,0,0,1-2.488.509c-.567,0-.349.175-.349.175l1.7.015-1.659.858.655.017,1.266-.8,1.092-.524s-.056-.144.43-.144h.7l-1.135.756-.786.393-.786.342-.219.269.568-.131.393-.262,2.532-1.469.873.073.349.181-.392.3A10.958,10.958,0,0,1,107.449,35l-.917.58,1.834-.7,1.484-.916.7-.612.785.044.017-.026c.274,1.066-2.287,2.005-2.287,2.005l.655-.015.349-.262a7.312,7.312,0,0,0,1.572-1.31.886.886,0,0,0-.175-.786Z" transform="translate(-103.695 -27.547)" fill="#633321"></path></g></g><path id="Path_6204" data-name="Path 6204" d="M145.913,49.378,144.876,47.9a2.681,2.681,0,0,0-1.474-1.91c-2.074-1.255-4.475.982-4.475.982-3.6-.437-4.42,2.947-5.075,2.4s.327-2.019.327-2.019l2.183-2.565a5.524,5.524,0,0,0,.819-3.711,4.409,4.409,0,0,0-.305-2.565l-.077-1.2a4.432,4.432,0,0,0-1.528-2.565,3.114,3.114,0,0,0-1.365-2.183,10.613,10.613,0,0,0-1.091-1.146c-.328-.328.054-.382.054-.382-1.036-.055-1.474,2.4-1.474,2.947s-.109,1.637-.709,2.019-.109,1.855-.109,1.855l.109,1.528a1.911,1.911,0,0,0,.819,2.019,3.82,3.82,0,0,0,1.528,2.947c.491.655.873,3.056.054,3.274-.569.152-1.1-.976-1.1-.946L132,46.7s.312.322.315.309a13.5,13.5,0,0,1-1.843-3.255,15.375,15.375,0,0,0-2.4-3.711s.218-1.91.327-2.183a11.1,11.1,0,0,0,.546-2.565c.109-1.2-.218-.982-.273-2.183a5.118,5.118,0,0,0-1.2-2.51A5.814,5.814,0,0,1,126.1,29.35c-.382-.6-.873-.328-1.474-.928a2.9,2.9,0,0,0-1.375-.742l-1.048-.524.35.961.174,1.135a8.045,8.045,0,0,0,.175,2.27c.262.786.349,1.135.349,1.135-.349.088.873,1.921,1.048,2.969s-.262.524-.262.524-5.151-3.8-5.064-4.1a2.821,2.821,0,0,0-.262-1.4,2.959,2.959,0,0,1-.873-2.183c-.175-1.834-.873-1.31-1.746-2.226a4.242,4.242,0,0,0-2.27-1.092,8.713,8.713,0,0,0-3.667-.611c.175,1.79,1.31,1.834,1.31,2.794a2.036,2.036,0,0,0,.786,1.528s1.4.568.524.83-.174.262-.174.262c1.135.655.436.873-.088.786s-.764-.786-.764-.786c-.327-1.965-1.965-1.387-1.965-1.387-.982-1.059-2.619.077-2.619.077a2.947,2.947,0,0,0-1.965,1.2c-3.492,2.51-1.419,2.947-1.419,2.947l3.165-.218,2.292-.437c2.4.219,2.728-1.455,2.728-1.455,1.092,1.383,1.746.077,1.746.077l.655.069,3.929,1.965,1.636.981a9.749,9.749,0,0,1,1.462.723c4.675,4.5.054.055.054.055l-1.516-.777a8.241,8.241,0,0,0-1.854-.053c-2.491-.818-2.838.272-2.838.272-2.183-.687-1.31.655-3.165.764s.109,1.092.655,1.528,1.2.873,1.2.873c0,.982,1.746,1.31,1.746,1.31.437,1.637,3.383,1.637,3.711,1.419s2.947.109,3.711-.109,1.528-.873,2.292-.764a5.35,5.35,0,0,1,1.965,1.334l1.092,1.176s1.528,2.074.982,2.292-2.074-1.855-2.074-1.855c-3.165-2.838-4.8-.873-4.8-.873-2.4-.437-3.056,2.728-3.056,2.728l-1.528,1.669c-1.092,2.215,3.056,2.26,3.056,2.26,1.419.983,2.074.328,3.056.328a3.913,3.913,0,0,0,2.074-.983s1.419-.873,2.074-1.2a7.379,7.379,0,0,1,2.292-.327l.764,1.2.219.873s2.4,5.785,1.528,5.785-1.528-.655-1.637-2.292-1.965-1.31-1.965-1.31L127.9,48.653h-1.855s1.31,6.246,1.855,6.837,2.619-.513,2.619-.513l1.2.077c1.746,0,.437,0,1.605,1.168s-.077,1.888-.077,2.761-.873,5.894-.873,5.894c-1.092,1.419-.437-.392-1.855-3.6s-2.074-2.183-4.147-3.225-2.51.06-2.51.06-1.637,1.31-2.728.983-2.292.982-2.292.982l.746,1.493.127.254a9.156,9.156,0,0,0-.327,3.929c-1.746,2.292-.546,3.165-.546,3.165l-.109.873a4.086,4.086,0,0,0,2.074,4.475s.328,1.746,1.2,2.292,1.528,2.292,1.2,2.947S107.276,89,107.276,89l.328.764h4.038v-.873c0-.394,7.913-5.185,7.913-5.185,1.037-.6,3,.764,3,.764l1.255,1.255a6.4,6.4,0,0,0,5.075.382c2.292.218,2.619-.655,2.783-.928s.983-.6.983-.6c2.183-.327,2.292-1.8,2.346-2.183s1.31-.928,1.31-.928c2.019-1.146,2.4-4.038,2.4-4.038.055-.928-.218-.437-.218-.437l-3.656.819c-.819-.382-2.4.273-2.4.273L132,78.027c-1.583-.491-3.493.873-3.493.873s-1.528.382-2.183.6a2.292,2.292,0,0,0-1.092,1.965c0,.655-.928,1.037-2.074,1.255a1.494,1.494,0,0,1-1.583-.436l3.984-2.947,2.074-1.855a24.22,24.22,0,0,0,1.8-2.292,5.736,5.736,0,0,1,2.51-1.855,4.278,4.278,0,0,1,3.11-.382,3.137,3.137,0,0,0,2.783-.928,6.022,6.022,0,0,1,1.528-.819l.982-.546c.437-.163,1.2-1.855,1.692-2.292s1.037-1.092,1.037-1.474a4.692,4.692,0,0,1,.873-2.411c.545-.5.382-1.3-.11-2.664s-1.473-1.255-2.346-1.092-2.128.819-3.71.273S135,62.038,135,62.038c-.983,1.364-1.2,1.255-1.2,1.255a28.776,28.776,0,0,1,.546-3.056,3.14,3.14,0,0,1,2.074-1.364,8.551,8.551,0,0,0,2.292-1.364c2.074-.873,2.128-3.765,2.456-4.42a5.817,5.817,0,0,0,.437-2.347,7.862,7.862,0,0,0-.492-2.456s-.163-.109.873-.109a4.54,4.54,0,0,1,1.746.327,10,10,0,0,0,1.528,1.037.539.539,0,0,0,.655-.163ZM131.506,68.368l-2.074,4.366a16.477,16.477,0,0,1-4.578,5.453c-.007.021-.009.025-.006,0l.006,0c.077-.252.813-3.27.813-3.27l.928-1.528c.764-.655,0-3.22,0-3.22-.164-1.474-.655-1.8-.655-1.8a14.844,14.844,0,0,0-.71-2.292l1.255-.191,1.419.191,1.474.11,1.146-.219.655.492c.819.491.328,1.91.328,1.91Zm-13.228-36.8-.174.174-.743-.393h.568l.349.219Zm6.885,6.494a3.225,3.225,0,0,1-1.209-.1l-.428-1.4s1.58,1.524,1.637,1.494Z" transform="translate(-58.494 -23.237)" fill="none" stroke="#633321" stroke-width="0.295"></path><path id="Path_6205" data-name="Path 6205" d="M159.016,67.611s3.034,6.079,2.161,11.809" transform="translate(-85.198 -43.837)" fill="none" stroke="#633321" stroke-linejoin="round" stroke-width="0.295"></path><path id="Path_6206" data-name="Path 6206" d="M94.378,40.349a27.55,27.55,0,0,0-24.836,3.64l1.711,1.123a25.616,25.616,0,0,1,21.859-3.175l1.266-1.588Zm14.028,14.586a25.435,25.435,0,0,1,2.493,8.144h1.91a27.314,27.314,0,0,0-2.517-8.614l-1.886.47Z" transform="translate(-42.411 -30.1)" fill="#9e4919"></path><path id="Path_6207" data-name="Path 6207" d="M100.811,164.883v-2.989h1.784v-2.925H76.381v0c-.026,0-.052,0-.078,0a4.508,4.508,0,1,0,0,9.014c.026,0,.052,0,.078,0v0h26.213v-3.1Zm-29.084-1.408a4.552,4.552,0,0,0-4.6-4.507c-.026,0-.052,0-.078,0v0H40.73v2.925h1.791v2.989H40.73v3.1H67.052v0c.027,0,.052,0,.078,0a4.552,4.552,0,0,0,4.6-4.507Z" transform="translate(-28.633 -87.525)" fill="#fff"></path><path id="Path_6208" data-name="Path 6208" d="M124.376,177.669a1.676,1.676,0,0,1,1.157.535c.437.523.481.627,1,.627s1.288.081,1.244-.2-.076-.673-.218-.764a1.449,1.449,0,0,1-.295-.3h-2.8l-.09.1Z" transform="translate(-68.633 -96.419)" fill="#e59800"></path><path id="Path_6209" data-name="Path 6209" d="M72.769,177.669a1.676,1.676,0,0,0-1.157.535c-.437.523-.48.627-1,.627s-1.288.081-1.244-.2.076-.673.219-.764a1.456,1.456,0,0,0,.294-.3h2.8l.09.1Z" transform="translate(-42.325 -96.419)" fill="#e59800"></path><path id="Path_6210" data-name="Path 6210" d="M100.955,162.974v-1.156h1.834V156.9H75.879v0c-.032,0-.062,0-.094,0A5.493,5.493,0,0,0,71,159.7a5.5,5.5,0,0,0-4.789-2.8c-.032,0-.063,0-.094,0v0H39.2v4.921h1.834v1.156H39.2v4.921h26.91v0c.031,0,.062,0,.094,0a5.5,5.5,0,0,0,4.789-2.8,5.493,5.493,0,0,0,4.789,2.8c.032,0,.062,0,.094,0v0h26.91v-4.921Zm-30.517-1.842a5.332,5.332,0,0,0,.024,2.621,4.507,4.507,0,0,1-4.323,3.24c-.026,0-.051,0-.077,0v0H40.251v-3.1h1.757V160.9H40.251v-2.925H66.062v0c.026,0,.051,0,.077,0a4.508,4.508,0,0,1,4.3,3.153Zm29.546-.228v2.989h1.756v3.1H75.93v0c-.026,0-.051,0-.077,0a4.506,4.506,0,0,1-4.323-3.24,5.34,5.34,0,0,0,.023-2.621,4.509,4.509,0,0,1,4.3-3.153c.026,0,.051,0,.077,0v0h25.811V160.9Z" transform="translate(-27.903 -86.535)" fill="#e59800"></path><path id="Path_6211" data-name="Path 6211" d="M102.242,159.452V147.9H51.754v11.547Zm-1.037-.892H52.791V148.8h48.414v9.763Z" transform="translate(-33.905 -82.234)" fill="#9e4919"></path><path id="Path_6212" data-name="Path 6212" d="M53.741,149.614v9.763h48.414v-9.763Z" transform="translate(-34.855 -83.052)" fill="#203c6e"></path><g id="Group_1745" data-name="Group 1745" transform="translate(21.068 69.182)"><path id="Path_6213" data-name="Path 6213" d="M61.077,158.316H59.53l-.215.728H57.923l1.658-4.41h1.487l1.657,4.41H61.3Zm-.283-.953-.487-1.585-.482,1.585Z" transform="translate(-57.923 -154.635)" fill="#e59800"></path></g><g id="Group_1746" data-name="Group 1746" transform="translate(26.548 68.054)"><path id="Path_6214" data-name="Path 6214" d="M68.425,154.635h1.363v3.324h2.126v1.086H68.425Z" transform="translate(-68.425 -153.507)" fill="#e59800"></path><path id="Path_6215" data-name="Path 6215" d="M76.784,154.635h3.369v.947h-2v.771h1.708v.89H78.153v1.8H76.784Z" transform="translate(-72.422 -153.507)" fill="#e59800"></path><path id="Path_6216" data-name="Path 6216" d="M87.425,157.282H85.878l-.215.728H84.271l1.658-4.41h1.487l1.657,4.41H87.645Zm-1.183-4.809h.869l.668.86h-.746l-.367-.461-.367.461h-.746Zm.9,3.856-.487-1.585-.482,1.585Z" transform="translate(-76.003 -152.473)" fill="#e59800"></path><path id="Path_6217" data-name="Path 6217" d="M94.792,154.635h1.272l1.661,2.439v-2.439h1.284v4.41H97.725l-1.651-2.422v2.422H94.792Z" transform="translate(-81.034 -153.507)" fill="#e59800"></path><path id="Path_6218" data-name="Path 6218" d="M105.117,154.635h2.024a2.422,2.422,0,0,1,.967.162,1.571,1.571,0,0,1,.609.466,1.929,1.929,0,0,1,.349.707,3.289,3.289,0,0,1,.109.854,2.975,2.975,0,0,1-.161,1.1,1.809,1.809,0,0,1-.447.652,1.451,1.451,0,0,1-.614.351,3.159,3.159,0,0,1-.812.121h-2.024Zm1.362,1v2.409h.334a1.4,1.4,0,0,0,.607-.095.639.639,0,0,0,.283-.331,2.071,2.071,0,0,0,.1-.765,1.489,1.489,0,0,0-.229-.96.968.968,0,0,0-.758-.258Z" transform="translate(-85.971 -153.507)" fill="#e59800"></path><path id="Path_6219" data-name="Path 6219" d="M114.732,154.635h3.652v.941H116.1v.7h2.121v.9H116.1v.869h2.352v1h-3.718Z" transform="translate(-90.569 -153.507)" fill="#e59800"></path><path id="Path_6220" data-name="Path 6220" d="M125.8,157.378v-.917H127.9v1.88a4.285,4.285,0,0,1-1.069.561,3.622,3.622,0,0,1-1.1.149,2.678,2.678,0,0,1-1.28-.268,1.829,1.829,0,0,1-.767-.8,2.619,2.619,0,0,1-.272-1.215,2.535,2.535,0,0,1,.3-1.256,1.931,1.931,0,0,1,.872-.811,2.846,2.846,0,0,1,1.206-.213,3.384,3.384,0,0,1,1.093.133,1.422,1.422,0,0,1,.6.411,1.831,1.831,0,0,1,.359.705l-1.315.235a.71.71,0,0,0-.275-.382.864.864,0,0,0-.495-.132.894.894,0,0,0-.715.311,1.5,1.5,0,0,0-.266.985,1.548,1.548,0,0,0,.269,1.023.948.948,0,0,0,.75.307,1.436,1.436,0,0,0,.436-.066,2.368,2.368,0,0,0,.475-.226v-.415Z" transform="translate(-94.721 -153.438)" fill="#e59800"></path></g><g id="Group_1747" data-name="Group 1747" transform="translate(60.345 69.182)"><path id="Path_6221" data-name="Path 6221" d="M136.35,158.316H134.8l-.215.728H133.2l1.658-4.41h1.487l1.657,4.41H136.57Zm-.283-.953-.487-1.585-.482,1.585Z" transform="translate(-133.196 -154.635)" fill="#e59800"></path></g><path id="Path_6222" data-name="Path 6222" d="M79.337,40.062l.37.111a1.108,1.108,0,0,0,.375.184c.187.04.867.146.989.7,0,0,.031.24.291.121s-.244.415-.362.532-.218.415-.328.375-.078-.027-.169.024-.13.162-.248.129-.126-.04-.229.058-.07,0-.162-.146-.238-.258-.158-.347-.014-.174-.037-.253a1.807,1.807,0,0,0-.091-.258c-.043-.1-.236-.1-.112-.234s-.086-.165.016-.279-.07-.3-.127-.349-.013-.246-.013-.246l.03-.142" transform="translate(-47.091 -30.654)" fill="#9c0016"></path><path id="Path_6223" data-name="Path 6223" d="M79.337,40.062l.37.111a1.108,1.108,0,0,0,.375.184c.187.04.867.146.989.7,0,0,.031.24.291.121s-.244.415-.362.532-.218.415-.328.375-.078-.027-.169.024-.13.162-.248.129-.126-.04-.229.058-.07,0-.162-.146-.238-.258-.158-.347-.014-.174-.037-.253a1.807,1.807,0,0,0-.091-.258c-.043-.1-.236-.1-.112-.234s-.086-.165.016-.279-.07-.3-.127-.349-.013-.246-.013-.246l.03-.142" transform="translate(-47.091 -30.654)" fill="none" stroke="#633321" stroke-width="0.221"></path><path id="Path_6224" data-name="Path 6224" d="M100.194,82.429,99.466,80.7l-.728,1.733Zm0,0H98.739l.552.546v0h.353v0l.551-.546Z" transform="translate(-56.373 -50.094)"></path><path id="Path_6225" data-name="Path 6225" d="M99.8,85.06V95.073h.353V85.06Z" transform="translate(-56.879 -52.181)"></path><path id="Path_6226" data-name="Path 6226" d="M77.035,40.079l.166.349a1.094,1.094,0,0,0,.114.4c.1.166.471.742.139,1.2,0,0-.157.183.1.3s-.471.1-.637.087-.454.116-.5.007-.033-.076-.131-.109-.208.011-.262-.1-.055-.12-.2-.131-.043-.054,0-.218.033-.349.153-.349.12-.126.164-.2a1.839,1.839,0,0,0,.131-.24c.043-.1-.087-.24.1-.24s.066-.175.218-.175.175-.251.175-.327.175-.175.175-.175H77.1" transform="translate(-45.385 -30.671)" fill="#9c0016"></path><path id="Path_6227" data-name="Path 6227" d="M77.035,40.079l.166.349a1.094,1.094,0,0,0,.114.4c.1.166.471.742.139,1.2,0,0-.157.183.1.3s-.471.1-.637.087-.454.116-.5.007-.033-.076-.131-.109-.208.011-.262-.1-.055-.12-.2-.131-.043-.054,0-.218.033-.349.153-.349.12-.126.164-.2a1.839,1.839,0,0,0,.131-.24c.043-.1-.087-.24.1-.24s.066-.175.218-.175.175-.251.175-.327.175-.175.175-.175H77.1" transform="translate(-45.385 -30.671)" fill="none" stroke="#633321" stroke-width="0.221"></path><line id="Line_859" data-name="Line 859" x2="3.513" y2="3.618" transform="translate(41.275 31.877)" fill="none" stroke="#161615" stroke-width="0.207"></line><path id="Path_6228" data-name="Path 6228" d="M95.6,82.054l.449,1,.539-.523-.988-.479" transform="translate(-54.87 -50.744)" fill="#161615"></path><path id="Path_6229" data-name="Path 6229" d="M102.6,88.818l0,0v0l-.411.059-.059.411h0l.6.6h0l.059-.41.41-.059h0l-.6-.6Z" transform="translate(-57.993 -53.978)" fill="#fff"></path><line id="Line_860" data-name="Line 860" x1="3.512" y2="3.618" transform="translate(41.399 31.877)" fill="none" stroke="#161615" stroke-width="0.207"></line><path id="Path_6230" data-name="Path 6230" d="M103.766,82.054l-.449,1-.539-.523.988-.479" transform="translate(-58.305 -50.744)" fill="#161615"></path><path id="Path_6231" data-name="Path 6231" d="M96.73,88.8l0,0h0l.4.067.067.4h0l-.571.571h0l-.067-.4-.4-.067h0l.571-.571Z" transform="translate(-55.139 -53.971)" fill="#161615"></path><path id="Path_6232" data-name="Path 6232" d="M99.183,76.914l-.306.67-.731.084.542.5-.146.722.641-.362.641.362-.146-.722.542-.5-.731-.084-.306-.67Z" transform="translate(-56.09 -48.286)" fill="#fff"></path><path id="Path_6233" data-name="Path 6233" d="M92.747,100.835a.579.579,0,0,1,.113.262c0,.113.017.487.017.487H93.2s.188-.262.262-.187.085-.075.188-.075,0-.375,0-.375l-.188-.376-.713.263Z" transform="translate(-53.508 -59.599)" fill="#161615"></path><path id="Path_6234" data-name="Path 6234" d="M95.529,95.23l2.458-.875s3.927-1.767,4.426-4.864a3.247,3.247,0,0,1-1.848,1.1s-1.193,2.514-5.349,3.848l.383.371-.069.419Z" transform="translate(-54.688 -54.3)" fill="#161615"></path><g id="Group_1749" data-name="Group 1749" transform="translate(40.527 35.191)"><g id="Group_1748" data-name="Group 1748" clip-path="url(#clip-path-3)"><path id="Path_6235" data-name="Path 6235" d="M95.31,95.358s5.092-1.434,5.944-4.658L99.9,90.688l-4.923,3.947-.173.387.509.336Z" transform="translate(-95.017 -90.063)" fill="#fff"></path></g></g><path id="Path_6237" data-name="Path 6237" d="M94.868,99.885l-.741-2.14s-.205-.4,0-.474.385-.084.31.339.476.9.476.9-.21.759.2,1,.046.672-.246.374Z" transform="translate(-54.124 -58.001)" fill="#161615"></path><path id="Path_6238" data-name="Path 6238" d="M92.554,99.819c-.111.227-.254-.064-.412.136s-.353.014-.481.2c0,0-.4-.2-.4.346,0,0,.174.41.509.019,0,0,.3.029.358-.093s.276,0,.357-.089a.564.564,0,0,1,.376-.142c.092.016.151-.052.209-.115s-.124-.376-.124-.376-.279-.112-.39.115Zm-1,.449a.122.122,0,1,1-.141.1.121.121,0,0,1,.141-.1Z" transform="translate(-52.796 -59.171)" fill="#161615"></path><path id="Path_6239" data-name="Path 6239" d="M106.652,100.835a.579.579,0,0,0-.113.262c0,.113-.016.487-.016.487H106.2s-.188-.262-.263-.187-.084-.075-.188-.075,0-.375,0-.375l.188-.376.713.263Z" transform="translate(-59.705 -59.599)" fill="#161615"></path><path id="Path_6240" data-name="Path 6240" d="M98.142,95.23l-2.458-.875s-3.927-1.767-4.426-4.864a3.247,3.247,0,0,0,1.848,1.1s1.194,2.514,5.349,3.848l-.383.371.069.419Z" transform="translate(-52.796 -54.3)" fill="#161615"></path><g id="Group_1751" data-name="Group 1751" transform="translate(38.462 35.191)"><g id="Group_1750" data-name="Group 1750" clip-path="url(#clip-path-4)"><path id="Path_6241" data-name="Path 6241" d="M99.043,95.358S93.952,93.924,93.1,90.7l1.358-.012,4.922,3.947.173.387-.509.336Z" transform="translate(-92.138 -90.063)" fill="#fff"></path></g></g><path id="Path_6243" data-name="Path 6243" d="M104.242,99.885l.741-2.14s.205-.4,0-.474-.384-.084-.31.339-.476.9-.476.9.21.759-.2,1-.046.672.246.374Z" transform="translate(-58.799 -58.001)" fill="#161615"></path><path id="Path_6244" data-name="Path 6244" d="M106.045,99.819c.111.227.254-.064.413.136s.353.014.481.2c0,0,.4-.2.4.346,0,0-.174.41-.509.019,0,0-.3.029-.357-.093s-.275,0-.357-.089a.566.566,0,0,0-.377-.142c-.092.016-.15-.052-.209-.115s.123-.376.123-.376.279-.112.39.115Zm1,.449a.122.122,0,1,0,.141.1.122.122,0,0,0-.141-.1Z" transform="translate(-59.616 -59.171)" fill="#161615"></path><path id="Path_6245" data-name="Path 6245" d="M136.11,52.247" transform="translate(-74.245 -36.49)" fill="#e59800"></path><path id="Path_6246" data-name="Path 6246" d="M136.11,52.247" transform="translate(-74.245 -36.49)" fill="none" stroke="#633321" stroke-width="0.074"></path><path id="Path_6247" data-name="Path 6247" d="M134.857,94.97l.982-1.255,1.473,1.528,1.615,1.55,1.506,2.457" transform="translate(-73.645 -56.32)" fill="none" stroke="#633321" stroke-linejoin="round" stroke-width="0.295"></path><path id="Path_6248" data-name="Path 6248" d="M166.58,68s-2.689-.368-.812-2.241m-6.506,17.154s-.678,6.053-2.86,9.59" transform="translate(-83.948 -42.953)" fill="none" stroke="#633321" stroke-linecap="round" stroke-linejoin="round" stroke-width="0.295"></path><path id="Path_6249" data-name="Path 6249" d="M126.468,36.057H124.83l-2.074-.764-.109-.328-.655-.655m11.211,6.6a33.769,33.769,0,0,1,3.723,3.656" transform="translate(-67.494 -27.913)" fill="none" stroke="#633321" stroke-linejoin="round" stroke-width="0.295"></path><path id="Path_6250" data-name="Path 6250" d="M138.451,134.349a4.32,4.32,0,0,0,1.267,0c.5-.143.4.23.219.23s-.655-.005-1.267-.005c-.306,0-.568-.225-.219-.225Z" transform="translate(-75.284 -75.736)" fill="#9e4919"></path><path id="Path_6251" data-name="Path 6251" d="M138.451,134.349a4.32,4.32,0,0,0,1.267,0c.5-.143.4.23.219.23s-.655-.005-1.267-.005c-.306,0-.568-.225-.219-.225Z" transform="translate(-75.284 -75.736)" fill="none" stroke="#633321" stroke-width="0.221"></path><path id="Path_6252" data-name="Path 6252" d="M140.884,133.86a1.606,1.606,0,1,0,.895-1.892,1.488,1.488,0,0,0-.895,1.892Z" transform="translate(-76.478 -74.538)" fill="#9c0016"></path><path id="Path_6253" data-name="Path 6253" d="M140.884,133.86a1.606,1.606,0,1,0,.895-1.892,1.488,1.488,0,0,0-.895,1.892Z" transform="translate(-76.478 -74.538)" fill="none" stroke="#633321" stroke-width="0.221"></path><path id="Path_6254" data-name="Path 6254" d="M137.937,132.5a4.33,4.33,0,0,0,.176-1.255c-.072-.517.284-.367.258-.184s-.1.648-.182,1.254c-.042.3-.3.531-.253.185Z" transform="translate(-75.116 -74.098)" fill="#9e4919"></path><path id="Path_6255" data-name="Path 6255" d="M137.937,132.5a4.33,4.33,0,0,0,.176-1.255c-.072-.517.284-.367.258-.184s-.1.648-.182,1.254c-.042.3-.3.531-.253.185Z" transform="translate(-75.116 -74.098)" fill="none" stroke="#633321" stroke-width="0.221"></path><path id="Path_6256" data-name="Path 6256" d="M137.418,129.487a1.606,1.606,0,1,0-1.445-1.514,1.488,1.488,0,0,0,1.445,1.514Z" transform="translate(-74.178 -71.91)" fill="#9c0016"></path><path id="Path_6257" data-name="Path 6257" d="M137.418,129.487a1.606,1.606,0,1,0-1.445-1.514,1.488,1.488,0,0,0,1.445,1.514Z" transform="translate(-74.178 -71.91)" fill="none" stroke="#633321" stroke-width="0.221"></path><path id="Path_6258" data-name="Path 6258" d="M138.57,132.722a4.336,4.336,0,0,0,.831-.956c.221-.472.438-.153.317-.014s-.434.491-.835.953c-.2.231-.543.281-.313.017Z" transform="translate(-75.384 -74.397)" fill="#9e4919"></path><path id="Path_6259" data-name="Path 6259" d="M138.57,132.722a4.336,4.336,0,0,0,.831-.956c.221-.472.438-.153.317-.014s-.434.491-.835.953c-.2.231-.543.281-.313.017Z" transform="translate(-75.384 -74.397)" fill="none" stroke="#633321" stroke-width="0.221"></path><path id="Path_6260" data-name="Path 6260" d="M140.169,131.023a1.606,1.606,0,1,0-.388-2.057,1.488,1.488,0,0,0,.388,2.057Z" transform="translate(-75.884 -72.77)" fill="#9c0016"></path><path id="Path_6261" data-name="Path 6261" d="M140.169,131.023a1.606,1.606,0,1,0-.388-2.057,1.488,1.488,0,0,0,.388,2.057Z" transform="translate(-75.884 -72.77)" fill="none" stroke="#633321" stroke-width="0.221"></path><path id="Path_6262" data-name="Path 6262" d="M155.57,115.531a3.62,3.62,0,0,0,.018-1.064c-.112-.424.2-.336.2-.181s-.014.55-.023,1.064c0,.257-.2.474-.192.18Z" transform="translate(-83.548 -66.096)" fill="#9e4919"></path><path id="Path_6263" data-name="Path 6263" d="M155.57,115.531a3.62,3.62,0,0,0,.018-1.064c-.112-.424.2-.336.2-.181s-.014.55-.023,1.064c0,.257-.2.474-.192.18Z" transform="translate(-83.548 -66.096)" fill="none" stroke="#633321" stroke-width="0.221"></path><path id="Path_6264" data-name="Path 6264" d="M155.2,112.492a1.349,1.349,0,1,0-1.576-.78,1.25,1.25,0,0,0,1.576.78Z" transform="translate(-82.56 -64.088)" fill="#9c0016"></path><path id="Path_6265" data-name="Path 6265" d="M155.2,112.492a1.349,1.349,0,1,0-1.576-.78,1.25,1.25,0,0,0,1.576.78Z" transform="translate(-82.56 -64.088)" fill="none" stroke="#633321" stroke-width="0.221"></path><path id="Path_6266" data-name="Path 6266" d="M154.4,115.72a3.639,3.639,0,0,0-.752-.753c-.382-.213-.1-.376.007-.266s.386.392.749.756c.182.182.2.471,0,.264Z" transform="translate(-82.539 -66.339)" fill="#9e4919"></path><path id="Path_6267" data-name="Path 6267" d="M154.4,115.72a3.639,3.639,0,0,0-.752-.753c-.382-.213-.1-.376.007-.266s.386.392.749.756c.182.182.2.471,0,.264Z" transform="translate(-82.539 -66.339)" fill="none" stroke="#633321" stroke-width="0.221"></path><path id="Path_6268" data-name="Path 6268" d="M152.432,113.558a1.349,1.349,0,1,0-1.746.2,1.25,1.25,0,0,0,1.746-.2Z" transform="translate(-80.91 -64.875)" fill="#9c0016"></path><path id="Path_6269" data-name="Path 6269" d="M152.432,113.558a1.349,1.349,0,1,0-1.746.2,1.25,1.25,0,0,0,1.746-.2Z" transform="translate(-80.91 -64.875)" fill="none" stroke="#633321" stroke-width="0.221"></path><path id="Path_6270" data-name="Path 6270" d="M156.226,115.84a3.614,3.614,0,0,0,.7-.8c.186-.4.368-.129.266-.011s-.364.412-.7.8c-.169.194-.456.236-.264.014Z" transform="translate(-83.834 -66.417)" fill="#9e4919"></path><path id="Path_6271" data-name="Path 6271" d="M156.226,115.84a3.614,3.614,0,0,0,.7-.8c.186-.4.368-.129.266-.011s-.364.412-.7.8c-.169.194-.456.236-.264.014Z" transform="translate(-83.834 -66.417)" fill="none" stroke="#633321" stroke-width="0.221"></path><path id="Path_6272" data-name="Path 6272" d="M157.57,114.414a1.349,1.349,0,1,0-.326-1.728,1.251,1.251,0,0,0,.326,1.728Z" transform="translate(-84.254 -65.05)" fill="#9c0016"></path><path id="Path_6273" data-name="Path 6273" d="M157.57,114.414a1.349,1.349,0,1,0-.326-1.728,1.251,1.251,0,0,0,.326,1.728Z" transform="translate(-84.254 -65.05)" fill="none" stroke="#633321" stroke-width="0.221"></path><path id="Path_6274" data-name="Path 6274" d="M161.625,88.309a3.639,3.639,0,0,0,.019-1.064c-.113-.423.2-.335.2-.18s-.015.55-.023,1.064c0,.257-.2.474-.192.18Z" transform="translate(-86.443 -53.079)" fill="#9e4919"></path><path id="Path_6275" data-name="Path 6275" d="M161.625,88.309a3.639,3.639,0,0,0,.019-1.064c-.113-.423.2-.335.2-.18s-.015.55-.023,1.064c0,.257-.2.474-.192.18Z" transform="translate(-86.443 -53.079)" fill="none" stroke="#633321" stroke-width="0.221"></path><path id="Path_6276" data-name="Path 6276" d="M161.251,85.27a1.349,1.349,0,1,0-1.576-.78,1.251,1.251,0,0,0,1.576.78Z" transform="translate(-85.455 -51.07)" fill="#9c0016"></path><path id="Path_6277" data-name="Path 6277" d="M161.251,85.27a1.349,1.349,0,1,0-1.576-.78,1.251,1.251,0,0,0,1.576.78Z" transform="translate(-85.455 -51.07)" fill="none" stroke="#633321" stroke-width="0.221"></path><path id="Path_6278" data-name="Path 6278" d="M163.254,88.154a3.642,3.642,0,0,0,.221-1.041c-.03-.437.26-.292.228-.14s-.119.537-.226,1.04c-.053.252-.284.427-.223.14Z" transform="translate(-87.22 -53.024)" fill="#9e4919"></path><path id="Path_6279" data-name="Path 6279" d="M163.254,88.154a3.642,3.642,0,0,0,.221-1.041c-.03-.437.26-.292.228-.14s-.119.537-.226,1.04c-.053.252-.284.427-.223.14Z" transform="translate(-87.22 -53.024)" fill="none" stroke="#633321" stroke-width="0.221"></path><path id="Path_6280" data-name="Path 6280" d="M163.052,85.239a1.349,1.349,0,1,0-1.122-1.354,1.25,1.25,0,0,0,1.122,1.354Z" transform="translate(-86.592 -50.992)" fill="#9c0016"></path><path id="Path_6281" data-name="Path 6281" d="M163.052,85.239a1.349,1.349,0,1,0-1.122-1.354,1.25,1.25,0,0,0,1.122,1.354Z" transform="translate(-86.592 -50.992)" fill="none" stroke="#633321" stroke-width="0.221"></path><path id="Path_6282" data-name="Path 6282" d="M160.447,88.8a3.628,3.628,0,0,0-.753-.752c-.382-.213-.1-.377.007-.267s.386.392.749.756c.182.182.2.471,0,.263Z" transform="translate(-85.43 -53.466)" fill="#9e4919"></path><path id="Path_6283" data-name="Path 6283" d="M160.447,88.8a3.628,3.628,0,0,0-.753-.752c-.382-.213-.1-.377.007-.267s.386.392.749.756c.182.182.2.471,0,.263Z" transform="translate(-85.43 -53.466)" fill="none" stroke="#633321" stroke-width="0.221"></path><path id="Path_6284" data-name="Path 6284" d="M158.476,86.639a1.349,1.349,0,1,0-1.746.2,1.25,1.25,0,0,0,1.746-.2Z" transform="translate(-83.8 -52.002)" fill="#9c0016"></path><path id="Path_6285" data-name="Path 6285" d="M158.476,86.639a1.349,1.349,0,1,0-1.746.2,1.25,1.25,0,0,0,1.746-.2Z" transform="translate(-83.8 -52.002)" fill="none" stroke="#633321" stroke-width="0.221"></path><path id="Path_6286" data-name="Path 6286" d="M158.406,65.669a3.639,3.639,0,0,0,.294-1.023c0-.438.279-.272.236-.123s-.156.528-.3,1.022c-.071.247-.313.406-.232.124Z" transform="translate(-84.899 -42.284)" fill="#9e4919"></path><path id="Path_6287" data-name="Path 6287" d="M158.406,65.669a3.639,3.639,0,0,0,.294-1.023c0-.438.279-.272.236-.123s-.156.528-.3,1.022c-.071.247-.313.406-.232.124Z" transform="translate(-84.899 -42.284)" fill="none" stroke="#633321" stroke-width="0.221"></path><path id="Path_6288" data-name="Path 6288" d="M159.031,63.575a1.349,1.349,0,1,0-1.025-1.428,1.25,1.25,0,0,0,1.025,1.428Z" transform="translate(-84.712 -40.635)" fill="#9c0016"></path><path id="Path_6289" data-name="Path 6289" d="M159.031,63.575a1.349,1.349,0,1,0-1.025-1.428,1.25,1.25,0,0,0,1.025,1.428Z" transform="translate(-84.712 -40.635)" fill="none" stroke="#633321" stroke-width="0.221"></path><path id="Path_6290" data-name="Path 6290" d="M155.763,67.1a3.627,3.627,0,0,0-.965-.45c-.433-.069-.225-.319-.085-.253s.5.237.963.454c.233.109.353.373.087.249Z" transform="translate(-83.057 -43.251)" fill="#9e4919"></path><path id="Path_6291" data-name="Path 6291" d="M155.763,67.1a3.627,3.627,0,0,0-.965-.45c-.433-.069-.225-.319-.085-.253s.5.237.963.454c.233.109.353.373.087.249Z" transform="translate(-83.057 -43.251)" fill="none" stroke="#633321" stroke-width="0.221"></path><path id="Path_6292" data-name="Path 6292" d="M153.413,65.363a1.349,1.349,0,1,0-1.571.789,1.25,1.25,0,0,0,1.571-.789Z" transform="translate(-81.267 -42.054)" fill="#9c0016"></path><path id="Path_6293" data-name="Path 6293" d="M153.413,65.363a1.349,1.349,0,1,0-1.571.789,1.25,1.25,0,0,0,1.571-.789Z" transform="translate(-81.267 -42.054)" fill="none" stroke="#633321" stroke-width="0.221"></path><path id="Path_6294" data-name="Path 6294" d="M157.079,66.126a3.624,3.624,0,0,0-.381-.993c-.263-.351.059-.386.115-.241s.193.516.377,1c.092.239-.005.513-.111.239Z" transform="translate(-84.041 -42.498)" fill="#9e4919"></path><path id="Path_6295" data-name="Path 6295" d="M157.079,66.126a3.624,3.624,0,0,0-.381-.993c-.263-.351.059-.386.115-.241s.193.516.377,1c.092.239-.005.513-.111.239Z" transform="translate(-84.041 -42.498)" fill="none" stroke="#633321" stroke-width="0.221"></path><path id="Path_6296" data-name="Path 6296" d="M155.87,63.056a1.349,1.349,0,1,0-1.753-.133,1.251,1.251,0,0,0,1.753.133Z" transform="translate(-82.649 -40.613)" fill="#9c0016"></path><path id="Path_6297" data-name="Path 6297" d="M155.87,63.056a1.349,1.349,0,1,0-1.753-.133,1.251,1.251,0,0,0,1.753.133Z" transform="translate(-82.649 -40.613)" fill="none" stroke="#633321" stroke-width="0.221"></path><path id="Path_6298" data-name="Path 6298" d="M150.805,53.2a2.11,2.11,0,0,0,.17-.593c0-.254.162-.158.137-.071s-.09.306-.173.593c-.041.143-.182.236-.135.072Z" transform="translate(-81.267 -36.581)" fill="#9e4919"></path><path id="Path_6299" data-name="Path 6299" d="M150.805,53.2a2.11,2.11,0,0,0,.17-.593c0-.254.162-.158.137-.071s-.09.306-.173.593c-.041.143-.182.236-.135.072Z" transform="translate(-81.267 -36.581)" fill="none" stroke="#633321" stroke-width="0.221"></path><path id="Path_6300" data-name="Path 6300" d="M151.168,51.981a.782.782,0,1,0-.595-.829.725.725,0,0,0,.595.829Z" transform="translate(-81.159 -35.625)" fill="#9c0016"></path><path id="Path_6301" data-name="Path 6301" d="M151.168,51.981a.782.782,0,1,0-.595-.829.725.725,0,0,0,.595.829Z" transform="translate(-81.159 -35.625)" fill="none" stroke="#633321" stroke-width="0.221"></path><path id="Path_6302" data-name="Path 6302" d="M148.842,53.749a2.09,2.09,0,0,0-.559-.261c-.25-.04-.13-.185-.049-.147s.288.137.558.263c.135.063.2.217.05.145Z" transform="translate(-79.993 -37.01)" fill="#9e4919"></path><path id="Path_6303" data-name="Path 6303" d="M148.842,53.749a2.09,2.09,0,0,0-.559-.261c-.25-.04-.13-.185-.049-.147s.288.137.558.263c.135.063.2.217.05.145Z" transform="translate(-79.993 -37.01)" fill="none" stroke="#633321" stroke-width="0.221"></path><path id="Path_6304" data-name="Path 6304" d="M147.479,52.742a.782.782,0,1,0-.911.458.726.726,0,0,0,.911-.458Z" transform="translate(-78.955 -36.316)" fill="#9c0016"></path><path id="Path_6305" data-name="Path 6305" d="M147.479,52.742a.782.782,0,1,0-.911.458.726.726,0,0,0,.911-.458Z" transform="translate(-78.955 -36.316)" fill="none" stroke="#633321" stroke-width="0.221"></path><path id="Path_6306" data-name="Path 6306" d="M149.672,53.184a2.1,2.1,0,0,0-.221-.577c-.152-.2.034-.223.067-.139s.112.3.219.577c.053.139,0,.3-.064.139Z" transform="translate(-80.596 -36.574)" fill="#9e4919"></path><path id="Path_6307" data-name="Path 6307" d="M149.672,53.184a2.1,2.1,0,0,0-.221-.577c-.152-.2.034-.223.067-.139s.112.3.219.577c.053.139,0,.3-.064.139Z" transform="translate(-80.596 -36.574)" fill="none" stroke="#633321" stroke-width="0.221"></path><path id="Path_6308" data-name="Path 6308" d="M148.971,51.4a.782.782,0,1,0-1.017-.077.726.726,0,0,0,1.017.077Z" transform="translate(-79.788 -35.48)" fill="#9c0016"></path><path id="Path_6309" data-name="Path 6309" d="M148.971,51.4a.782.782,0,1,0-1.017-.077.726.726,0,0,0,1.017.077Z" transform="translate(-79.788 -35.48)" fill="none" stroke="#633321" stroke-width="0.221"></path><path id="Path_6310" data-name="Path 6310" d="M57.109,112.021s5.174-3.474,5.436-7.785" transform="translate(-36.466 -61.352)" fill="none" stroke="#633321" stroke-linejoin="round" stroke-width="0.295"></path><line id="Line_861" data-name="Line 861" y1="2.554" x2="3.558" transform="translate(16.54 25.127)" fill="none" stroke="#633321" stroke-linecap="round" stroke-linejoin="round" stroke-width="0.295"></line></g><g id="Group_1755" data-name="Group 1755" transform="translate(126.497 22.501)"><g id="Group_1753" data-name="Group 1753" transform="translate(0 20.601)"><path id="Path_6311" data-name="Path 6311" d="M241.521,87.875h-9.795l-2.2,6.117h-3.179l8.927-23.378h2.7l8.943,23.378h-3.163Zm-8.863-2.521h7.948L236.624,74.42Z" transform="translate(-226.348 -69.331)" fill="#11182f"></path><path id="Path_6312" data-name="Path 6312" d="M279.972,97.779a6.312,6.312,0,0,1-5.09,2.039,5.4,5.4,0,0,1-4.23-1.614,6.977,6.977,0,0,1-1.469-4.776v-11.3h2.971V93.347q0,3.949,3.211,3.949,3.4,0,4.528-2.536V82.124h2.97V99.5h-2.826Z" transform="translate(-246.832 -74.835)" fill="#11182f"></path><path id="Path_6313" data-name="Path 6313" d="M304.888,74.061v4.207h3.243v2.3h-3.243V91.351a2.411,2.411,0,0,0,.434,1.567,1.823,1.823,0,0,0,1.477.522,7.2,7.2,0,0,0,1.413-.193v2.395a8.679,8.679,0,0,1-2.28.319,3.7,3.7,0,0,1-3-1.2,5.173,5.173,0,0,1-1.012-3.419V80.564h-3.163v-2.3h3.163V74.061Z" transform="translate(-260.974 -70.979)" fill="#11182f"></path><path id="Path_6314" data-name="Path 6314" d="M319.987,90.355a10.26,10.26,0,0,1,1-4.592,7.481,7.481,0,0,1,2.793-3.147,7.6,7.6,0,0,1,4.086-1.108,7.324,7.324,0,0,1,5.74,2.457A9.451,9.451,0,0,1,335.8,90.5v.209a10.346,10.346,0,0,1-.972,4.551,7.378,7.378,0,0,1-2.777,3.14,7.7,7.7,0,0,1-4.151,1.123,7.308,7.308,0,0,1-5.724-2.457,9.4,9.4,0,0,1-2.192-6.5Zm2.987.354a7.431,7.431,0,0,0,1.34,4.64,4.543,4.543,0,0,0,7.186-.025,8.126,8.126,0,0,0,1.332-4.969,7.419,7.419,0,0,0-1.357-4.632,4.314,4.314,0,0,0-3.605-1.775,4.264,4.264,0,0,0-3.548,1.751A8.063,8.063,0,0,0,322.974,90.709Z" transform="translate(-271.127 -74.54)" fill="#11182f"></path><path id="Path_6315" data-name="Path 6315" d="M364.572,84.495a9,9,0,0,0-1.461-.112,3.914,3.914,0,0,0-3.966,2.489V99.2h-2.971V81.83h2.89l.048,2.007a4.625,4.625,0,0,1,4.143-2.328,3.038,3.038,0,0,1,1.316.224Z" transform="translate(-288.432 -74.54)" fill="#11182f"></path><path id="Path_6316" data-name="Path 6316" d="M376.269,71.718a1.773,1.773,0,0,1,.441-1.22,1.658,1.658,0,0,1,1.309-.5,1.683,1.683,0,0,1,1.316.5,1.755,1.755,0,0,1,.45,1.22,1.759,1.759,0,1,1-3.516,0Zm3.212,21.98H376.51V76.326h2.971Z" transform="translate(-298.041 -69.037)" fill="#11182f"></path><path id="Path_6317" data-name="Path 6317" d="M388.886,83.985a10.18,10.18,0,0,1,1.895-6.431,6.447,6.447,0,0,1,9.795-.345V68.154h2.97V92.816h-2.729l-.145-1.862a6.047,6.047,0,0,1-4.961,2.183,5.933,5.933,0,0,1-4.922-2.472,10.292,10.292,0,0,1-1.9-6.455Zm2.971.338a7.7,7.7,0,0,0,1.22,4.624,3.944,3.944,0,0,0,3.372,1.67,4.333,4.333,0,0,0,4.126-2.536V80.1a4.366,4.366,0,0,0-4.094-2.457,3.963,3.963,0,0,0-3.4,1.685A8.487,8.487,0,0,0,391.857,84.323Z" transform="translate(-304.075 -68.154)" fill="#11182f"></path><path id="Path_6318" data-name="Path 6318" d="M434.82,99.2a6.233,6.233,0,0,1-.418-1.83,6.626,6.626,0,0,1-4.945,2.151,6.133,6.133,0,0,1-4.215-1.453,4.7,4.7,0,0,1-1.646-3.685,4.911,4.911,0,0,1,2.063-4.215,9.726,9.726,0,0,1,5.8-1.5h2.89V87.305a3.338,3.338,0,0,0-.932-2.481,3.742,3.742,0,0,0-2.745-.923,4.33,4.33,0,0,0-2.665.8,2.365,2.365,0,0,0-1.076,1.943H423.95a4.094,4.094,0,0,1,.924-2.512,6.3,6.3,0,0,1,2.5-1.919,8.43,8.43,0,0,1,3.476-.706,6.867,6.867,0,0,1,4.7,1.5,5.416,5.416,0,0,1,1.766,4.134v8a9.782,9.782,0,0,0,.61,3.805V99.2Zm-4.929-2.264a5.215,5.215,0,0,0,2.649-.723,4.373,4.373,0,0,0,1.815-1.878V90.773h-2.328q-5.459,0-5.459,3.195a2.7,2.7,0,0,0,.931,2.183A3.576,3.576,0,0,0,429.891,96.938Z" transform="translate(-320.674 -74.54)" fill="#11182f"></path><path id="Path_6319" data-name="Path 6319" d="M456.184,83.985a10.179,10.179,0,0,1,1.895-6.431,6.447,6.447,0,0,1,9.795-.345V68.154h2.97V92.816h-2.729l-.145-1.862a6.047,6.047,0,0,1-4.961,2.183,5.932,5.932,0,0,1-4.921-2.472,10.292,10.292,0,0,1-1.9-6.455Zm2.971.338a7.7,7.7,0,0,0,1.22,4.624,3.943,3.943,0,0,0,3.372,1.67,4.333,4.333,0,0,0,4.126-2.536V80.1a4.367,4.367,0,0,0-4.095-2.457,3.963,3.963,0,0,0-3.4,1.685A8.487,8.487,0,0,0,459.155,84.323Z" transform="translate(-336.258 -68.154)" fill="#11182f"></path><path id="Path_6320" data-name="Path 6320" d="M498.367,99.523a7.588,7.588,0,0,1-5.748-2.32A8.61,8.61,0,0,1,490.4,91v-.546a10.423,10.423,0,0,1,.988-4.616,7.7,7.7,0,0,1,2.762-3.179A6.939,6.939,0,0,1,498,81.509a6.506,6.506,0,0,1,5.266,2.232,9.664,9.664,0,0,1,1.878,6.39v1.236H493.374a6.172,6.172,0,0,0,1.5,4.151,4.717,4.717,0,0,0,3.653,1.582,5.179,5.179,0,0,0,2.666-.642,6.7,6.7,0,0,0,1.91-1.7l1.814,1.413A7.294,7.294,0,0,1,498.367,99.523ZM498,83.949a3.96,3.96,0,0,0-3.018,1.309,6.356,6.356,0,0,0-1.51,3.669h8.7V88.7a5.664,5.664,0,0,0-1.22-3.509A3.731,3.731,0,0,0,498,83.949Z" transform="translate(-352.621 -74.54)" fill="#11182f"></path><path id="Path_6321" data-name="Path 6321" d="M241.521,147.245h-9.795l-2.2,6.117h-3.179l8.927-23.378h2.7l8.943,23.378h-3.163Zm-8.863-2.521h7.948l-3.982-10.934Z" transform="translate(-226.348 -97.722)" fill="#11182f"></path><path id="Path_6322" data-name="Path 6322" d="M268.26,143.355a10.18,10.18,0,0,1,1.894-6.431,6.447,6.447,0,0,1,9.794-.345v-9.056h2.97v24.662h-2.729l-.145-1.862a6.049,6.049,0,0,1-4.961,2.183,5.935,5.935,0,0,1-4.922-2.472,10.291,10.291,0,0,1-1.9-6.455Zm2.97.338a7.7,7.7,0,0,0,1.22,4.624,3.943,3.943,0,0,0,3.372,1.67,4.333,4.333,0,0,0,4.126-2.536v-7.98a4.366,4.366,0,0,0-4.094-2.457,3.963,3.963,0,0,0-3.4,1.685A8.482,8.482,0,0,0,271.23,143.693Z" transform="translate(-246.391 -96.545)" fill="#11182f"></path><path id="Path_6323" data-name="Path 6323" d="M314.59,157.149a6.312,6.312,0,0,1-5.09,2.039,5.4,5.4,0,0,1-4.231-1.614A6.982,6.982,0,0,1,303.8,152.8v-11.3h2.97v11.223q0,3.949,3.211,3.949,3.4,0,4.528-2.536V141.494h2.97v17.373h-2.826Z" transform="translate(-263.386 -103.226)" fill="#11182f"></path><path id="Path_6324" data-name="Path 6324" d="M347.673,158.572a6.214,6.214,0,0,1-.418-1.83,6.628,6.628,0,0,1-4.946,2.151,6.133,6.133,0,0,1-4.214-1.453,4.7,4.7,0,0,1-1.645-3.685,4.911,4.911,0,0,1,2.063-4.215,9.728,9.728,0,0,1,5.8-1.5h2.89v-1.365a3.34,3.34,0,0,0-.931-2.481,3.745,3.745,0,0,0-2.746-.923,4.329,4.329,0,0,0-2.665.8,2.365,2.365,0,0,0-1.076,1.943H336.8a4.1,4.1,0,0,1,.923-2.512,6.307,6.307,0,0,1,2.5-1.919,8.432,8.432,0,0,1,3.476-.706,6.869,6.869,0,0,1,4.7,1.5,5.416,5.416,0,0,1,1.766,4.135v8a9.773,9.773,0,0,0,.61,3.805v.257Zm-4.93-2.264a5.216,5.216,0,0,0,2.65-.723,4.375,4.375,0,0,0,1.814-1.878v-3.564h-2.328q-5.458,0-5.459,3.195a2.7,2.7,0,0,0,.931,2.183A3.575,3.575,0,0,0,342.743,156.308Z" transform="translate(-279 -102.932)" fill="#11182f"></path><path id="Path_6325" data-name="Path 6325" d="M373.231,141.2l.1,2.184a6.33,6.33,0,0,1,5.2-2.5q5.506,0,5.555,6.213v11.48h-2.97v-11.5a4,4,0,0,0-.859-2.777,3.442,3.442,0,0,0-2.625-.9,4.286,4.286,0,0,0-2.536.77,5.232,5.232,0,0,0-1.7,2.023v12.38h-2.971V141.2Z" transform="translate(-295.245 -102.932)" fill="#11182f"></path><path id="Path_6326" data-name="Path 6326" d="M410.45,158.893a7.588,7.588,0,0,1-5.748-2.32,8.61,8.61,0,0,1-2.216-6.206v-.546a10.424,10.424,0,0,1,.988-4.616,7.7,7.7,0,0,1,2.762-3.179,6.939,6.939,0,0,1,3.845-1.148,6.507,6.507,0,0,1,5.266,2.232,9.663,9.663,0,0,1,1.878,6.39v1.236H405.457a6.174,6.174,0,0,0,1.5,4.151,4.717,4.717,0,0,0,3.653,1.582,5.174,5.174,0,0,0,2.666-.642,6.7,6.7,0,0,0,1.91-1.7L417,155.538A7.3,7.3,0,0,1,410.45,158.893Zm-.369-15.574a3.959,3.959,0,0,0-3.018,1.308,6.357,6.357,0,0,0-1.51,3.669h8.7v-.225a5.664,5.664,0,0,0-1.22-3.509A3.73,3.73,0,0,0,410.081,143.319Z" transform="translate(-310.579 -102.932)" fill="#11182f"></path><path id="Path_6327" data-name="Path 6327" d="M436.09,131.088a1.773,1.773,0,0,1,.441-1.22,1.659,1.659,0,0,1,1.309-.5,1.684,1.684,0,0,1,1.317.5,1.755,1.755,0,0,1,.449,1.22,1.7,1.7,0,0,1-.449,1.2,1.715,1.715,0,0,1-1.317.481,1.69,1.69,0,0,1-1.309-.481A1.715,1.715,0,0,1,436.09,131.088Zm3.211,21.98h-2.971V135.7H439.3Z" transform="translate(-326.648 -97.428)" fill="#11182f"></path><path id="Path_6328" data-name="Path 6328" d="M458.488,143.865a9,9,0,0,0-1.461-.112,3.913,3.913,0,0,0-3.966,2.488v12.331h-2.971V141.2h2.89l.048,2.007a4.625,4.625,0,0,1,4.142-2.328,3.038,3.038,0,0,1,1.316.224Z" transform="translate(-333.344 -102.932)" fill="#11182f"></path><path id="Path_6329" data-name="Path 6329" d="M479.193,158.572a6.231,6.231,0,0,1-.418-1.83,6.626,6.626,0,0,1-4.945,2.151,6.133,6.133,0,0,1-4.215-1.453,4.7,4.7,0,0,1-1.646-3.685,4.912,4.912,0,0,1,2.063-4.215,9.726,9.726,0,0,1,5.8-1.5h2.89v-1.365a3.34,3.34,0,0,0-.931-2.481,3.746,3.746,0,0,0-2.746-.923,4.331,4.331,0,0,0-2.665.8,2.365,2.365,0,0,0-1.076,1.943h-2.986a4.094,4.094,0,0,1,.924-2.512,6.3,6.3,0,0,1,2.5-1.919,8.43,8.43,0,0,1,3.476-.706,6.866,6.866,0,0,1,4.7,1.5,5.416,5.416,0,0,1,1.766,4.135v8a9.782,9.782,0,0,0,.61,3.805v.257Zm-4.929-2.264a5.214,5.214,0,0,0,2.649-.723,4.373,4.373,0,0,0,1.815-1.878v-3.564H476.4q-5.459,0-5.459,3.195a2.7,2.7,0,0,0,.931,2.183A3.577,3.577,0,0,0,474.264,156.308Z" transform="translate(-341.894 -102.932)" fill="#11182f"></path></g><g id="Group_1754" data-name="Group 1754" transform="translate(0.671)"><path id="Path_6330" data-name="Path 6330" d="M238.68,30.076h-4.921V43.411h-1.213V30.076h-4.912V29.051H238.68Z" transform="translate(-227.634 -28.854)" fill="#11182f"></path><path id="Path_6331" data-name="Path 6331" d="M255.2,43.411h-1.213V29.051H255.2Z" transform="translate(-240.237 -28.854)" fill="#11182f"></path><path id="Path_6332" data-name="Path 6332" d="M265.619,29.051l5.3,12.673,5.315-12.673h1.618v14.36h-1.213V37.158l.1-6.411-5.345,12.663h-.937L265.126,30.8l.1,6.322v6.292h-1.214V29.051Z" transform="translate(-245.03 -28.854)" fill="#11182f"></path><path id="Path_6333" data-name="Path 6333" d="M307.816,36.829a8.293,8.293,0,0,1-.686,3.481,5.226,5.226,0,0,1-1.957,2.308,5.356,5.356,0,0,1-2.939.809,5.1,5.1,0,0,1-4.064-1.8,7.2,7.2,0,0,1-1.549-4.858V35.29a8.243,8.243,0,0,1,.7-3.477,5.5,5.5,0,0,1,7.821-2.342A5.257,5.257,0,0,1,307.1,31.73a8.131,8.131,0,0,1,.72,3.383ZM306.6,35.271a6.349,6.349,0,0,0-1.173-4.063,4.221,4.221,0,0,0-6.407.005,6.4,6.4,0,0,0-1.188,4.117v1.5a6.343,6.343,0,0,0,1.184,4.049,4.223,4.223,0,0,0,6.43.019,6.513,6.513,0,0,0,1.154-4.108Z" transform="translate(-260.625 -28.673)" fill="#11182f"></path><path id="Path_6334" data-name="Path 6334" d="M329.505,37.424h-4.172v5.987H324.11V29.051h4.665a5.329,5.329,0,0,1,3.59,1.112,4.249,4.249,0,0,1,.483,5.546,4.131,4.131,0,0,1-2.17,1.458l3.59,6.114v.128h-1.292ZM325.333,36.4h3.718a3.445,3.445,0,0,0,2.456-.869,3.283,3.283,0,0,0-.04-4.613,4,4,0,0,0-2.712-.84h-3.422Z" transform="translate(-273.77 -28.854)" fill="#11182f"></path><path id="Path_6335" data-name="Path 6335" d="M351.144,44.469H346.42v-1h4.724Z" transform="translate(-284.438 -35.75)" fill="#11182f"></path><path id="Path_6336" data-name="Path 6336" d="M361.5,42.385h7.092v1.026H360.28V29.051H361.5Z" transform="translate(-291.066 -28.854)" fill="#11182f"></path><path id="Path_6337" data-name="Path 6337" d="M388.837,36.527H382.12v5.858h7.723v1.026h-8.936V29.051h8.886v1.025H382.12V35.5h6.717Z" transform="translate(-300.93 -28.854)" fill="#11182f"></path><path id="Path_6338" data-name="Path 6338" d="M410.418,39.7a2.326,2.326,0,0,0-.838-1.889,8.876,8.876,0,0,0-3.068-1.321,10.767,10.767,0,0,1-3.255-1.366,3.314,3.314,0,0,1-.1-5.42,5.573,5.573,0,0,1,3.467-1.03,5.748,5.748,0,0,1,2.559.552,4.191,4.191,0,0,1,1.751,1.539,4.043,4.043,0,0,1,.621,2.2H410.33a3.016,3.016,0,0,0-1.006-2.369,3.914,3.914,0,0,0-2.7-.895,4.255,4.255,0,0,0-2.624.736,2.3,2.3,0,0,0-.976,1.921,2.173,2.173,0,0,0,.878,1.788,8.139,8.139,0,0,0,2.811,1.22,13.2,13.2,0,0,1,2.929,1.1,4.176,4.176,0,0,1,1.5,1.356,3.391,3.391,0,0,1,.5,1.864,3.245,3.245,0,0,1-1.356,2.722,5.774,5.774,0,0,1-3.575,1.026,7.015,7.015,0,0,1-2.786-.542A4.257,4.257,0,0,1,402,41.366a3.921,3.921,0,0,1-.655-2.239h1.213a2.867,2.867,0,0,0,1.134,2.4,4.8,4.8,0,0,0,3.018.877,4.476,4.476,0,0,0,2.692-.739A2.313,2.313,0,0,0,410.418,39.7Z" transform="translate(-310.704 -28.673)" fill="#11182f"></path><path id="Path_6339" data-name="Path 6339" d="M434.87,30.076h-4.922V43.411h-1.213V30.076h-4.912V29.051H434.87Z" transform="translate(-321.454 -28.854)" fill="#11182f"></path><path id="Path_6340" data-name="Path 6340" d="M457.6,36.527h-6.716v5.858H458.6v1.026h-8.936V29.051h8.886v1.025h-7.673V35.5H457.6Z" transform="translate(-333.813 -28.854)" fill="#11182f"></path></g></g></g></svg> 